<?xml version="1.0" standalone="no"?>
<!DOCTYPE svg PUBLIC "-//W3C//DTD SVG 1.1//EN" "http://www.w3.org/Graphics/SVG/1.1/DTD/svg11.dtd" >
<svg xmlns="http://www.w3.org/2000/svg" xmlns:xlink="http://www.w3.org/1999/xlink" version="1.1">
<metadata>
Created by FontForge 20170731 at Sun Nov 12 04:28:41 2017
 By Aleksey,,,
Copyright The Game Tips And More Blog 2017
</metadata>
<defs>
<font id="LED-SCREEN-GTAMBLOG-CAPS+-2.0" horiz-adv-x="3640" >
  <font-face 
    font-family="LED SCREEN GTAMBLOG CAPS+ 2.0"
    font-weight="400"
    font-variant="small-caps"
    font-stretch="normal"
    units-per-em="4096"
    panose-1="0 0 4 0 0 0 0 0 0 0"
    ascent="4096"
    descent="0"
    x-height="4096"
    cap-height="4096"
    bbox="0 -455 4551 5461"
    underline-thickness="204"
    underline-position="103"
    unicode-range="U+0020-201D"
  />
<missing-glyph horiz-adv-x="455" 
d="M2048 581v651h-652v-651h652zM2699 1343v651h-1303v-651h1303zM2048 2101v651h-652v-651h652zM2699 2863v647h-651q-271 0 -459 -189q-193 -192 -193 -458h1303zM0 0v4096h4096v-4096h-4096z" />
    <glyph glyph-name=".notdef" horiz-adv-x="455" 
d="M2048 581v651h-652v-651h652zM2699 1343v651h-1303v-651h1303zM2048 2101v651h-652v-651h652zM2699 2863v647h-651q-271 0 -459 -189q-193 -192 -193 -458h1303zM0 0v4096h4096v-4096h-4096z" />
    <glyph glyph-name="glyph1" horiz-adv-x="0" 
 />
    <glyph glyph-name="glyph2" horiz-adv-x="1365" 
 />
    <glyph glyph-name="space" unicode=" " 
 />
    <glyph glyph-name="exclam" unicode="!" horiz-adv-x="2275" 
d="M1592 455q-94 0 -161 66q-66 67 -66 161t66 161q67 67 161 67q95 0 161 -67q67 -67 67 -161t-67 -161q-66 -66 -161 -66v0zM1592 1365q-94 0 -161 66q-66 67 -66 161q0 95 66 161q67 67 161 67q95 0 161 -67q67 -66 67 -161q0 -94 -67 -161q-66 -66 -161 -66v0z
M1592 1820q-94 0 -161 66q-66 67 -66 162q0 94 66 161q67 66 161 66q95 0 161 -66q67 -67 67 -161q0 -95 -67 -162q-66 -66 -161 -66v0zM1592 2275q-94 0 -161 67q-66 66 -66 161q0 94 66 161q67 66 161 66q95 0 161 -66q67 -67 67 -161q0 -95 -67 -161q-66 -67 -161 -67v0z
M1592 2730q-94 0 -161 67q-66 67 -66 161t66 161q67 66 161 66q95 0 161 -66q67 -67 67 -161t-67 -161q-66 -67 -161 -67v0zM1592 3185q-94 0 -161 67q-66 67 -66 161t66 161q67 66 161 66q95 0 161 -66q67 -67 67 -161t-67 -161q-66 -67 -161 -67v0zM1592 3640
q-94 0 -161 67q-66 67 -66 161t66 161q67 67 161 67q95 0 161 -67q67 -67 67 -161t-67 -161q-66 -67 -161 -67v0z" />
    <glyph glyph-name="quotedbl" unicode="&#x22;" horiz-adv-x="2730" 
d="M1137 3185q-94 0 -161 67q-66 67 -66 161t66 161q67 66 161 66t161 -66q67 -67 67 -161t-67 -161t-161 -67v0zM2048 3185q-95 0 -162 67q-66 67 -66 161t66 161q67 66 162 66q94 0 161 -66q66 -67 66 -161t-66 -161q-67 -67 -161 -67v0zM1137 3640q-94 0 -161 67
q-66 67 -66 161t66 161q67 67 161 67t161 -67t67 -161t-67 -161t-161 -67v0zM2048 3640q-95 0 -162 67q-66 67 -66 161t66 161q67 67 162 67q94 0 161 -67q66 -67 66 -161t-66 -161q-67 -67 -161 -67v0z" />
    <glyph glyph-name="numbersign" unicode="#" 
d="M682 0q-94 0 -161 66q-66 67 -66 161t66 161q67 67 161 67t161 -67t67 -161t-67 -161q-67 -66 -161 -66v0zM2048 0q-95 0 -162 66q-66 67 -66 161t66 161q67 67 162 67q94 0 161 -67q66 -67 66 -161t-66 -161q-67 -66 -161 -66v0zM682 455q-94 0 -161 66q-66 67 -66 161
t66 161q67 67 161 67t161 -67t67 -161t-67 -161q-67 -66 -161 -66v0zM2048 455q-95 0 -162 66q-66 67 -66 161t66 161q67 67 162 67q94 0 161 -67q66 -67 66 -161t-66 -161q-67 -66 -161 -66v0zM227 910q-94 0 -161 66q-66 67 -66 161t66 161q67 67 161 67t161 -67t67 -161
t-67 -161q-67 -66 -161 -66v0zM682 910q-94 0 -161 66q-66 67 -66 161t66 161q67 67 161 67t161 -67t67 -161t-67 -161q-67 -66 -161 -66v0zM1137 910q-94 0 -161 66q-66 67 -66 161t66 161q67 67 161 67t161 -67t67 -161t-67 -161q-67 -66 -161 -66v0zM1592 910
q-94 0 -161 66q-66 67 -66 161t66 161q67 67 161 67q95 0 161 -67q67 -67 67 -161t-67 -161q-66 -66 -161 -66v0zM2048 910q-95 0 -162 66q-66 67 -66 161t66 161q67 67 162 67q94 0 161 -67q66 -67 66 -161t-66 -161q-67 -66 -161 -66v0zM2503 910q-95 0 -161 66
q-67 67 -67 161t67 161q66 67 161 67q94 0 161 -67q66 -67 66 -161t-66 -161q-67 -66 -161 -66v0zM2958 910q-94 0 -161 66q-67 67 -67 161t67 161t161 67t161 -67q66 -67 66 -161t-66 -161q-67 -66 -161 -66v0zM1137 1365q-94 0 -161 66q-66 67 -66 161q0 95 66 161
q67 67 161 67t161 -67q67 -66 67 -161q0 -94 -67 -161q-67 -66 -161 -66v0zM2503 1365q-95 0 -161 66q-67 67 -67 161q0 95 67 161q66 67 161 67q94 0 161 -67q66 -66 66 -161q0 -94 -66 -161q-67 -66 -161 -66v0zM1137 1820q-94 0 -161 66q-66 67 -66 162q0 94 66 161
q67 66 161 66t161 -66q67 -67 67 -161q0 -95 -67 -162q-67 -66 -161 -66v0zM2503 1820q-95 0 -161 66q-67 67 -67 162q0 94 67 161q66 66 161 66q94 0 161 -66q66 -67 66 -161q0 -95 -66 -162q-67 -66 -161 -66v0zM682 2275q-94 0 -161 67q-66 66 -66 161q0 94 66 161
q67 66 161 66t161 -66q67 -67 67 -161q0 -95 -67 -161q-67 -67 -161 -67v0zM1137 2275q-94 0 -161 67q-66 66 -66 161q0 94 66 161q67 66 161 66t161 -66q67 -67 67 -161q0 -95 -67 -161q-67 -67 -161 -67v0zM1592 2275q-94 0 -161 67q-66 66 -66 161q0 94 66 161
q67 66 161 66q95 0 161 -66q67 -67 67 -161q0 -95 -67 -161q-66 -67 -161 -67v0zM2048 2275q-95 0 -162 67q-66 66 -66 161q0 94 66 161q67 66 162 66q94 0 161 -66q66 -67 66 -161q0 -95 -66 -161q-67 -67 -161 -67v0zM2503 2275q-95 0 -161 67q-67 66 -67 161q0 94 67 161
q66 66 161 66q94 0 161 -66q66 -67 66 -161q0 -95 -66 -161q-67 -67 -161 -67v0zM2958 2275q-94 0 -161 67q-67 66 -67 161q0 94 67 161q67 66 161 66t161 -66q66 -67 66 -161q0 -95 -66 -161q-67 -67 -161 -67v0zM3413 2275q-94 0 -161 67q-67 66 -67 161q0 94 67 161
q67 66 161 66t161 -66q66 -67 66 -161q0 -95 -66 -161q-67 -67 -161 -67v0zM1592 2730q-94 0 -161 67q-66 67 -66 161t66 161q67 66 161 66q95 0 161 -66q67 -67 67 -161t-67 -161q-66 -67 -161 -67v0zM2958 2730q-94 0 -161 67t-67 161t67 161q67 66 161 66t161 -66
q66 -67 66 -161t-66 -161q-67 -67 -161 -67v0zM1592 3185q-94 0 -161 67q-66 67 -66 161t66 161q67 66 161 66q95 0 161 -66q67 -67 67 -161t-67 -161q-66 -67 -161 -67v0zM2958 3185q-94 0 -161 67t-67 161t67 161q67 66 161 66t161 -66q66 -67 66 -161t-66 -161
q-67 -67 -161 -67v0z" />
    <glyph glyph-name="dollar" unicode="$" 
d="M2048 0q-95 0 -162 66q-66 67 -66 161t66 161q67 67 162 67q94 0 161 -67q66 -67 66 -161t-66 -161q-67 -66 -161 -66v0zM1592 455q-94 0 -161 66q-66 67 -66 161t66 161q67 67 161 67q95 0 161 -67q67 -67 67 -161t-67 -161q-66 -66 -161 -66v0zM2048 455q-95 0 -162 66
q-66 67 -66 161t66 161q67 67 162 67q94 0 161 -67q66 -67 66 -161t-66 -161q-67 -66 -161 -66v0zM2503 455q-95 0 -161 66q-67 67 -67 161t67 161q66 67 161 67q94 0 161 -67q66 -67 66 -161t-66 -161q-67 -66 -161 -66v0zM1137 910q-94 0 -161 66q-66 67 -66 161t66 161
q67 67 161 67t161 -67t67 -161t-67 -161q-67 -66 -161 -66v0zM2048 910q-95 0 -162 66q-66 67 -66 161t66 161q67 67 162 67q94 0 161 -67q66 -67 66 -161t-66 -161q-67 -66 -161 -66v0zM2958 910q-94 0 -161 66q-67 67 -67 161t67 161t161 67t161 -67q66 -67 66 -161
t-66 -161q-67 -66 -161 -66v0zM2048 1365q-95 0 -162 66q-66 67 -66 161q0 95 66 161q67 67 162 67q94 0 161 -67q66 -66 66 -161q0 -94 -66 -161q-67 -66 -161 -66v0zM2958 1365q-94 0 -161 66q-67 67 -67 161q0 95 67 161q67 67 161 67t161 -67q66 -66 66 -161
q0 -94 -66 -161q-67 -66 -161 -66v0zM1592 1820q-94 0 -161 66q-66 67 -66 162q0 94 66 161q67 66 161 66q95 0 161 -66q67 -67 67 -161q0 -95 -67 -162q-66 -66 -161 -66v0zM2048 1820q-95 0 -162 66q-66 67 -66 162q0 94 66 161q67 66 162 66q94 0 161 -66q66 -67 66 -161
q0 -95 -66 -162q-67 -66 -161 -66v0zM2503 1820q-95 0 -161 66q-67 67 -67 162q0 94 67 161q66 66 161 66q94 0 161 -66q66 -67 66 -161q0 -95 -66 -162q-67 -66 -161 -66v0zM1137 2275q-94 0 -161 67q-66 66 -66 161q0 94 66 161q67 66 161 66t161 -66q67 -67 67 -161
q0 -95 -67 -161q-67 -67 -161 -67v0zM2048 2275q-95 0 -162 67q-66 66 -66 161q0 94 66 161q67 66 162 66q94 0 161 -66q66 -67 66 -161q0 -95 -66 -161q-67 -67 -161 -67v0zM1137 2730q-94 0 -161 67q-66 67 -66 161t66 161q67 66 161 66t161 -66q67 -67 67 -161t-67 -161
t-161 -67v0zM2048 2730q-95 0 -162 67q-66 67 -66 161t66 161q67 66 162 66q94 0 161 -66q66 -67 66 -161t-66 -161q-67 -67 -161 -67v0zM2958 2730q-94 0 -161 67t-67 161t67 161q67 66 161 66t161 -66q66 -67 66 -161t-66 -161q-67 -67 -161 -67v0zM1592 3185
q-94 0 -161 67q-66 67 -66 161t66 161q67 66 161 66q95 0 161 -66q67 -67 67 -161t-67 -161q-66 -67 -161 -67v0zM2048 3185q-95 0 -162 67q-66 67 -66 161t66 161q67 66 162 66q94 0 161 -66q66 -67 66 -161t-66 -161q-67 -67 -161 -67v0zM2503 3185q-95 0 -161 67
q-67 67 -67 161t67 161q66 66 161 66q94 0 161 -66q66 -67 66 -161t-66 -161q-67 -67 -161 -67v0zM2048 3640q-95 0 -162 67q-66 67 -66 161t66 161q67 67 162 67q94 0 161 -67q66 -67 66 -161t-66 -161q-67 -67 -161 -67v0z" />
    <glyph glyph-name="percent" unicode="%" horiz-adv-x="5006" 
d="M682 0q-94 0 -161 66q-66 67 -66 161t66 161q67 67 161 67t161 -67t67 -161t-67 -161q-67 -66 -161 -66v0zM3413 0q-94 0 -161 66q-67 67 -67 161t67 161t161 67t161 -67q66 -67 66 -161t-66 -161q-67 -66 -161 -66v0zM3868 0q-94 0 -161 66q-67 67 -67 161t67 161
t161 67t161 -67t67 -161t-67 -161q-67 -66 -161 -66v0zM4323 0q-94 0 -161 66q-66 67 -66 161t66 161q67 67 161 67t161 -67t67 -161t-67 -161q-67 -66 -161 -66v0zM1137 455q-94 0 -161 66q-66 67 -66 161t66 161q67 67 161 67t161 -67t67 -161t-67 -161q-67 -66 -161 -66
v0zM3413 455q-94 0 -161 66q-67 67 -67 161t67 161t161 67t161 -67q66 -67 66 -161t-66 -161q-67 -66 -161 -66v0zM4323 455q-94 0 -161 66q-66 67 -66 161t66 161q67 67 161 67t161 -67t67 -161t-67 -161q-67 -66 -161 -66v0zM1592 910q-94 0 -161 66q-66 67 -66 161
t66 161q67 67 161 67q95 0 161 -67q67 -67 67 -161t-67 -161q-66 -66 -161 -66v0zM3413 910q-94 0 -161 66q-67 67 -67 161t67 161t161 67t161 -67q66 -67 66 -161t-66 -161q-67 -66 -161 -66v0zM3868 910q-94 0 -161 66q-67 67 -67 161t67 161t161 67t161 -67t67 -161
t-67 -161q-67 -66 -161 -66v0zM4323 910q-94 0 -161 66q-66 67 -66 161t66 161q67 67 161 67t161 -67t67 -161t-67 -161q-67 -66 -161 -66v0zM2048 1365q-95 0 -162 66q-66 67 -66 161q0 95 66 161q67 67 162 67q94 0 161 -67q66 -66 66 -161q0 -94 -66 -161
q-67 -66 -161 -66v0zM2503 1820q-95 0 -161 66q-67 67 -67 162q0 94 67 161q66 66 161 66q94 0 161 -66q66 -67 66 -161q0 -95 -66 -162q-67 -66 -161 -66v0zM2958 2275q-94 0 -161 67q-67 66 -67 161q0 94 67 161q67 66 161 66t161 -66q66 -67 66 -161q0 -95 -66 -161
q-67 -67 -161 -67v0zM1137 2730q-94 0 -161 67q-66 67 -66 161t66 161q67 66 161 66t161 -66q67 -67 67 -161t-67 -161t-161 -67v0zM1592 2730q-94 0 -161 67q-66 67 -66 161t66 161q67 66 161 66q95 0 161 -66q67 -67 67 -161t-67 -161q-66 -67 -161 -67v0zM2048 2730
q-95 0 -162 67q-66 67 -66 161t66 161q67 66 162 66q94 0 161 -66q66 -67 66 -161t-66 -161q-67 -67 -161 -67v0zM3413 2730q-94 0 -161 67t-67 161t67 161q67 66 161 66t161 -66q66 -67 66 -161t-66 -161q-67 -67 -161 -67v0zM1137 3185q-94 0 -161 67q-66 67 -66 161
t66 161q67 66 161 66t161 -66q67 -67 67 -161t-67 -161t-161 -67v0zM2048 3185q-95 0 -162 67q-66 67 -66 161t66 161q67 66 162 66q94 0 161 -66q66 -67 66 -161t-66 -161q-67 -67 -161 -67v0zM3868 3185q-94 0 -161 67t-67 161t67 161q67 66 161 66t161 -66
q67 -67 67 -161t-67 -161t-161 -67v0zM1137 3640q-94 0 -161 67q-66 67 -66 161t66 161q67 67 161 67t161 -67t67 -161t-67 -161t-161 -67v0zM1592 3640q-94 0 -161 67q-66 67 -66 161t66 161q67 67 161 67q95 0 161 -67q67 -67 67 -161t-67 -161q-66 -67 -161 -67v0z
M2048 3640q-95 0 -162 67q-66 67 -66 161t66 161q67 67 162 67q94 0 161 -67q66 -67 66 -161t-66 -161q-67 -67 -161 -67v0zM4323 3640q-94 0 -161 67q-66 67 -66 161t66 161q67 67 161 67t161 -67t67 -161t-67 -161t-161 -67v0z" />
    <glyph glyph-name="ampersand" unicode="&#x26;" horiz-adv-x="4323" 
d="M1365 0q-94 0 -161 66q-67 67 -67 161t67 161t161 67t161 -67q66 -67 66 -161t-66 -161q-67 -66 -161 -66v0zM1820 0q-94 0 -161 66q-67 67 -67 161t67 161t161 67t161 -67t67 -161t-67 -161q-67 -66 -161 -66v0zM2275 0q-94 0 -161 66q-66 67 -66 161t66 161
q67 67 161 67t161 -67t67 -161t-67 -161q-67 -66 -161 -66v0zM3640 0q-94 0 -161 66q-66 67 -66 161t66 161q67 67 161 67q95 0 161 -67q67 -67 67 -161t-67 -161q-66 -66 -161 -66v0zM910 455q-94 0 -161 66q-67 67 -67 161t67 161t161 67t161 -67q66 -67 66 -161t-66 -161
q-67 -66 -161 -66v0zM2730 455q-94 0 -161 66q-66 67 -66 161t66 161q67 67 161 67t161 -67t67 -161t-67 -161q-67 -66 -161 -66v0zM3185 455q-94 0 -161 66q-66 67 -66 161t66 161q67 67 161 67t161 -67t67 -161t-67 -161q-67 -66 -161 -66v0zM910 910q-94 0 -161 66
q-67 67 -67 161t67 161t161 67t161 -67q66 -67 66 -161t-66 -161q-67 -66 -161 -66v0zM2730 910q-94 0 -161 66q-66 67 -66 161t66 161q67 67 161 67t161 -67t67 -161t-67 -161q-67 -66 -161 -66v0zM910 1365q-94 0 -161 66q-67 67 -67 161q0 95 67 161q67 67 161 67
t161 -67q66 -66 66 -161q0 -94 -66 -161q-67 -66 -161 -66v0zM2275 1365q-94 0 -161 66q-66 67 -66 161q0 95 66 161q67 67 161 67t161 -67q67 -66 67 -161q0 -94 -67 -161q-67 -66 -161 -66v0zM1365 1820q-94 0 -161 66q-67 67 -67 162q0 94 67 161q67 66 161 66t161 -66
q66 -67 66 -161q0 -95 -66 -162q-67 -66 -161 -66v0zM2275 1820q-94 0 -161 66q-66 67 -66 162q0 94 66 161q67 66 161 66t161 -66q67 -67 67 -161q0 -95 -67 -162q-67 -66 -161 -66v0zM1820 2275q-94 0 -161 67q-67 66 -67 161q0 94 67 161q67 66 161 66t161 -66
q67 -67 67 -161q0 -95 -67 -161q-67 -67 -161 -67v0zM1365 2730q-94 0 -161 67t-67 161t67 161q67 66 161 66t161 -66q66 -67 66 -161t-66 -161q-67 -67 -161 -67v0zM1820 2730q-94 0 -161 67t-67 161t67 161q67 66 161 66t161 -66q67 -67 67 -161t-67 -161t-161 -67v0z
M2275 2730q-94 0 -161 67q-66 67 -66 161t66 161q67 66 161 66t161 -66q67 -67 67 -161t-67 -161t-161 -67v0zM1365 3185q-94 0 -161 67t-67 161t67 161q67 66 161 66t161 -66q66 -67 66 -161t-66 -161q-67 -67 -161 -67v0zM2730 3185q-94 0 -161 67q-66 67 -66 161t66 161
q67 66 161 66t161 -66q67 -67 67 -161t-67 -161t-161 -67v0zM1365 3640q-94 0 -161 67t-67 161t67 161t161 67t161 -67q66 -67 66 -161t-66 -161q-67 -67 -161 -67v0zM1820 4096q-94 0 -161 66q-67 67 -67 161t67 161t161 67t161 -67t67 -161t-67 -161q-67 -66 -161 -66v0z
M2275 4096q-94 0 -161 66q-66 67 -66 161t66 161q67 67 161 67t161 -67t67 -161t-67 -161q-67 -66 -161 -66v0z" />
    <glyph glyph-name="quotesingle" unicode="'" horiz-adv-x="1820" 
d="M1137 3185q-94 0 -161 67q-66 67 -66 161t66 161q67 66 161 66t161 -66q67 -67 67 -161t-67 -161t-161 -67v0zM1137 3640q-94 0 -161 67q-66 67 -66 161t66 161q67 67 161 67t161 -67t67 -161t-67 -161t-161 -67v0z" />
    <glyph glyph-name="parenleft" unicode="(" horiz-adv-x="2275" 
d="M1365 0q-94 0 -161 66q-67 67 -67 161t67 161t161 67t161 -67q66 -67 66 -161t-66 -161q-67 -66 -161 -66v0zM910 455q-94 0 -161 66q-67 67 -67 161t67 161t161 67t161 -67q66 -67 66 -161t-66 -161q-67 -66 -161 -66v0zM910 910q-94 0 -161 66q-67 67 -67 161t67 161
t161 67t161 -67q66 -67 66 -161t-66 -161q-67 -66 -161 -66v0zM910 1365q-94 0 -161 66q-67 67 -67 161q0 95 67 161q67 67 161 67t161 -67q66 -66 66 -161q0 -94 -66 -161q-67 -66 -161 -66v0zM910 1820q-94 0 -161 66q-67 67 -67 162q0 94 67 161q67 66 161 66t161 -66
q66 -67 66 -161q0 -95 -66 -162q-67 -66 -161 -66v0zM910 2275q-94 0 -161 67q-67 66 -67 161q0 94 67 161q67 66 161 66t161 -66q66 -67 66 -161q0 -95 -66 -161q-67 -67 -161 -67v0zM910 2730q-94 0 -161 67t-67 161t67 161q67 66 161 66t161 -66q66 -67 66 -161t-66 -161
q-67 -67 -161 -67v0zM910 3185q-94 0 -161 67t-67 161t67 161q67 66 161 66t161 -66q66 -67 66 -161t-66 -161q-67 -67 -161 -67v0zM1365 3640q-94 0 -161 67t-67 161t67 161t161 67t161 -67q66 -67 66 -161t-66 -161q-67 -67 -161 -67v0z" />
    <glyph glyph-name="parenright" unicode=")" horiz-adv-x="2275" 
d="M910 0q-94 0 -161 66q-67 67 -67 161t67 161t161 67t161 -67q66 -67 66 -161t-66 -161q-67 -66 -161 -66v0zM1365 455q-94 0 -161 66q-67 67 -67 161t67 161t161 67t161 -67q66 -67 66 -161t-66 -161q-67 -66 -161 -66v0zM1365 910q-94 0 -161 66q-67 67 -67 161t67 161
t161 67t161 -67q66 -67 66 -161t-66 -161q-67 -66 -161 -66v0zM1365 1365q-94 0 -161 66q-67 67 -67 161q0 95 67 161q67 67 161 67t161 -67q66 -66 66 -161q0 -94 -66 -161q-67 -66 -161 -66v0zM1365 1820q-94 0 -161 66q-67 67 -67 162q0 94 67 161q67 66 161 66t161 -66
q66 -67 66 -161q0 -95 -66 -162q-67 -66 -161 -66v0zM1365 2275q-94 0 -161 67q-67 66 -67 161q0 94 67 161q67 66 161 66t161 -66q66 -67 66 -161q0 -95 -66 -161q-67 -67 -161 -67v0zM1365 2730q-94 0 -161 67t-67 161t67 161q67 66 161 66t161 -66q66 -67 66 -161
t-66 -161q-67 -67 -161 -67v0zM1365 3185q-94 0 -161 67t-67 161t67 161q67 66 161 66t161 -66q66 -67 66 -161t-66 -161q-67 -67 -161 -67v0zM910 3640q-94 0 -161 67t-67 161t67 161t161 67t161 -67q66 -67 66 -161t-66 -161q-67 -67 -161 -67v0z" />
    <glyph glyph-name="asterisk" unicode="*" horiz-adv-x="3185" 
d="M682 2275q-94 0 -161 67q-66 66 -66 161q0 94 66 161q67 66 161 66t161 -66q67 -67 67 -161q0 -95 -67 -161q-67 -67 -161 -67v0zM1592 2275q-94 0 -161 67q-66 66 -66 161q0 94 66 161q67 66 161 66q95 0 161 -66q67 -67 67 -161q0 -95 -67 -161q-66 -67 -161 -67v0z
M2503 2275q-95 0 -161 67q-67 66 -67 161q0 94 67 161q66 66 161 66q94 0 161 -66q66 -67 66 -161q0 -95 -66 -161q-67 -67 -161 -67v0zM1137 2730q-94 0 -161 67q-66 67 -66 161t66 161q67 66 161 66t161 -66q67 -67 67 -161t-67 -161t-161 -67v0zM1592 2730q-94 0 -161 67
q-66 67 -66 161t66 161q67 66 161 66q95 0 161 -66q67 -67 67 -161t-67 -161q-66 -67 -161 -67v0zM2048 2730q-95 0 -162 67q-66 67 -66 161t66 161q67 66 162 66q94 0 161 -66q66 -67 66 -161t-66 -161q-67 -67 -161 -67v0zM682 3185q-94 0 -161 67q-66 67 -66 161t66 161
q67 66 161 66t161 -66q67 -67 67 -161t-67 -161t-161 -67v0zM1137 3185q-94 0 -161 67q-66 67 -66 161t66 161q67 66 161 66t161 -66q67 -67 67 -161t-67 -161t-161 -67v0zM2048 3185q-95 0 -162 67q-66 67 -66 161t66 161q67 66 162 66q94 0 161 -66q66 -67 66 -161
t-66 -161q-67 -67 -161 -67v0zM2503 3185q-95 0 -161 67q-67 67 -67 161t67 161q66 66 161 66q94 0 161 -66q66 -67 66 -161t-66 -161q-67 -67 -161 -67v0zM1137 3640q-94 0 -161 67q-66 67 -66 161t66 161q67 67 161 67t161 -67t67 -161t-67 -161t-161 -67v0zM1592 3640
q-94 0 -161 67q-66 67 -66 161t66 161q67 67 161 67q95 0 161 -67q67 -67 67 -161t-67 -161q-66 -67 -161 -67v0zM2048 3640q-95 0 -162 67q-66 67 -66 161t66 161q67 67 162 67q94 0 161 -67q66 -67 66 -161t-66 -161q-67 -67 -161 -67v0zM682 4096q-94 0 -161 66
q-66 67 -66 161t66 161q67 67 161 67t161 -67t67 -161t-67 -161q-67 -66 -161 -66v0zM1592 4096q-94 0 -161 66q-66 67 -66 161t66 161q67 67 161 67q95 0 161 -67q67 -67 67 -161t-67 -161q-66 -66 -161 -66v0zM2503 4096q-95 0 -161 66q-67 67 -67 161t67 161
q66 67 161 67q94 0 161 -67q66 -67 66 -161t-66 -161q-67 -66 -161 -66v0z" />
    <glyph glyph-name="plus" unicode="+" 
d="M2048 910q-95 0 -162 66q-66 67 -66 161t66 161q67 67 162 67q94 0 161 -67q66 -67 66 -161t-66 -161q-67 -66 -161 -66v0zM2048 1365q-95 0 -162 66q-66 67 -66 161q0 95 66 161q67 67 162 67q94 0 161 -67q66 -66 66 -161q0 -94 -66 -161q-67 -66 -161 -66v0z
M1137 1820q-94 0 -161 66q-66 67 -66 162q0 94 66 161q67 66 161 66t161 -66q67 -67 67 -161q0 -95 -67 -162q-67 -66 -161 -66v0zM1592 1820q-94 0 -161 66q-66 67 -66 162q0 94 66 161q67 66 161 66q95 0 161 -66q67 -67 67 -161q0 -95 -67 -162q-66 -66 -161 -66v0z
M2048 1820q-95 0 -162 66q-66 67 -66 162q0 94 66 161q67 66 162 66q94 0 161 -66q66 -67 66 -161q0 -95 -66 -162q-67 -66 -161 -66v0zM2503 1820q-95 0 -161 66q-67 67 -67 162q0 94 67 161q66 66 161 66q94 0 161 -66q66 -67 66 -161q0 -95 -66 -162q-67 -66 -161 -66v0z
M2958 1820q-94 0 -161 66q-67 67 -67 162q0 94 67 161q67 66 161 66t161 -66q66 -67 66 -161q0 -95 -66 -162q-67 -66 -161 -66v0zM2048 2275q-95 0 -162 67q-66 66 -66 161q0 94 66 161q67 66 162 66q94 0 161 -66q66 -67 66 -161q0 -95 -66 -161q-67 -67 -161 -67v0z
M2048 2730q-95 0 -162 67q-66 67 -66 161t66 161q67 66 162 66q94 0 161 -66q66 -67 66 -161t-66 -161q-67 -67 -161 -67v0z" />
    <glyph glyph-name="comma" unicode="," horiz-adv-x="2275" 
d="M1137 -455q-94 0 -161 67q-66 67 -66 161t66 161q67 66 161 66t161 -66q67 -67 67 -161t-67 -161t-161 -67v0zM1137 0q-94 0 -161 66q-66 67 -66 161t66 161q67 67 161 67t161 -67t67 -161t-67 -161q-67 -66 -161 -66v0zM1592 0q-94 0 -161 66q-66 67 -66 161t66 161
q67 67 161 67q95 0 161 -67q67 -67 67 -161t-67 -161q-66 -66 -161 -66v0zM1137 455q-94 0 -161 66q-66 67 -66 161t66 161q67 67 161 67t161 -67t67 -161t-67 -161q-67 -66 -161 -66v0zM1592 455q-94 0 -161 66q-66 67 -66 161t66 161q67 67 161 67q95 0 161 -67
q67 -67 67 -161t-67 -161q-66 -66 -161 -66v0z" />
    <glyph glyph-name="hyphen" unicode="-" 
d="M1137 1820q-94 0 -161 66q-66 67 -66 162q0 94 66 161q67 66 161 66t161 -66q67 -67 67 -161q0 -95 -67 -162q-67 -66 -161 -66v0zM1592 1820q-94 0 -161 66q-66 67 -66 162q0 94 66 161q67 66 161 66q95 0 161 -66q67 -67 67 -161q0 -95 -67 -162q-66 -66 -161 -66v0z
M2048 1820q-95 0 -162 66q-66 67 -66 162q0 94 66 161q67 66 162 66q94 0 161 -66q66 -67 66 -161q0 -95 -66 -162q-67 -66 -161 -66v0zM2503 1820q-95 0 -161 66q-67 67 -67 162q0 94 67 161q66 66 161 66q94 0 161 -66q66 -67 66 -161q0 -95 -66 -162q-67 -66 -161 -66v0z
M2958 1820q-94 0 -161 66q-67 67 -67 162q0 94 67 161q67 66 161 66t161 -66q66 -67 66 -161q0 -95 -66 -162q-67 -66 -161 -66v0z" />
    <glyph glyph-name="period" unicode="." horiz-adv-x="2275" 
d="M1137 0q-94 0 -161 66q-66 67 -66 161t66 161q67 67 161 67t161 -67t67 -161t-67 -161q-67 -66 -161 -66v0zM1592 0q-94 0 -161 66q-66 67 -66 161t66 161q67 67 161 67q95 0 161 -67q67 -67 67 -161t-67 -161q-66 -66 -161 -66v0zM1137 455q-94 0 -161 66
q-66 67 -66 161t66 161q67 67 161 67t161 -67t67 -161t-67 -161q-67 -66 -161 -66v0zM1592 455q-94 0 -161 66q-66 67 -66 161t66 161q67 67 161 67q95 0 161 -67q67 -67 67 -161t-67 -161q-66 -66 -161 -66v0z" />
    <glyph glyph-name="slash" unicode="/" 
d="M227 0q-94 0 -161 66q-66 67 -66 161t66 161q67 67 161 67t161 -67t67 -161t-67 -161q-67 -66 -161 -66v0zM227 455q-94 0 -161 66q-66 67 -66 161t66 161q67 67 161 67t161 -67t67 -161t-67 -161q-67 -66 -161 -66v0zM682 455q-94 0 -161 66q-66 67 -66 161t66 161
q67 67 161 67t161 -67t67 -161t-67 -161q-67 -66 -161 -66v0zM682 910q-94 0 -161 66q-66 67 -66 161t66 161q67 67 161 67t161 -67t67 -161t-67 -161q-67 -66 -161 -66v0zM1137 910q-94 0 -161 66q-66 67 -66 161t66 161q67 67 161 67t161 -67t67 -161t-67 -161
q-67 -66 -161 -66v0zM1137 1365q-94 0 -161 66q-66 67 -66 161q0 95 66 161q67 67 161 67t161 -67q67 -66 67 -161q0 -94 -67 -161q-67 -66 -161 -66v0zM1592 1365q-94 0 -161 66q-66 67 -66 161q0 95 66 161q67 67 161 67q95 0 161 -67q67 -66 67 -161q0 -94 -67 -161
q-66 -66 -161 -66v0zM1592 1820q-94 0 -161 66q-66 67 -66 162q0 94 66 161q67 66 161 66q95 0 161 -66q67 -67 67 -161q0 -95 -67 -162q-66 -66 -161 -66v0zM2048 1820q-95 0 -162 66q-66 67 -66 162q0 94 66 161q67 66 162 66q94 0 161 -66q66 -67 66 -161q0 -95 -66 -162
q-67 -66 -161 -66v0zM2048 2275q-95 0 -162 67q-66 66 -66 161q0 94 66 161q67 66 162 66q94 0 161 -66q66 -67 66 -161q0 -95 -66 -161q-67 -67 -161 -67v0zM2503 2275q-95 0 -161 67q-67 66 -67 161q0 94 67 161q66 66 161 66q94 0 161 -66q66 -67 66 -161q0 -95 -66 -161
q-67 -67 -161 -67v0zM2503 2730q-95 0 -161 67q-67 67 -67 161t67 161q66 66 161 66q94 0 161 -66q66 -67 66 -161t-66 -161q-67 -67 -161 -67v0zM2958 2730q-94 0 -161 67t-67 161t67 161q67 66 161 66t161 -66q66 -67 66 -161t-66 -161q-67 -67 -161 -67v0zM2958 3185
q-94 0 -161 67t-67 161t67 161q67 66 161 66t161 -66q66 -67 66 -161t-66 -161q-67 -67 -161 -67v0zM3413 3185q-94 0 -161 67t-67 161t67 161q67 66 161 66t161 -66q66 -67 66 -161t-66 -161q-67 -67 -161 -67v0zM3413 3640q-94 0 -161 67t-67 161t67 161t161 67t161 -67
q66 -67 66 -161t-66 -161q-67 -67 -161 -67v0z" />
    <glyph glyph-name="zero" unicode="0" 
d="M682 0q-94 0 -161 66q-66 67 -66 161t66 161q67 67 161 67t161 -67t67 -161t-67 -161q-67 -66 -161 -66v0zM1137 0q-94 0 -161 66q-66 67 -66 161t66 161q67 67 161 67t161 -67t67 -161t-67 -161q-67 -66 -161 -66v0zM1592 0q-94 0 -161 66q-66 67 -66 161t66 161
q67 67 161 67q95 0 161 -67q67 -67 67 -161t-67 -161q-66 -66 -161 -66v0zM2048 0q-95 0 -162 66q-66 67 -66 161t66 161q67 67 162 67q94 0 161 -67q66 -67 66 -161t-66 -161q-67 -66 -161 -66v0zM2503 0q-95 0 -161 66q-67 67 -67 161t67 161q66 67 161 67q94 0 161 -67
q66 -67 66 -161t-66 -161q-67 -66 -161 -66v0zM2958 0q-94 0 -161 66q-67 67 -67 161t67 161t161 67t161 -67q66 -67 66 -161t-66 -161q-67 -66 -161 -66v0zM682 455q-94 0 -161 66q-66 67 -66 161t66 161q67 67 161 67t161 -67t67 -161t-67 -161q-67 -66 -161 -66v0z
M2958 455q-94 0 -161 66q-67 67 -67 161t67 161t161 67t161 -67q66 -67 66 -161t-66 -161q-67 -66 -161 -66v0zM682 910q-94 0 -161 66q-66 67 -66 161t66 161q67 67 161 67t161 -67t67 -161t-67 -161q-67 -66 -161 -66v0zM2958 910q-94 0 -161 66q-67 67 -67 161t67 161
t161 67t161 -67q66 -67 66 -161t-66 -161q-67 -66 -161 -66v0zM682 1365q-94 0 -161 66q-66 67 -66 161q0 95 66 161q67 67 161 67t161 -67q67 -66 67 -161q0 -94 -67 -161q-67 -66 -161 -66v0zM2958 1365q-94 0 -161 66q-67 67 -67 161q0 95 67 161q67 67 161 67t161 -67
q66 -66 66 -161q0 -94 -66 -161q-67 -66 -161 -66v0zM682 1820q-94 0 -161 66q-66 67 -66 162q0 94 66 161q67 66 161 66t161 -66q67 -67 67 -161q0 -95 -67 -162q-67 -66 -161 -66v0zM2958 1820q-94 0 -161 66q-67 67 -67 162q0 94 67 161q67 66 161 66t161 -66
q66 -67 66 -161q0 -95 -66 -162q-67 -66 -161 -66v0zM682 2275q-94 0 -161 67q-66 66 -66 161q0 94 66 161q67 66 161 66t161 -66q67 -67 67 -161q0 -95 -67 -161q-67 -67 -161 -67v0zM2958 2275q-94 0 -161 67q-67 66 -67 161q0 94 67 161q67 66 161 66t161 -66
q66 -67 66 -161q0 -95 -66 -161q-67 -67 -161 -67v0zM682 2730q-94 0 -161 67q-66 67 -66 161t66 161q67 66 161 66t161 -66q67 -67 67 -161t-67 -161t-161 -67v0zM2958 2730q-94 0 -161 67t-67 161t67 161q67 66 161 66t161 -66q66 -67 66 -161t-66 -161q-67 -67 -161 -67
v0zM682 3185q-94 0 -161 67q-66 67 -66 161t66 161q67 66 161 66t161 -66q67 -67 67 -161t-67 -161t-161 -67v0zM2958 3185q-94 0 -161 67t-67 161t67 161q67 66 161 66t161 -66q66 -67 66 -161t-66 -161q-67 -67 -161 -67v0zM682 3640q-94 0 -161 67q-66 67 -66 161t66 161
q67 67 161 67t161 -67t67 -161t-67 -161t-161 -67v0zM1137 3640q-94 0 -161 67q-66 67 -66 161t66 161q67 67 161 67t161 -67t67 -161t-67 -161t-161 -67v0zM1592 3640q-94 0 -161 67q-66 67 -66 161t66 161q67 67 161 67q95 0 161 -67q67 -67 67 -161t-67 -161
q-66 -67 -161 -67v0zM2048 3640q-95 0 -162 67q-66 67 -66 161t66 161q67 67 162 67q94 0 161 -67q66 -67 66 -161t-66 -161q-67 -67 -161 -67v0zM2503 3640q-95 0 -161 67q-67 67 -67 161t67 161q66 67 161 67q94 0 161 -67q66 -67 66 -161t-66 -161q-67 -67 -161 -67v0z
M2958 3640q-94 0 -161 67t-67 161t67 161t161 67t161 -67q66 -67 66 -161t-66 -161q-67 -67 -161 -67v0z" />
    <glyph glyph-name="one" unicode="1" 
d="M2048 0q-95 0 -162 66q-66 67 -66 161t66 161q67 67 162 67q94 0 161 -67q66 -67 66 -161t-66 -161q-67 -66 -161 -66v0zM2048 455q-95 0 -162 66q-66 67 -66 161t66 161q67 67 162 67q94 0 161 -67q66 -67 66 -161t-66 -161q-67 -66 -161 -66v0zM2048 910q-95 0 -162 66
q-66 67 -66 161t66 161q67 67 162 67q94 0 161 -67q66 -67 66 -161t-66 -161q-67 -66 -161 -66v0zM2048 1365q-95 0 -162 66q-66 67 -66 161q0 95 66 161q67 67 162 67q94 0 161 -67q66 -66 66 -161q0 -94 -66 -161q-67 -66 -161 -66v0zM2048 1820q-95 0 -162 66
q-66 67 -66 162q0 94 66 161q67 66 162 66q94 0 161 -66q66 -67 66 -161q0 -95 -66 -162q-67 -66 -161 -66v0zM2048 2275q-95 0 -162 67q-66 66 -66 161q0 94 66 161q67 66 162 66q94 0 161 -66q66 -67 66 -161q0 -95 -66 -161q-67 -67 -161 -67v0zM2048 2730q-95 0 -162 67
q-66 67 -66 161t66 161q67 66 162 66q94 0 161 -66q66 -67 66 -161t-66 -161q-67 -67 -161 -67v0zM2048 3185q-95 0 -162 67q-66 67 -66 161t66 161q67 66 162 66q94 0 161 -66q66 -67 66 -161t-66 -161q-67 -67 -161 -67v0zM2048 3640q-95 0 -162 67q-66 67 -66 161t66 161
q67 67 162 67q94 0 161 -67q66 -67 66 -161t-66 -161q-67 -67 -161 -67v0z" />
    <glyph glyph-name="two" unicode="2" 
d="M682 0q-94 0 -161 66q-66 67 -66 161t66 161q67 67 161 67t161 -67t67 -161t-67 -161q-67 -66 -161 -66v0zM1137 0q-94 0 -161 66q-66 67 -66 161t66 161q67 67 161 67t161 -67t67 -161t-67 -161q-67 -66 -161 -66v0zM1592 0q-94 0 -161 66q-66 67 -66 161t66 161
q67 67 161 67q95 0 161 -67q67 -67 67 -161t-67 -161q-66 -66 -161 -66v0zM2048 0q-95 0 -162 66q-66 67 -66 161t66 161q67 67 162 67q94 0 161 -67q66 -67 66 -161t-66 -161q-67 -66 -161 -66v0zM2503 0q-95 0 -161 66q-67 67 -67 161t67 161q66 67 161 67q94 0 161 -67
q66 -67 66 -161t-66 -161q-67 -66 -161 -66v0zM2958 0q-94 0 -161 66q-67 67 -67 161t67 161t161 67t161 -67q66 -67 66 -161t-66 -161q-67 -66 -161 -66v0zM682 455q-94 0 -161 66q-66 67 -66 161t66 161q67 67 161 67t161 -67t67 -161t-67 -161q-67 -66 -161 -66v0z
M682 910q-94 0 -161 66q-66 67 -66 161t66 161q67 67 161 67t161 -67t67 -161t-67 -161q-67 -66 -161 -66v0zM682 1365q-94 0 -161 66q-66 67 -66 161q0 95 66 161q67 67 161 67t161 -67q67 -66 67 -161q0 -94 -67 -161q-67 -66 -161 -66v0zM682 1820q-94 0 -161 66
q-66 67 -66 162q0 94 66 161q67 66 161 66t161 -66q67 -67 67 -161q0 -95 -67 -162q-67 -66 -161 -66v0zM1137 1820q-94 0 -161 66q-66 67 -66 162q0 94 66 161q67 66 161 66t161 -66q67 -67 67 -161q0 -95 -67 -162q-67 -66 -161 -66v0zM1592 1820q-94 0 -161 66
q-66 67 -66 162q0 94 66 161q67 66 161 66q95 0 161 -66q67 -67 67 -161q0 -95 -67 -162q-66 -66 -161 -66v0zM2048 1820q-95 0 -162 66q-66 67 -66 162q0 94 66 161q67 66 162 66q94 0 161 -66q66 -67 66 -161q0 -95 -66 -162q-67 -66 -161 -66v0zM2503 1820q-95 0 -161 66
q-67 67 -67 162q0 94 67 161q66 66 161 66q94 0 161 -66q66 -67 66 -161q0 -95 -66 -162q-67 -66 -161 -66v0zM2958 1820q-94 0 -161 66q-67 67 -67 162q0 94 67 161q67 66 161 66t161 -66q66 -67 66 -161q0 -95 -66 -162q-67 -66 -161 -66v0zM2958 2275q-94 0 -161 67
q-67 66 -67 161q0 94 67 161q67 66 161 66t161 -66q66 -67 66 -161q0 -95 -66 -161q-67 -67 -161 -67v0zM2958 2730q-94 0 -161 67t-67 161t67 161q67 66 161 66t161 -66q66 -67 66 -161t-66 -161q-67 -67 -161 -67v0zM2958 3185q-94 0 -161 67t-67 161t67 161q67 66 161 66
t161 -66q66 -67 66 -161t-66 -161q-67 -67 -161 -67v0zM682 3640q-94 0 -161 67q-66 67 -66 161t66 161q67 67 161 67t161 -67t67 -161t-67 -161t-161 -67v0zM1137 3640q-94 0 -161 67q-66 67 -66 161t66 161q67 67 161 67t161 -67t67 -161t-67 -161t-161 -67v0zM1592 3640
q-94 0 -161 67q-66 67 -66 161t66 161q67 67 161 67q95 0 161 -67q67 -67 67 -161t-67 -161q-66 -67 -161 -67v0zM2048 3640q-95 0 -162 67q-66 67 -66 161t66 161q67 67 162 67q94 0 161 -67q66 -67 66 -161t-66 -161q-67 -67 -161 -67v0zM2503 3640q-95 0 -161 67
q-67 67 -67 161t67 161q66 67 161 67q94 0 161 -67q66 -67 66 -161t-66 -161q-67 -67 -161 -67v0zM2958 3640q-94 0 -161 67t-67 161t67 161t161 67t161 -67q66 -67 66 -161t-66 -161q-67 -67 -161 -67v0z" />
    <glyph glyph-name="three" unicode="3" 
d="M682 0q-94 0 -161 66q-66 67 -66 161t66 161q67 67 161 67t161 -67t67 -161t-67 -161q-67 -66 -161 -66v0zM1137 0q-94 0 -161 66q-66 67 -66 161t66 161q67 67 161 67t161 -67t67 -161t-67 -161q-67 -66 -161 -66v0zM1592 0q-94 0 -161 66q-66 67 -66 161t66 161
q67 67 161 67q95 0 161 -67q67 -67 67 -161t-67 -161q-66 -66 -161 -66v0zM2048 0q-95 0 -162 66q-66 67 -66 161t66 161q67 67 162 67q94 0 161 -67q66 -67 66 -161t-66 -161q-67 -66 -161 -66v0zM2503 0q-95 0 -161 66q-67 67 -67 161t67 161q66 67 161 67q94 0 161 -67
q66 -67 66 -161t-66 -161q-67 -66 -161 -66v0zM2958 0q-94 0 -161 66q-67 67 -67 161t67 161t161 67t161 -67q66 -67 66 -161t-66 -161q-67 -66 -161 -66v0zM2958 455q-94 0 -161 66q-67 67 -67 161t67 161t161 67t161 -67q66 -67 66 -161t-66 -161q-67 -66 -161 -66v0z
M2958 910q-94 0 -161 66q-67 67 -67 161t67 161t161 67t161 -67q66 -67 66 -161t-66 -161q-67 -66 -161 -66v0zM2958 1365q-94 0 -161 66q-67 67 -67 161q0 95 67 161q67 67 161 67t161 -67q66 -66 66 -161q0 -94 -66 -161q-67 -66 -161 -66v0zM682 1820q-94 0 -161 66
q-66 67 -66 162q0 94 66 161q67 66 161 66t161 -66q67 -67 67 -161q0 -95 -67 -162q-67 -66 -161 -66v0zM1137 1820q-94 0 -161 66q-66 67 -66 162q0 94 66 161q67 66 161 66t161 -66q67 -67 67 -161q0 -95 -67 -162q-67 -66 -161 -66v0zM1592 1820q-94 0 -161 66
q-66 67 -66 162q0 94 66 161q67 66 161 66q95 0 161 -66q67 -67 67 -161q0 -95 -67 -162q-66 -66 -161 -66v0zM2048 1820q-95 0 -162 66q-66 67 -66 162q0 94 66 161q67 66 162 66q94 0 161 -66q66 -67 66 -161q0 -95 -66 -162q-67 -66 -161 -66v0zM2503 1820q-95 0 -161 66
q-67 67 -67 162q0 94 67 161q66 66 161 66q94 0 161 -66q66 -67 66 -161q0 -95 -66 -162q-67 -66 -161 -66v0zM2958 1820q-94 0 -161 66q-67 67 -67 162q0 94 67 161q67 66 161 66t161 -66q66 -67 66 -161q0 -95 -66 -162q-67 -66 -161 -66v0zM2958 2275q-94 0 -161 67
q-67 66 -67 161q0 94 67 161q67 66 161 66t161 -66q66 -67 66 -161q0 -95 -66 -161q-67 -67 -161 -67v0zM2958 2730q-94 0 -161 67t-67 161t67 161q67 66 161 66t161 -66q66 -67 66 -161t-66 -161q-67 -67 -161 -67v0zM2958 3185q-94 0 -161 67t-67 161t67 161q67 66 161 66
t161 -66q66 -67 66 -161t-66 -161q-67 -67 -161 -67v0zM682 3640q-94 0 -161 67q-66 67 -66 161t66 161q67 67 161 67t161 -67t67 -161t-67 -161t-161 -67v0zM1137 3640q-94 0 -161 67q-66 67 -66 161t66 161q67 67 161 67t161 -67t67 -161t-67 -161t-161 -67v0zM1592 3640
q-94 0 -161 67q-66 67 -66 161t66 161q67 67 161 67q95 0 161 -67q67 -67 67 -161t-67 -161q-66 -67 -161 -67v0zM2048 3640q-95 0 -162 67q-66 67 -66 161t66 161q67 67 162 67q94 0 161 -67q66 -67 66 -161t-66 -161q-67 -67 -161 -67v0zM2503 3640q-95 0 -161 67
q-67 67 -67 161t67 161q66 67 161 67q94 0 161 -67q66 -67 66 -161t-66 -161q-67 -67 -161 -67v0zM2958 3640q-94 0 -161 67t-67 161t67 161t161 67t161 -67q66 -67 66 -161t-66 -161q-67 -67 -161 -67v0z" />
    <glyph glyph-name="four" unicode="4" 
d="M2958 0q-94 0 -161 66q-67 67 -67 161t67 161t161 67t161 -67q66 -67 66 -161t-66 -161q-67 -66 -161 -66v0zM2958 455q-94 0 -161 66q-67 67 -67 161t67 161t161 67t161 -67q66 -67 66 -161t-66 -161q-67 -66 -161 -66v0zM2958 910q-94 0 -161 66q-67 67 -67 161t67 161
t161 67t161 -67q66 -67 66 -161t-66 -161q-67 -66 -161 -66v0zM2958 1365q-94 0 -161 66q-67 67 -67 161q0 95 67 161q67 67 161 67t161 -67q66 -66 66 -161q0 -94 -66 -161q-67 -66 -161 -66v0zM682 1820q-94 0 -161 66q-66 67 -66 162q0 94 66 161q67 66 161 66t161 -66
q67 -67 67 -161q0 -95 -67 -162q-67 -66 -161 -66v0zM1137 1820q-94 0 -161 66q-66 67 -66 162q0 94 66 161q67 66 161 66t161 -66q67 -67 67 -161q0 -95 -67 -162q-67 -66 -161 -66v0zM1592 1820q-94 0 -161 66q-66 67 -66 162q0 94 66 161q67 66 161 66q95 0 161 -66
q67 -67 67 -161q0 -95 -67 -162q-66 -66 -161 -66v0zM2048 1820q-95 0 -162 66q-66 67 -66 162q0 94 66 161q67 66 162 66q94 0 161 -66q66 -67 66 -161q0 -95 -66 -162q-67 -66 -161 -66v0zM2503 1820q-95 0 -161 66q-67 67 -67 162q0 94 67 161q66 66 161 66q94 0 161 -66
q66 -67 66 -161q0 -95 -66 -162q-67 -66 -161 -66v0zM2958 1820q-94 0 -161 66q-67 67 -67 162q0 94 67 161q67 66 161 66t161 -66q66 -67 66 -161q0 -95 -66 -162q-67 -66 -161 -66v0zM682 2275q-94 0 -161 67q-66 66 -66 161q0 94 66 161q67 66 161 66t161 -66
q67 -67 67 -161q0 -95 -67 -161q-67 -67 -161 -67v0zM2958 2275q-94 0 -161 67q-67 66 -67 161q0 94 67 161q67 66 161 66t161 -66q66 -67 66 -161q0 -95 -66 -161q-67 -67 -161 -67v0zM682 2730q-94 0 -161 67q-66 67 -66 161t66 161q67 66 161 66t161 -66q67 -67 67 -161
t-67 -161t-161 -67v0zM2958 2730q-94 0 -161 67t-67 161t67 161q67 66 161 66t161 -66q66 -67 66 -161t-66 -161q-67 -67 -161 -67v0zM682 3185q-94 0 -161 67q-66 67 -66 161t66 161q67 66 161 66t161 -66q67 -67 67 -161t-67 -161t-161 -67v0zM2958 3185q-94 0 -161 67
t-67 161t67 161q67 66 161 66t161 -66q66 -67 66 -161t-66 -161q-67 -67 -161 -67v0zM682 3640q-94 0 -161 67q-66 67 -66 161t66 161q67 67 161 67t161 -67t67 -161t-67 -161t-161 -67v0zM2958 3640q-94 0 -161 67t-67 161t67 161t161 67t161 -67q66 -67 66 -161t-66 -161
q-67 -67 -161 -67v0z" />
    <glyph glyph-name="five" unicode="5" 
d="M682 0q-94 0 -161 66q-66 67 -66 161t66 161q67 67 161 67t161 -67t67 -161t-67 -161q-67 -66 -161 -66v0zM1137 0q-94 0 -161 66q-66 67 -66 161t66 161q67 67 161 67t161 -67t67 -161t-67 -161q-67 -66 -161 -66v0zM1592 0q-94 0 -161 66q-66 67 -66 161t66 161
q67 67 161 67q95 0 161 -67q67 -67 67 -161t-67 -161q-66 -66 -161 -66v0zM2048 0q-95 0 -162 66q-66 67 -66 161t66 161q67 67 162 67q94 0 161 -67q66 -67 66 -161t-66 -161q-67 -66 -161 -66v0zM2503 0q-95 0 -161 66q-67 67 -67 161t67 161q66 67 161 67q94 0 161 -67
q66 -67 66 -161t-66 -161q-67 -66 -161 -66v0zM2958 0q-94 0 -161 66q-67 67 -67 161t67 161t161 67t161 -67q66 -67 66 -161t-66 -161q-67 -66 -161 -66v0zM2958 455q-94 0 -161 66q-67 67 -67 161t67 161t161 67t161 -67q66 -67 66 -161t-66 -161q-67 -66 -161 -66v0z
M2958 910q-94 0 -161 66q-67 67 -67 161t67 161t161 67t161 -67q66 -67 66 -161t-66 -161q-67 -66 -161 -66v0zM2958 1365q-94 0 -161 66q-67 67 -67 161q0 95 67 161q67 67 161 67t161 -67q66 -66 66 -161q0 -94 -66 -161q-67 -66 -161 -66v0zM682 1820q-94 0 -161 66
q-66 67 -66 162q0 94 66 161q67 66 161 66t161 -66q67 -67 67 -161q0 -95 -67 -162q-67 -66 -161 -66v0zM1137 1820q-94 0 -161 66q-66 67 -66 162q0 94 66 161q67 66 161 66t161 -66q67 -67 67 -161q0 -95 -67 -162q-67 -66 -161 -66v0zM1592 1820q-94 0 -161 66
q-66 67 -66 162q0 94 66 161q67 66 161 66q95 0 161 -66q67 -67 67 -161q0 -95 -67 -162q-66 -66 -161 -66v0zM2048 1820q-95 0 -162 66q-66 67 -66 162q0 94 66 161q67 66 162 66q94 0 161 -66q66 -67 66 -161q0 -95 -66 -162q-67 -66 -161 -66v0zM2503 1820q-95 0 -161 66
q-67 67 -67 162q0 94 67 161q66 66 161 66q94 0 161 -66q66 -67 66 -161q0 -95 -66 -162q-67 -66 -161 -66v0zM2958 1820q-94 0 -161 66q-67 67 -67 162q0 94 67 161q67 66 161 66t161 -66q66 -67 66 -161q0 -95 -66 -162q-67 -66 -161 -66v0zM682 2275q-94 0 -161 67
q-66 66 -66 161q0 94 66 161q67 66 161 66t161 -66q67 -67 67 -161q0 -95 -67 -161q-67 -67 -161 -67v0zM682 2730q-94 0 -161 67q-66 67 -66 161t66 161q67 66 161 66t161 -66q67 -67 67 -161t-67 -161t-161 -67v0zM682 3185q-94 0 -161 67q-66 67 -66 161t66 161
q67 66 161 66t161 -66q67 -67 67 -161t-67 -161t-161 -67v0zM682 3640q-94 0 -161 67q-66 67 -66 161t66 161q67 67 161 67t161 -67t67 -161t-67 -161t-161 -67v0zM1137 3640q-94 0 -161 67q-66 67 -66 161t66 161q67 67 161 67t161 -67t67 -161t-67 -161t-161 -67v0z
M1592 3640q-94 0 -161 67q-66 67 -66 161t66 161q67 67 161 67q95 0 161 -67q67 -67 67 -161t-67 -161q-66 -67 -161 -67v0zM2048 3640q-95 0 -162 67q-66 67 -66 161t66 161q67 67 162 67q94 0 161 -67q66 -67 66 -161t-66 -161q-67 -67 -161 -67v0zM2503 3640
q-95 0 -161 67q-67 67 -67 161t67 161q66 67 161 67q94 0 161 -67q66 -67 66 -161t-66 -161q-67 -67 -161 -67v0zM2958 3640q-94 0 -161 67t-67 161t67 161t161 67t161 -67q66 -67 66 -161t-66 -161q-67 -67 -161 -67v0z" />
    <glyph glyph-name="six" unicode="6" 
d="M682 0q-94 0 -161 66q-66 67 -66 161t66 161q67 67 161 67t161 -67t67 -161t-67 -161q-67 -66 -161 -66v0zM1137 0q-94 0 -161 66q-66 67 -66 161t66 161q67 67 161 67t161 -67t67 -161t-67 -161q-67 -66 -161 -66v0zM1592 0q-94 0 -161 66q-66 67 -66 161t66 161
q67 67 161 67q95 0 161 -67q67 -67 67 -161t-67 -161q-66 -66 -161 -66v0zM2048 0q-95 0 -162 66q-66 67 -66 161t66 161q67 67 162 67q94 0 161 -67q66 -67 66 -161t-66 -161q-67 -66 -161 -66v0zM2503 0q-95 0 -161 66q-67 67 -67 161t67 161q66 67 161 67q94 0 161 -67
q66 -67 66 -161t-66 -161q-67 -66 -161 -66v0zM2958 0q-94 0 -161 66q-67 67 -67 161t67 161t161 67t161 -67q66 -67 66 -161t-66 -161q-67 -66 -161 -66v0zM682 455q-94 0 -161 66q-66 67 -66 161t66 161q67 67 161 67t161 -67t67 -161t-67 -161q-67 -66 -161 -66v0z
M2958 455q-94 0 -161 66q-67 67 -67 161t67 161t161 67t161 -67q66 -67 66 -161t-66 -161q-67 -66 -161 -66v0zM682 910q-94 0 -161 66q-66 67 -66 161t66 161q67 67 161 67t161 -67t67 -161t-67 -161q-67 -66 -161 -66v0zM2958 910q-94 0 -161 66q-67 67 -67 161t67 161
t161 67t161 -67q66 -67 66 -161t-66 -161q-67 -66 -161 -66v0zM682 1365q-94 0 -161 66q-66 67 -66 161q0 95 66 161q67 67 161 67t161 -67q67 -66 67 -161q0 -94 -67 -161q-67 -66 -161 -66v0zM2958 1365q-94 0 -161 66q-67 67 -67 161q0 95 67 161q67 67 161 67t161 -67
q66 -66 66 -161q0 -94 -66 -161q-67 -66 -161 -66v0zM682 1820q-94 0 -161 66q-66 67 -66 162q0 94 66 161q67 66 161 66t161 -66q67 -67 67 -161q0 -95 -67 -162q-67 -66 -161 -66v0zM1137 1820q-94 0 -161 66q-66 67 -66 162q0 94 66 161q67 66 161 66t161 -66
q67 -67 67 -161q0 -95 -67 -162q-67 -66 -161 -66v0zM1592 1820q-94 0 -161 66q-66 67 -66 162q0 94 66 161q67 66 161 66q95 0 161 -66q67 -67 67 -161q0 -95 -67 -162q-66 -66 -161 -66v0zM2048 1820q-95 0 -162 66q-66 67 -66 162q0 94 66 161q67 66 162 66q94 0 161 -66
q66 -67 66 -161q0 -95 -66 -162q-67 -66 -161 -66v0zM2503 1820q-95 0 -161 66q-67 67 -67 162q0 94 67 161q66 66 161 66q94 0 161 -66q66 -67 66 -161q0 -95 -66 -162q-67 -66 -161 -66v0zM2958 1820q-94 0 -161 66q-67 67 -67 162q0 94 67 161q67 66 161 66t161 -66
q66 -67 66 -161q0 -95 -66 -162q-67 -66 -161 -66v0zM682 2275q-94 0 -161 67q-66 66 -66 161q0 94 66 161q67 66 161 66t161 -66q67 -67 67 -161q0 -95 -67 -161q-67 -67 -161 -67v0zM682 2730q-94 0 -161 67q-66 67 -66 161t66 161q67 66 161 66t161 -66q67 -67 67 -161
t-67 -161t-161 -67v0zM682 3185q-94 0 -161 67q-66 67 -66 161t66 161q67 66 161 66t161 -66q67 -67 67 -161t-67 -161t-161 -67v0zM682 3640q-94 0 -161 67q-66 67 -66 161t66 161q67 67 161 67t161 -67t67 -161t-67 -161t-161 -67v0zM1137 3640q-94 0 -161 67
q-66 67 -66 161t66 161q67 67 161 67t161 -67t67 -161t-67 -161t-161 -67v0zM1592 3640q-94 0 -161 67q-66 67 -66 161t66 161q67 67 161 67q95 0 161 -67q67 -67 67 -161t-67 -161q-66 -67 -161 -67v0zM2048 3640q-95 0 -162 67q-66 67 -66 161t66 161q67 67 162 67
q94 0 161 -67q66 -67 66 -161t-66 -161q-67 -67 -161 -67v0zM2503 3640q-95 0 -161 67q-67 67 -67 161t67 161q66 67 161 67q94 0 161 -67q66 -67 66 -161t-66 -161q-67 -67 -161 -67v0zM2958 3640q-94 0 -161 67t-67 161t67 161t161 67t161 -67q66 -67 66 -161t-66 -161
q-67 -67 -161 -67v0z" />
    <glyph glyph-name="seven" unicode="7" 
d="M2048 0q-95 0 -162 66q-66 67 -66 161t66 161q67 67 162 67q94 0 161 -67q66 -67 66 -161t-66 -161q-67 -66 -161 -66v0zM2048 455q-95 0 -162 66q-66 67 -66 161t66 161q67 67 162 67q94 0 161 -67q66 -67 66 -161t-66 -161q-67 -66 -161 -66v0zM2048 910q-95 0 -162 66
q-66 67 -66 161t66 161q67 67 162 67q94 0 161 -67q66 -67 66 -161t-66 -161q-67 -66 -161 -66v0zM2048 1365q-95 0 -162 66q-66 67 -66 161q0 95 66 161q67 67 162 67q94 0 161 -67q66 -66 66 -161q0 -94 -66 -161q-67 -66 -161 -66v0zM2048 1820q-95 0 -162 66
q-66 67 -66 162q0 94 66 161q67 66 162 66q94 0 161 -66q66 -67 66 -161q0 -95 -66 -162q-67 -66 -161 -66v0zM2503 2275q-95 0 -161 67q-67 66 -67 161q0 94 67 161q66 66 161 66q94 0 161 -66q66 -67 66 -161q0 -95 -66 -161q-67 -67 -161 -67v0zM2958 2730q-94 0 -161 67
t-67 161t67 161q67 66 161 66t161 -66q66 -67 66 -161t-66 -161q-67 -67 -161 -67v0zM2958 3185q-94 0 -161 67t-67 161t67 161q67 66 161 66t161 -66q66 -67 66 -161t-66 -161q-67 -67 -161 -67v0zM682 3640q-94 0 -161 67q-66 67 -66 161t66 161q67 67 161 67t161 -67
t67 -161t-67 -161t-161 -67v0zM1137 3640q-94 0 -161 67q-66 67 -66 161t66 161q67 67 161 67t161 -67t67 -161t-67 -161t-161 -67v0zM1592 3640q-94 0 -161 67q-66 67 -66 161t66 161q67 67 161 67q95 0 161 -67q67 -67 67 -161t-67 -161q-66 -67 -161 -67v0zM2048 3640
q-95 0 -162 67q-66 67 -66 161t66 161q67 67 162 67q94 0 161 -67q66 -67 66 -161t-66 -161q-67 -67 -161 -67v0zM2503 3640q-95 0 -161 67q-67 67 -67 161t67 161q66 67 161 67q94 0 161 -67q66 -67 66 -161t-66 -161q-67 -67 -161 -67v0zM2958 3640q-94 0 -161 67t-67 161
t67 161t161 67t161 -67q66 -67 66 -161t-66 -161q-67 -67 -161 -67v0z" />
    <glyph glyph-name="eight" unicode="8" 
d="M682 0q-94 0 -161 66q-66 67 -66 161t66 161q67 67 161 67t161 -67t67 -161t-67 -161q-67 -66 -161 -66v0zM1137 0q-94 0 -161 66q-66 67 -66 161t66 161q67 67 161 67t161 -67t67 -161t-67 -161q-67 -66 -161 -66v0zM1592 0q-94 0 -161 66q-66 67 -66 161t66 161
q67 67 161 67q95 0 161 -67q67 -67 67 -161t-67 -161q-66 -66 -161 -66v0zM2048 0q-95 0 -162 66q-66 67 -66 161t66 161q67 67 162 67q94 0 161 -67q66 -67 66 -161t-66 -161q-67 -66 -161 -66v0zM2503 0q-95 0 -161 66q-67 67 -67 161t67 161q66 67 161 67q94 0 161 -67
q66 -67 66 -161t-66 -161q-67 -66 -161 -66v0zM2958 0q-94 0 -161 66q-67 67 -67 161t67 161t161 67t161 -67q66 -67 66 -161t-66 -161q-67 -66 -161 -66v0zM682 455q-94 0 -161 66q-66 67 -66 161t66 161q67 67 161 67t161 -67t67 -161t-67 -161q-67 -66 -161 -66v0z
M2958 455q-94 0 -161 66q-67 67 -67 161t67 161t161 67t161 -67q66 -67 66 -161t-66 -161q-67 -66 -161 -66v0zM682 910q-94 0 -161 66q-66 67 -66 161t66 161q67 67 161 67t161 -67t67 -161t-67 -161q-67 -66 -161 -66v0zM2958 910q-94 0 -161 66q-67 67 -67 161t67 161
t161 67t161 -67q66 -67 66 -161t-66 -161q-67 -66 -161 -66v0zM682 1365q-94 0 -161 66q-66 67 -66 161q0 95 66 161q67 67 161 67t161 -67q67 -66 67 -161q0 -94 -67 -161q-67 -66 -161 -66v0zM2958 1365q-94 0 -161 66q-67 67 -67 161q0 95 67 161q67 67 161 67t161 -67
q66 -66 66 -161q0 -94 -66 -161q-67 -66 -161 -66v0zM682 1820q-94 0 -161 66q-66 67 -66 162q0 94 66 161q67 66 161 66t161 -66q67 -67 67 -161q0 -95 -67 -162q-67 -66 -161 -66v0zM1137 1820q-94 0 -161 66q-66 67 -66 162q0 94 66 161q67 66 161 66t161 -66
q67 -67 67 -161q0 -95 -67 -162q-67 -66 -161 -66v0zM1592 1820q-94 0 -161 66q-66 67 -66 162q0 94 66 161q67 66 161 66q95 0 161 -66q67 -67 67 -161q0 -95 -67 -162q-66 -66 -161 -66v0zM2048 1820q-95 0 -162 66q-66 67 -66 162q0 94 66 161q67 66 162 66q94 0 161 -66
q66 -67 66 -161q0 -95 -66 -162q-67 -66 -161 -66v0zM2503 1820q-95 0 -161 66q-67 67 -67 162q0 94 67 161q66 66 161 66q94 0 161 -66q66 -67 66 -161q0 -95 -66 -162q-67 -66 -161 -66v0zM2958 1820q-94 0 -161 66q-67 67 -67 162q0 94 67 161q67 66 161 66t161 -66
q66 -67 66 -161q0 -95 -66 -162q-67 -66 -161 -66v0zM682 2275q-94 0 -161 67q-66 66 -66 161q0 94 66 161q67 66 161 66t161 -66q67 -67 67 -161q0 -95 -67 -161q-67 -67 -161 -67v0zM2958 2275q-94 0 -161 67q-67 66 -67 161q0 94 67 161q67 66 161 66t161 -66
q66 -67 66 -161q0 -95 -66 -161q-67 -67 -161 -67v0zM682 2730q-94 0 -161 67q-66 67 -66 161t66 161q67 66 161 66t161 -66q67 -67 67 -161t-67 -161t-161 -67v0zM2958 2730q-94 0 -161 67t-67 161t67 161q67 66 161 66t161 -66q66 -67 66 -161t-66 -161q-67 -67 -161 -67
v0zM682 3185q-94 0 -161 67q-66 67 -66 161t66 161q67 66 161 66t161 -66q67 -67 67 -161t-67 -161t-161 -67v0zM2958 3185q-94 0 -161 67t-67 161t67 161q67 66 161 66t161 -66q66 -67 66 -161t-66 -161q-67 -67 -161 -67v0zM682 3640q-94 0 -161 67q-66 67 -66 161t66 161
q67 67 161 67t161 -67t67 -161t-67 -161t-161 -67v0zM1137 3640q-94 0 -161 67q-66 67 -66 161t66 161q67 67 161 67t161 -67t67 -161t-67 -161t-161 -67v0zM1592 3640q-94 0 -161 67q-66 67 -66 161t66 161q67 67 161 67q95 0 161 -67q67 -67 67 -161t-67 -161
q-66 -67 -161 -67v0zM2048 3640q-95 0 -162 67q-66 67 -66 161t66 161q67 67 162 67q94 0 161 -67q66 -67 66 -161t-66 -161q-67 -67 -161 -67v0zM2503 3640q-95 0 -161 67q-67 67 -67 161t67 161q66 67 161 67q94 0 161 -67q66 -67 66 -161t-66 -161q-67 -67 -161 -67v0z
M2958 3640q-94 0 -161 67t-67 161t67 161t161 67t161 -67q66 -67 66 -161t-66 -161q-67 -67 -161 -67v0z" />
    <glyph glyph-name="nine" unicode="9" 
d="M682 0q-94 0 -161 66q-66 67 -66 161t66 161q67 67 161 67t161 -67t67 -161t-67 -161q-67 -66 -161 -66v0zM1137 0q-94 0 -161 66q-66 67 -66 161t66 161q67 67 161 67t161 -67t67 -161t-67 -161q-67 -66 -161 -66v0zM1592 0q-94 0 -161 66q-66 67 -66 161t66 161
q67 67 161 67q95 0 161 -67q67 -67 67 -161t-67 -161q-66 -66 -161 -66v0zM2048 0q-95 0 -162 66q-66 67 -66 161t66 161q67 67 162 67q94 0 161 -67q66 -67 66 -161t-66 -161q-67 -66 -161 -66v0zM2503 0q-95 0 -161 66q-67 67 -67 161t67 161q66 67 161 67q94 0 161 -67
q66 -67 66 -161t-66 -161q-67 -66 -161 -66v0zM2958 0q-94 0 -161 66q-67 67 -67 161t67 161t161 67t161 -67q66 -67 66 -161t-66 -161q-67 -66 -161 -66v0zM2958 455q-94 0 -161 66q-67 67 -67 161t67 161t161 67t161 -67q66 -67 66 -161t-66 -161q-67 -66 -161 -66v0z
M2958 910q-94 0 -161 66q-67 67 -67 161t67 161t161 67t161 -67q66 -67 66 -161t-66 -161q-67 -66 -161 -66v0zM2958 1365q-94 0 -161 66q-67 67 -67 161q0 95 67 161q67 67 161 67t161 -67q66 -66 66 -161q0 -94 -66 -161q-67 -66 -161 -66v0zM682 1820q-94 0 -161 66
q-66 67 -66 162q0 94 66 161q67 66 161 66t161 -66q67 -67 67 -161q0 -95 -67 -162q-67 -66 -161 -66v0zM1137 1820q-94 0 -161 66q-66 67 -66 162q0 94 66 161q67 66 161 66t161 -66q67 -67 67 -161q0 -95 -67 -162q-67 -66 -161 -66v0zM1592 1820q-94 0 -161 66
q-66 67 -66 162q0 94 66 161q67 66 161 66q95 0 161 -66q67 -67 67 -161q0 -95 -67 -162q-66 -66 -161 -66v0zM2048 1820q-95 0 -162 66q-66 67 -66 162q0 94 66 161q67 66 162 66q94 0 161 -66q66 -67 66 -161q0 -95 -66 -162q-67 -66 -161 -66v0zM2503 1820q-95 0 -161 66
q-67 67 -67 162q0 94 67 161q66 66 161 66q94 0 161 -66q66 -67 66 -161q0 -95 -66 -162q-67 -66 -161 -66v0zM2958 1820q-94 0 -161 66q-67 67 -67 162q0 94 67 161q67 66 161 66t161 -66q66 -67 66 -161q0 -95 -66 -162q-67 -66 -161 -66v0zM682 2275q-94 0 -161 67
q-66 66 -66 161q0 94 66 161q67 66 161 66t161 -66q67 -67 67 -161q0 -95 -67 -161q-67 -67 -161 -67v0zM2958 2275q-94 0 -161 67q-67 66 -67 161q0 94 67 161q67 66 161 66t161 -66q66 -67 66 -161q0 -95 -66 -161q-67 -67 -161 -67v0zM682 2730q-94 0 -161 67
q-66 67 -66 161t66 161q67 66 161 66t161 -66q67 -67 67 -161t-67 -161t-161 -67v0zM2958 2730q-94 0 -161 67t-67 161t67 161q67 66 161 66t161 -66q66 -67 66 -161t-66 -161q-67 -67 -161 -67v0zM682 3185q-94 0 -161 67q-66 67 -66 161t66 161q67 66 161 66t161 -66
q67 -67 67 -161t-67 -161t-161 -67v0zM2958 3185q-94 0 -161 67t-67 161t67 161q67 66 161 66t161 -66q66 -67 66 -161t-66 -161q-67 -67 -161 -67v0zM682 3640q-94 0 -161 67q-66 67 -66 161t66 161q67 67 161 67t161 -67t67 -161t-67 -161t-161 -67v0zM1137 3640
q-94 0 -161 67q-66 67 -66 161t66 161q67 67 161 67t161 -67t67 -161t-67 -161t-161 -67v0zM1592 3640q-94 0 -161 67q-66 67 -66 161t66 161q67 67 161 67q95 0 161 -67q67 -67 67 -161t-67 -161q-66 -67 -161 -67v0zM2048 3640q-95 0 -162 67q-66 67 -66 161t66 161
q67 67 162 67q94 0 161 -67q66 -67 66 -161t-66 -161q-67 -67 -161 -67v0zM2503 3640q-95 0 -161 67q-67 67 -67 161t67 161q66 67 161 67q94 0 161 -67q66 -67 66 -161t-66 -161q-67 -67 -161 -67v0zM2958 3640q-94 0 -161 67t-67 161t67 161t161 67t161 -67
q66 -67 66 -161t-66 -161q-67 -67 -161 -67v0z" />
    <glyph glyph-name="colon" unicode=":" horiz-adv-x="2275" 
d="M1137 455q-94 0 -161 66q-66 67 -66 161t66 161q67 67 161 67t161 -67t67 -161t-67 -161q-67 -66 -161 -66v0zM1592 455q-94 0 -161 66q-66 67 -66 161t66 161q67 67 161 67q95 0 161 -67q67 -67 67 -161t-67 -161q-66 -66 -161 -66v0zM1137 910q-94 0 -161 66
q-66 67 -66 161t66 161q67 67 161 67t161 -67t67 -161t-67 -161q-67 -66 -161 -66v0zM1592 910q-94 0 -161 66q-66 67 -66 161t66 161q67 67 161 67q95 0 161 -67q67 -67 67 -161t-67 -161q-66 -66 -161 -66v0zM1137 2275q-94 0 -161 67q-66 66 -66 161q0 94 66 161
q67 66 161 66t161 -66q67 -67 67 -161q0 -95 -67 -161q-67 -67 -161 -67v0zM1592 2275q-94 0 -161 67q-66 66 -66 161q0 94 66 161q67 66 161 66q95 0 161 -66q67 -67 67 -161q0 -95 -67 -161q-66 -67 -161 -67v0zM1137 2730q-94 0 -161 67q-66 67 -66 161t66 161
q67 66 161 66t161 -66q67 -67 67 -161t-67 -161t-161 -67v0zM1592 2730q-94 0 -161 67q-66 67 -66 161t66 161q67 66 161 66q95 0 161 -66q67 -67 67 -161t-67 -161q-66 -67 -161 -67v0z" />
    <glyph glyph-name="semicolon" unicode=";" horiz-adv-x="2275" 
d="M1592 0q-94 0 -161 66q-66 67 -66 161t66 161q67 67 161 67q95 0 161 -67q67 -67 67 -161t-67 -161q-66 -66 -161 -66v0zM1137 455q-94 0 -161 66q-66 67 -66 161t66 161q67 67 161 67t161 -67t67 -161t-67 -161q-67 -66 -161 -66v0zM1592 455q-94 0 -161 66
q-66 67 -66 161t66 161q67 67 161 67q95 0 161 -67q67 -67 67 -161t-67 -161q-66 -66 -161 -66v0zM1137 910q-94 0 -161 66q-66 67 -66 161t66 161q67 67 161 67t161 -67t67 -161t-67 -161q-67 -66 -161 -66v0zM1592 910q-94 0 -161 66q-66 67 -66 161t66 161q67 67 161 67
q95 0 161 -67q67 -67 67 -161t-67 -161q-66 -66 -161 -66v0zM1137 2275q-94 0 -161 67q-66 66 -66 161q0 94 66 161q67 66 161 66t161 -66q67 -67 67 -161q0 -95 -67 -161q-67 -67 -161 -67v0zM1592 2275q-94 0 -161 67q-66 66 -66 161q0 94 66 161q67 66 161 66
q95 0 161 -66q67 -67 67 -161q0 -95 -67 -161q-66 -67 -161 -67v0zM1137 2730q-94 0 -161 67q-66 67 -66 161t66 161q67 66 161 66t161 -66q67 -67 67 -161t-67 -161t-161 -67v0zM1592 2730q-94 0 -161 67q-66 67 -66 161t66 161q67 66 161 66q95 0 161 -66q67 -67 67 -161
t-67 -161q-66 -67 -161 -67v0z" />
    <glyph glyph-name="less" unicode="&#x3c;" horiz-adv-x="3185" 
d="M2503 455q-95 0 -161 66q-67 67 -67 161t67 161q66 67 161 67q94 0 161 -67q66 -67 66 -161t-66 -161q-67 -66 -161 -66v0zM2048 910q-95 0 -162 66q-66 67 -66 161t66 161q67 67 162 67q94 0 161 -67q66 -67 66 -161t-66 -161q-67 -66 -161 -66v0zM1592 1365
q-94 0 -161 66q-66 67 -66 161q0 95 66 161q67 67 161 67q95 0 161 -67q67 -66 67 -161q0 -94 -67 -161q-66 -66 -161 -66v0zM1137 1820q-94 0 -161 66q-66 67 -66 162q0 94 66 161q67 66 161 66t161 -66q67 -67 67 -161q0 -95 -67 -162q-67 -66 -161 -66v0zM1592 2275
q-94 0 -161 67q-66 66 -66 161q0 94 66 161q67 66 161 66q95 0 161 -66q67 -67 67 -161q0 -95 -67 -161q-66 -67 -161 -67v0zM2048 2730q-95 0 -162 67q-66 67 -66 161t66 161q67 66 162 66q94 0 161 -66q66 -67 66 -161t-66 -161q-67 -67 -161 -67v0zM2503 3185
q-95 0 -161 67q-67 67 -67 161t67 161q66 66 161 66q94 0 161 -66q66 -67 66 -161t-66 -161q-67 -67 -161 -67v0z" />
    <glyph glyph-name="equal" unicode="=" 
d="M1592 1365q-94 0 -161 66q-66 67 -66 161q0 95 66 161q67 67 161 67q95 0 161 -67q67 -66 67 -161q0 -94 -67 -161q-66 -66 -161 -66v0zM2048 1365q-95 0 -162 66q-66 67 -66 161q0 95 66 161q67 67 162 67q94 0 161 -67q66 -66 66 -161q0 -94 -66 -161q-67 -66 -161 -66
v0zM2503 1365q-95 0 -161 66q-67 67 -67 161q0 95 67 161q66 67 161 67q94 0 161 -67q66 -66 66 -161q0 -94 -66 -161q-67 -66 -161 -66v0zM2958 1365q-94 0 -161 66q-67 67 -67 161q0 95 67 161q67 67 161 67t161 -67q66 -66 66 -161q0 -94 -66 -161q-67 -66 -161 -66v0z
M1592 2275q-94 0 -161 67q-66 66 -66 161q0 94 66 161q67 66 161 66q95 0 161 -66q67 -67 67 -161q0 -95 -67 -161q-66 -67 -161 -67v0zM2048 2275q-95 0 -162 67q-66 66 -66 161q0 94 66 161q67 66 162 66q94 0 161 -66q66 -67 66 -161q0 -95 -66 -161q-67 -67 -161 -67v0z
M2503 2275q-95 0 -161 67q-67 66 -67 161q0 94 67 161q66 66 161 66q94 0 161 -66q66 -67 66 -161q0 -95 -66 -161q-67 -67 -161 -67v0zM2958 2275q-94 0 -161 67q-67 66 -67 161q0 94 67 161q67 66 161 66t161 -66q66 -67 66 -161q0 -95 -66 -161q-67 -67 -161 -67v0z" />
    <glyph glyph-name="greater" unicode="&#x3e;" horiz-adv-x="3185" 
d="M1137 455q-94 0 -161 66q-66 67 -66 161t66 161q67 67 161 67t161 -67t67 -161t-67 -161q-67 -66 -161 -66v0zM1592 910q-94 0 -161 66q-66 67 -66 161t66 161q67 67 161 67q95 0 161 -67q67 -67 67 -161t-67 -161q-66 -66 -161 -66v0zM2048 1365q-95 0 -162 66
q-66 67 -66 161q0 95 66 161q67 67 162 67q94 0 161 -67q66 -66 66 -161q0 -94 -66 -161q-67 -66 -161 -66v0zM2503 1820q-95 0 -161 66q-67 67 -67 162q0 94 67 161q66 66 161 66q94 0 161 -66q66 -67 66 -161q0 -95 -66 -162q-67 -66 -161 -66v0zM2048 2275q-95 0 -162 67
q-66 66 -66 161q0 94 66 161q67 66 162 66q94 0 161 -66q66 -67 66 -161q0 -95 -66 -161q-67 -67 -161 -67v0zM1592 2730q-94 0 -161 67q-66 67 -66 161t66 161q67 66 161 66q95 0 161 -66q67 -67 67 -161t-67 -161q-66 -67 -161 -67v0zM1137 3185q-94 0 -161 67
q-66 67 -66 161t66 161q67 66 161 66t161 -66q67 -67 67 -161t-67 -161t-161 -67v0z" />
    <glyph glyph-name="question" unicode="?" horiz-adv-x="3185" 
d="M1592 455q-94 0 -161 66q-66 67 -66 161t66 161q67 67 161 67q95 0 161 -67q67 -67 67 -161t-67 -161q-66 -66 -161 -66v0zM1592 1365q-94 0 -161 66q-66 67 -66 161q0 95 66 161q67 67 161 67q95 0 161 -67q67 -66 67 -161q0 -94 -67 -161q-66 -66 -161 -66v0z
M1592 1820q-94 0 -161 66q-66 67 -66 162q0 94 66 161q67 66 161 66q95 0 161 -66q67 -67 67 -161q0 -95 -67 -162q-66 -66 -161 -66v0zM2048 2275q-95 0 -162 67q-66 66 -66 161q0 94 66 161q67 66 162 66q94 0 161 -66q66 -67 66 -161q0 -95 -66 -161q-67 -67 -161 -67v0z
M2503 2730q-95 0 -161 67q-67 67 -67 161t67 161q66 66 161 66q94 0 161 -66q66 -67 66 -161t-66 -161q-67 -67 -161 -67v0zM682 3185q-94 0 -161 67q-66 67 -66 161t66 161q67 66 161 66t161 -66q67 -67 67 -161t-67 -161t-161 -67v0zM2503 3185q-95 0 -161 67
q-67 67 -67 161t67 161q66 66 161 66q94 0 161 -66q66 -67 66 -161t-66 -161q-67 -67 -161 -67v0zM1137 3640q-94 0 -161 67q-66 67 -66 161t66 161q67 67 161 67t161 -67t67 -161t-67 -161t-161 -67v0zM1592 3640q-94 0 -161 67q-66 67 -66 161t66 161q67 67 161 67
q95 0 161 -67q67 -67 67 -161t-67 -161q-66 -67 -161 -67v0zM2048 3640q-95 0 -162 67q-66 67 -66 161t66 161q67 67 162 67q94 0 161 -67q66 -67 66 -161t-66 -161q-67 -67 -161 -67v0z" />
    <glyph glyph-name="at" unicode="@" 
d="M1137 0q-94 0 -161 66q-66 67 -66 161t66 161q67 67 161 67t161 -67t67 -161t-67 -161q-67 -66 -161 -66v0zM1592 0q-94 0 -161 66q-66 67 -66 161t66 161q67 67 161 67q95 0 161 -67q67 -67 67 -161t-67 -161q-66 -66 -161 -66v0zM682 455q-94 0 -161 66q-66 67 -66 161
t66 161q67 67 161 67t161 -67t67 -161t-67 -161q-67 -66 -161 -66v0zM2503 455q-95 0 -161 66q-67 67 -67 161t67 161q66 67 161 67q94 0 161 -67q66 -67 66 -161t-66 -161q-67 -66 -161 -66v0zM682 910q-94 0 -161 66q-66 67 -66 161t66 161q67 67 161 67t161 -67t67 -161
t-67 -161q-67 -66 -161 -66v0zM1592 910q-94 0 -161 66q-66 67 -66 161t66 161q67 67 161 67q95 0 161 -67q67 -67 67 -161t-67 -161q-66 -66 -161 -66v0zM2048 910q-95 0 -162 66q-66 67 -66 161t66 161q67 67 162 67q94 0 161 -67q66 -67 66 -161t-66 -161
q-67 -66 -161 -66v0zM2958 910q-94 0 -161 66q-67 67 -67 161t67 161t161 67t161 -67q66 -67 66 -161t-66 -161q-67 -66 -161 -66v0zM682 1365q-94 0 -161 66q-66 67 -66 161q0 95 66 161q67 67 161 67t161 -67q67 -66 67 -161q0 -94 -67 -161q-67 -66 -161 -66v0z
M1137 1365q-94 0 -161 66q-66 67 -66 161q0 95 66 161q67 67 161 67t161 -67q67 -66 67 -161q0 -94 -67 -161q-67 -66 -161 -66v0zM2503 1365q-95 0 -161 66q-67 67 -67 161q0 95 67 161q66 67 161 67q94 0 161 -67q66 -66 66 -161q0 -94 -66 -161q-67 -66 -161 -66v0z
M2958 1365q-94 0 -161 66q-67 67 -67 161q0 95 67 161q67 67 161 67t161 -67q66 -66 66 -161q0 -94 -66 -161q-67 -66 -161 -66v0zM682 1820q-94 0 -161 66q-66 67 -66 162q0 94 66 161q67 66 161 66t161 -66q67 -67 67 -161q0 -95 -67 -162q-67 -66 -161 -66v0zM1137 1820
q-94 0 -161 66q-66 67 -66 162q0 94 66 161q67 66 161 66t161 -66q67 -67 67 -161q0 -95 -67 -162q-67 -66 -161 -66v0zM2503 1820q-95 0 -161 66q-67 67 -67 162q0 94 67 161q66 66 161 66q94 0 161 -66q66 -67 66 -161q0 -95 -66 -162q-67 -66 -161 -66v0zM2958 1820
q-94 0 -161 66q-67 67 -67 162q0 94 67 161q67 66 161 66t161 -66q66 -67 66 -161q0 -95 -66 -162q-67 -66 -161 -66v0zM682 2275q-94 0 -161 67q-66 66 -66 161q0 94 66 161q67 66 161 66t161 -66q67 -67 67 -161q0 -95 -67 -161q-67 -67 -161 -67v0zM1137 2275
q-94 0 -161 67q-66 66 -66 161q0 94 66 161q67 66 161 66t161 -66q67 -67 67 -161q0 -95 -67 -161q-67 -67 -161 -67v0zM2503 2275q-95 0 -161 67q-67 66 -67 161q0 94 67 161q66 66 161 66q94 0 161 -66q66 -67 66 -161q0 -95 -66 -161q-67 -67 -161 -67v0zM2958 2275
q-94 0 -161 67q-67 66 -67 161q0 94 67 161q67 66 161 66t161 -66q66 -67 66 -161q0 -95 -66 -161q-67 -67 -161 -67v0zM682 2730q-94 0 -161 67q-66 67 -66 161t66 161q67 66 161 66t161 -66q67 -67 67 -161t-67 -161t-161 -67v0zM1592 2730q-94 0 -161 67q-66 67 -66 161
t66 161q67 66 161 66q95 0 161 -66q67 -67 67 -161t-67 -161q-66 -67 -161 -67v0zM2048 2730q-95 0 -162 67q-66 67 -66 161t66 161q67 66 162 66q94 0 161 -66q66 -67 66 -161t-66 -161q-67 -67 -161 -67v0zM2503 2730q-95 0 -161 67q-67 67 -67 161t67 161q66 66 161 66
q94 0 161 -66q66 -67 66 -161t-66 -161q-67 -67 -161 -67v0zM2958 2730q-94 0 -161 67t-67 161t67 161q67 66 161 66t161 -66q66 -67 66 -161t-66 -161q-67 -67 -161 -67v0zM682 3185q-94 0 -161 67q-66 67 -66 161t66 161q67 66 161 66t161 -66q67 -67 67 -161t-67 -161
t-161 -67v0zM2958 3185q-94 0 -161 67t-67 161t67 161q67 66 161 66t161 -66q66 -67 66 -161t-66 -161q-67 -67 -161 -67v0zM1137 3640q-94 0 -161 67q-66 67 -66 161t66 161q67 67 161 67t161 -67t67 -161t-67 -161t-161 -67v0zM1592 3640q-94 0 -161 67q-66 67 -66 161
t66 161q67 67 161 67q95 0 161 -67q67 -67 67 -161t-67 -161q-66 -67 -161 -67v0zM2048 3640q-95 0 -162 67q-66 67 -66 161t66 161q67 67 162 67q94 0 161 -67q66 -67 66 -161t-66 -161q-67 -67 -161 -67v0zM2503 3640q-95 0 -161 67q-67 67 -67 161t67 161q66 67 161 67
q94 0 161 -67q66 -67 66 -161t-66 -161q-67 -67 -161 -67v0z" />
    <glyph glyph-name="A" unicode="A" 
d="M682 0q-94 0 -161 66q-66 67 -66 161t66 161q67 67 161 67t161 -67t67 -161t-67 -161q-67 -66 -161 -66v0zM2958 0q-94 0 -161 66q-67 67 -67 161t67 161t161 67t161 -67q66 -67 66 -161t-66 -161q-67 -66 -161 -66v0zM682 455q-94 0 -161 66q-66 67 -66 161t66 161
q67 67 161 67t161 -67t67 -161t-67 -161q-67 -66 -161 -66v0zM2958 455q-94 0 -161 66q-67 67 -67 161t67 161t161 67t161 -67q66 -67 66 -161t-66 -161q-67 -66 -161 -66v0zM682 910q-94 0 -161 66q-66 67 -66 161t66 161q67 67 161 67t161 -67t67 -161t-67 -161
q-67 -66 -161 -66v0zM2958 910q-94 0 -161 66q-67 67 -67 161t67 161t161 67t161 -67q66 -67 66 -161t-66 -161q-67 -66 -161 -66v0zM682 1365q-94 0 -161 66q-66 67 -66 161q0 95 66 161q67 67 161 67t161 -67q67 -66 67 -161q0 -94 -67 -161q-67 -66 -161 -66v0z
M1137 1365q-94 0 -161 66q-66 67 -66 161q0 95 66 161q67 67 161 67t161 -67q67 -66 67 -161q0 -94 -67 -161q-67 -66 -161 -66v0zM1592 1365q-94 0 -161 66q-66 67 -66 161q0 95 66 161q67 67 161 67q95 0 161 -67q67 -66 67 -161q0 -94 -67 -161q-66 -66 -161 -66v0z
M2048 1365q-95 0 -162 66q-66 67 -66 161q0 95 66 161q67 67 162 67q94 0 161 -67q66 -66 66 -161q0 -94 -66 -161q-67 -66 -161 -66v0zM2503 1365q-95 0 -161 66q-67 67 -67 161q0 95 67 161q66 67 161 67q94 0 161 -67q66 -66 66 -161q0 -94 -66 -161q-67 -66 -161 -66v0z
M2958 1365q-94 0 -161 66q-67 67 -67 161q0 95 67 161q67 67 161 67t161 -67q66 -66 66 -161q0 -94 -66 -161q-67 -66 -161 -66v0zM682 1820q-94 0 -161 66q-66 67 -66 162q0 94 66 161q67 66 161 66t161 -66q67 -67 67 -161q0 -95 -67 -162q-67 -66 -161 -66v0zM2958 1820
q-94 0 -161 66q-67 67 -67 162q0 94 67 161q67 66 161 66t161 -66q66 -67 66 -161q0 -95 -66 -162q-67 -66 -161 -66v0zM682 2275q-94 0 -161 67q-66 66 -66 161q0 94 66 161q67 66 161 66t161 -66q67 -67 67 -161q0 -95 -67 -161q-67 -67 -161 -67v0zM2958 2275
q-94 0 -161 67q-67 66 -67 161q0 94 67 161q67 66 161 66t161 -66q66 -67 66 -161q0 -95 -66 -161q-67 -67 -161 -67v0zM682 2730q-94 0 -161 67q-66 67 -66 161t66 161q67 66 161 66t161 -66q67 -67 67 -161t-67 -161t-161 -67v0zM2958 2730q-94 0 -161 67t-67 161t67 161
q67 66 161 66t161 -66q66 -67 66 -161t-66 -161q-67 -67 -161 -67v0zM682 3185q-94 0 -161 67q-66 67 -66 161t66 161q67 66 161 66t161 -66q67 -67 67 -161t-67 -161t-161 -67v0zM2958 3185q-94 0 -161 67t-67 161t67 161q67 66 161 66t161 -66q66 -67 66 -161t-66 -161
q-67 -67 -161 -67v0zM1137 3640q-94 0 -161 67q-66 67 -66 161t66 161q67 67 161 67t161 -67t67 -161t-67 -161t-161 -67v0zM1592 3640q-94 0 -161 67q-66 67 -66 161t66 161q67 67 161 67q95 0 161 -67q67 -67 67 -161t-67 -161q-66 -67 -161 -67v0zM2048 3640
q-95 0 -162 67q-66 67 -66 161t66 161q67 67 162 67q94 0 161 -67q66 -67 66 -161t-66 -161q-67 -67 -161 -67v0zM2503 3640q-95 0 -161 67q-67 67 -67 161t67 161q66 67 161 67q94 0 161 -67q66 -67 66 -161t-66 -161q-67 -67 -161 -67v0z" />
    <glyph glyph-name="B" unicode="B" 
d="M682 0q-94 0 -161 66q-66 67 -66 161t66 161q67 67 161 67t161 -67t67 -161t-67 -161q-67 -66 -161 -66v0zM1137 0q-94 0 -161 66q-66 67 -66 161t66 161q67 67 161 67t161 -67t67 -161t-67 -161q-67 -66 -161 -66v0zM1592 0q-94 0 -161 66q-66 67 -66 161t66 161
q67 67 161 67q95 0 161 -67q67 -67 67 -161t-67 -161q-66 -66 -161 -66v0zM2048 0q-95 0 -162 66q-66 67 -66 161t66 161q67 67 162 67q94 0 161 -67q66 -67 66 -161t-66 -161q-67 -66 -161 -66v0zM2503 0q-95 0 -161 66q-67 67 -67 161t67 161q66 67 161 67q94 0 161 -67
q66 -67 66 -161t-66 -161q-67 -66 -161 -66v0zM682 455q-94 0 -161 66q-66 67 -66 161t66 161q67 67 161 67t161 -67t67 -161t-67 -161q-67 -66 -161 -66v0zM2958 455q-94 0 -161 66q-67 67 -67 161t67 161t161 67t161 -67q66 -67 66 -161t-66 -161q-67 -66 -161 -66v0z
M682 910q-94 0 -161 66q-66 67 -66 161t66 161q67 67 161 67t161 -67t67 -161t-67 -161q-67 -66 -161 -66v0zM2958 910q-94 0 -161 66q-67 67 -67 161t67 161t161 67t161 -67q66 -67 66 -161t-66 -161q-67 -66 -161 -66v0zM682 1365q-94 0 -161 66q-66 67 -66 161
q0 95 66 161q67 67 161 67t161 -67q67 -66 67 -161q0 -94 -67 -161q-67 -66 -161 -66v0zM2958 1365q-94 0 -161 66q-67 67 -67 161q0 95 67 161q67 67 161 67t161 -67q66 -66 66 -161q0 -94 -66 -161q-67 -66 -161 -66v0zM682 1820q-94 0 -161 66q-66 67 -66 162
q0 94 66 161q67 66 161 66t161 -66q67 -67 67 -161q0 -95 -67 -162q-67 -66 -161 -66v0zM1137 1820q-94 0 -161 66q-66 67 -66 162q0 94 66 161q67 66 161 66t161 -66q67 -67 67 -161q0 -95 -67 -162q-67 -66 -161 -66v0zM1592 1820q-94 0 -161 66q-66 67 -66 162
q0 94 66 161q67 66 161 66q95 0 161 -66q67 -67 67 -161q0 -95 -67 -162q-66 -66 -161 -66v0zM2048 1820q-95 0 -162 66q-66 67 -66 162q0 94 66 161q67 66 162 66q94 0 161 -66q66 -67 66 -161q0 -95 -66 -162q-67 -66 -161 -66v0zM2503 1820q-95 0 -161 66q-67 67 -67 162
q0 94 67 161q66 66 161 66q94 0 161 -66q66 -67 66 -161q0 -95 -66 -162q-67 -66 -161 -66v0zM682 2275q-94 0 -161 67q-66 66 -66 161q0 94 66 161q67 66 161 66t161 -66q67 -67 67 -161q0 -95 -67 -161q-67 -67 -161 -67v0zM2958 2275q-94 0 -161 67q-67 66 -67 161
q0 94 67 161q67 66 161 66t161 -66q66 -67 66 -161q0 -95 -66 -161q-67 -67 -161 -67v0zM682 2730q-94 0 -161 67q-66 67 -66 161t66 161q67 66 161 66t161 -66q67 -67 67 -161t-67 -161t-161 -67v0zM2958 2730q-94 0 -161 67t-67 161t67 161q67 66 161 66t161 -66
q66 -67 66 -161t-66 -161q-67 -67 -161 -67v0zM682 3185q-94 0 -161 67q-66 67 -66 161t66 161q67 66 161 66t161 -66q67 -67 67 -161t-67 -161t-161 -67v0zM2958 3185q-94 0 -161 67t-67 161t67 161q67 66 161 66t161 -66q66 -67 66 -161t-66 -161q-67 -67 -161 -67v0z
M682 3640q-94 0 -161 67q-66 67 -66 161t66 161q67 67 161 67t161 -67t67 -161t-67 -161t-161 -67v0zM1137 3640q-94 0 -161 67q-66 67 -66 161t66 161q67 67 161 67t161 -67t67 -161t-67 -161t-161 -67v0zM1592 3640q-94 0 -161 67q-66 67 -66 161t66 161q67 67 161 67
q95 0 161 -67q67 -67 67 -161t-67 -161q-66 -67 -161 -67v0zM2048 3640q-95 0 -162 67q-66 67 -66 161t66 161q67 67 162 67q94 0 161 -67q66 -67 66 -161t-66 -161q-67 -67 -161 -67v0zM2503 3640q-95 0 -161 67q-67 67 -67 161t67 161q66 67 161 67q94 0 161 -67
q66 -67 66 -161t-66 -161q-67 -67 -161 -67v0z" />
    <glyph glyph-name="C" unicode="C" 
d="M1137 0q-94 0 -161 66q-66 67 -66 161t66 161q67 67 161 67t161 -67t67 -161t-67 -161q-67 -66 -161 -66v0zM1592 0q-94 0 -161 66q-66 67 -66 161t66 161q67 67 161 67q95 0 161 -67q67 -67 67 -161t-67 -161q-66 -66 -161 -66v0zM2048 0q-95 0 -162 66q-66 67 -66 161
t66 161q67 67 162 67q94 0 161 -67q66 -67 66 -161t-66 -161q-67 -66 -161 -66v0zM2503 0q-95 0 -161 66q-67 67 -67 161t67 161q66 67 161 67q94 0 161 -67q66 -67 66 -161t-66 -161q-67 -66 -161 -66v0zM682 455q-94 0 -161 66q-66 67 -66 161t66 161q67 67 161 67
t161 -67t67 -161t-67 -161q-67 -66 -161 -66v0zM2958 455q-94 0 -161 66q-67 67 -67 161t67 161t161 67t161 -67q66 -67 66 -161t-66 -161q-67 -66 -161 -66v0zM682 910q-94 0 -161 66q-66 67 -66 161t66 161q67 67 161 67t161 -67t67 -161t-67 -161q-67 -66 -161 -66v0z
M682 1365q-94 0 -161 66q-66 67 -66 161q0 95 66 161q67 67 161 67t161 -67q67 -66 67 -161q0 -94 -67 -161q-67 -66 -161 -66v0zM682 1820q-94 0 -161 66q-66 67 -66 162q0 94 66 161q67 66 161 66t161 -66q67 -67 67 -161q0 -95 -67 -162q-67 -66 -161 -66v0zM682 2275
q-94 0 -161 67q-66 66 -66 161q0 94 66 161q67 66 161 66t161 -66q67 -67 67 -161q0 -95 -67 -161q-67 -67 -161 -67v0zM682 2730q-94 0 -161 67q-66 67 -66 161t66 161q67 66 161 66t161 -66q67 -67 67 -161t-67 -161t-161 -67v0zM682 3185q-94 0 -161 67q-66 67 -66 161
t66 161q67 66 161 66t161 -66q67 -67 67 -161t-67 -161t-161 -67v0zM2958 3185q-94 0 -161 67t-67 161t67 161q67 66 161 66t161 -66q66 -67 66 -161t-66 -161q-67 -67 -161 -67v0zM1137 3640q-94 0 -161 67q-66 67 -66 161t66 161q67 67 161 67t161 -67t67 -161t-67 -161
t-161 -67v0zM1592 3640q-94 0 -161 67q-66 67 -66 161t66 161q67 67 161 67q95 0 161 -67q67 -67 67 -161t-67 -161q-66 -67 -161 -67v0zM2048 3640q-95 0 -162 67q-66 67 -66 161t66 161q67 67 162 67q94 0 161 -67q66 -67 66 -161t-66 -161q-67 -67 -161 -67v0zM2503 3640
q-95 0 -161 67q-67 67 -67 161t67 161q66 67 161 67q94 0 161 -67q66 -67 66 -161t-66 -161q-67 -67 -161 -67v0z" />
    <glyph glyph-name="D" unicode="D" 
d="M682 0q-94 0 -161 66q-66 67 -66 161t66 161q67 67 161 67t161 -67t67 -161t-67 -161q-67 -66 -161 -66v0zM1137 0q-94 0 -161 66q-66 67 -66 161t66 161q67 67 161 67t161 -67t67 -161t-67 -161q-67 -66 -161 -66v0zM1592 0q-94 0 -161 66q-66 67 -66 161t66 161
q67 67 161 67q95 0 161 -67q67 -67 67 -161t-67 -161q-66 -66 -161 -66v0zM2048 0q-95 0 -162 66q-66 67 -66 161t66 161q67 67 162 67q94 0 161 -67q66 -67 66 -161t-66 -161q-67 -66 -161 -66v0zM682 455q-94 0 -161 66q-66 67 -66 161t66 161q67 67 161 67t161 -67
t67 -161t-67 -161q-67 -66 -161 -66v0zM2503 455q-95 0 -161 66q-67 67 -67 161t67 161q66 67 161 67q94 0 161 -67q66 -67 66 -161t-66 -161q-67 -66 -161 -66v0zM682 910q-94 0 -161 66q-66 67 -66 161t66 161q67 67 161 67t161 -67t67 -161t-67 -161q-67 -66 -161 -66v0z
M2958 910q-94 0 -161 66q-67 67 -67 161t67 161t161 67t161 -67q66 -67 66 -161t-66 -161q-67 -66 -161 -66v0zM682 1365q-94 0 -161 66q-66 67 -66 161q0 95 66 161q67 67 161 67t161 -67q67 -66 67 -161q0 -94 -67 -161q-67 -66 -161 -66v0zM2958 1365q-94 0 -161 66
q-67 67 -67 161q0 95 67 161q67 67 161 67t161 -67q66 -66 66 -161q0 -94 -66 -161q-67 -66 -161 -66v0zM682 1820q-94 0 -161 66q-66 67 -66 162q0 94 66 161q67 66 161 66t161 -66q67 -67 67 -161q0 -95 -67 -162q-67 -66 -161 -66v0zM2958 1820q-94 0 -161 66
q-67 67 -67 162q0 94 67 161q67 66 161 66t161 -66q66 -67 66 -161q0 -95 -66 -162q-67 -66 -161 -66v0zM682 2275q-94 0 -161 67q-66 66 -66 161q0 94 66 161q67 66 161 66t161 -66q67 -67 67 -161q0 -95 -67 -161q-67 -67 -161 -67v0zM2958 2275q-94 0 -161 67
q-67 66 -67 161q0 94 67 161q67 66 161 66t161 -66q66 -67 66 -161q0 -95 -66 -161q-67 -67 -161 -67v0zM682 2730q-94 0 -161 67q-66 67 -66 161t66 161q67 66 161 66t161 -66q67 -67 67 -161t-67 -161t-161 -67v0zM2958 2730q-94 0 -161 67t-67 161t67 161q67 66 161 66
t161 -66q66 -67 66 -161t-66 -161q-67 -67 -161 -67v0zM682 3185q-94 0 -161 67q-66 67 -66 161t66 161q67 66 161 66t161 -66q67 -67 67 -161t-67 -161t-161 -67v0zM2503 3185q-95 0 -161 67q-67 67 -67 161t67 161q66 66 161 66q94 0 161 -66q66 -67 66 -161t-66 -161
q-67 -67 -161 -67v0zM682 3640q-94 0 -161 67q-66 67 -66 161t66 161q67 67 161 67t161 -67t67 -161t-67 -161t-161 -67v0zM1137 3640q-94 0 -161 67q-66 67 -66 161t66 161q67 67 161 67t161 -67t67 -161t-67 -161t-161 -67v0zM1592 3640q-94 0 -161 67q-66 67 -66 161
t66 161q67 67 161 67q95 0 161 -67q67 -67 67 -161t-67 -161q-66 -67 -161 -67v0zM2048 3640q-95 0 -162 67q-66 67 -66 161t66 161q67 67 162 67q94 0 161 -67q66 -67 66 -161t-66 -161q-67 -67 -161 -67v0z" />
    <glyph glyph-name="E" unicode="E" 
d="M682 0q-94 0 -161 66q-66 67 -66 161t66 161q67 67 161 67t161 -67t67 -161t-67 -161q-67 -66 -161 -66v0zM1137 0q-94 0 -161 66q-66 67 -66 161t66 161q67 67 161 67t161 -67t67 -161t-67 -161q-67 -66 -161 -66v0zM1592 0q-94 0 -161 66q-66 67 -66 161t66 161
q67 67 161 67q95 0 161 -67q67 -67 67 -161t-67 -161q-66 -66 -161 -66v0zM2048 0q-95 0 -162 66q-66 67 -66 161t66 161q67 67 162 67q94 0 161 -67q66 -67 66 -161t-66 -161q-67 -66 -161 -66v0zM2503 0q-95 0 -161 66q-67 67 -67 161t67 161q66 67 161 67q94 0 161 -67
q66 -67 66 -161t-66 -161q-67 -66 -161 -66v0zM2958 0q-94 0 -161 66q-67 67 -67 161t67 161t161 67t161 -67q66 -67 66 -161t-66 -161q-67 -66 -161 -66v0zM682 455q-94 0 -161 66q-66 67 -66 161t66 161q67 67 161 67t161 -67t67 -161t-67 -161q-67 -66 -161 -66v0z
M682 910q-94 0 -161 66q-66 67 -66 161t66 161q67 67 161 67t161 -67t67 -161t-67 -161q-67 -66 -161 -66v0zM682 1365q-94 0 -161 66q-66 67 -66 161q0 95 66 161q67 67 161 67t161 -67q67 -66 67 -161q0 -94 -67 -161q-67 -66 -161 -66v0zM682 1820q-94 0 -161 66
q-66 67 -66 162q0 94 66 161q67 66 161 66t161 -66q67 -67 67 -161q0 -95 -67 -162q-67 -66 -161 -66v0zM1137 1820q-94 0 -161 66q-66 67 -66 162q0 94 66 161q67 66 161 66t161 -66q67 -67 67 -161q0 -95 -67 -162q-67 -66 -161 -66v0zM1592 1820q-94 0 -161 66
q-66 67 -66 162q0 94 66 161q67 66 161 66q95 0 161 -66q67 -67 67 -161q0 -95 -67 -162q-66 -66 -161 -66v0zM2048 1820q-95 0 -162 66q-66 67 -66 162q0 94 66 161q67 66 162 66q94 0 161 -66q66 -67 66 -161q0 -95 -66 -162q-67 -66 -161 -66v0zM2503 1820q-95 0 -161 66
q-67 67 -67 162q0 94 67 161q66 66 161 66q94 0 161 -66q66 -67 66 -161q0 -95 -66 -162q-67 -66 -161 -66v0zM682 2275q-94 0 -161 67q-66 66 -66 161q0 94 66 161q67 66 161 66t161 -66q67 -67 67 -161q0 -95 -67 -161q-67 -67 -161 -67v0zM682 2730q-94 0 -161 67
q-66 67 -66 161t66 161q67 66 161 66t161 -66q67 -67 67 -161t-67 -161t-161 -67v0zM682 3185q-94 0 -161 67q-66 67 -66 161t66 161q67 66 161 66t161 -66q67 -67 67 -161t-67 -161t-161 -67v0zM682 3640q-94 0 -161 67q-66 67 -66 161t66 161q67 67 161 67t161 -67
t67 -161t-67 -161t-161 -67v0zM1137 3640q-94 0 -161 67q-66 67 -66 161t66 161q67 67 161 67t161 -67t67 -161t-67 -161t-161 -67v0zM1592 3640q-94 0 -161 67q-66 67 -66 161t66 161q67 67 161 67q95 0 161 -67q67 -67 67 -161t-67 -161q-66 -67 -161 -67v0zM2048 3640
q-95 0 -162 67q-66 67 -66 161t66 161q67 67 162 67q94 0 161 -67q66 -67 66 -161t-66 -161q-67 -67 -161 -67v0zM2503 3640q-95 0 -161 67q-67 67 -67 161t67 161q66 67 161 67q94 0 161 -67q66 -67 66 -161t-66 -161q-67 -67 -161 -67v0zM2958 3640q-94 0 -161 67t-67 161
t67 161t161 67t161 -67q66 -67 66 -161t-66 -161q-67 -67 -161 -67v0z" />
    <glyph glyph-name="F" unicode="F" 
d="M682 0q-94 0 -161 66q-66 67 -66 161t66 161q67 67 161 67t161 -67t67 -161t-67 -161q-67 -66 -161 -66v0zM682 455q-94 0 -161 66q-66 67 -66 161t66 161q67 67 161 67t161 -67t67 -161t-67 -161q-67 -66 -161 -66v0zM682 910q-94 0 -161 66q-66 67 -66 161t66 161
q67 67 161 67t161 -67t67 -161t-67 -161q-67 -66 -161 -66v0zM682 1365q-94 0 -161 66q-66 67 -66 161q0 95 66 161q67 67 161 67t161 -67q67 -66 67 -161q0 -94 -67 -161q-67 -66 -161 -66v0zM682 1820q-94 0 -161 66q-66 67 -66 162q0 94 66 161q67 66 161 66t161 -66
q67 -67 67 -161q0 -95 -67 -162q-67 -66 -161 -66v0zM1137 1820q-94 0 -161 66q-66 67 -66 162q0 94 66 161q67 66 161 66t161 -66q67 -67 67 -161q0 -95 -67 -162q-67 -66 -161 -66v0zM1592 1820q-94 0 -161 66q-66 67 -66 162q0 94 66 161q67 66 161 66q95 0 161 -66
q67 -67 67 -161q0 -95 -67 -162q-66 -66 -161 -66v0zM2048 1820q-95 0 -162 66q-66 67 -66 162q0 94 66 161q67 66 162 66q94 0 161 -66q66 -67 66 -161q0 -95 -66 -162q-67 -66 -161 -66v0zM2503 1820q-95 0 -161 66q-67 67 -67 162q0 94 67 161q66 66 161 66q94 0 161 -66
q66 -67 66 -161q0 -95 -66 -162q-67 -66 -161 -66v0zM682 2275q-94 0 -161 67q-66 66 -66 161q0 94 66 161q67 66 161 66t161 -66q67 -67 67 -161q0 -95 -67 -161q-67 -67 -161 -67v0zM682 2730q-94 0 -161 67q-66 67 -66 161t66 161q67 66 161 66t161 -66q67 -67 67 -161
t-67 -161t-161 -67v0zM682 3185q-94 0 -161 67q-66 67 -66 161t66 161q67 66 161 66t161 -66q67 -67 67 -161t-67 -161t-161 -67v0zM682 3640q-94 0 -161 67q-66 67 -66 161t66 161q67 67 161 67t161 -67t67 -161t-67 -161t-161 -67v0zM1137 3640q-94 0 -161 67
q-66 67 -66 161t66 161q67 67 161 67t161 -67t67 -161t-67 -161t-161 -67v0zM1592 3640q-94 0 -161 67q-66 67 -66 161t66 161q67 67 161 67q95 0 161 -67q67 -67 67 -161t-67 -161q-66 -67 -161 -67v0zM2048 3640q-95 0 -162 67q-66 67 -66 161t66 161q67 67 162 67
q94 0 161 -67q66 -67 66 -161t-66 -161q-67 -67 -161 -67v0zM2503 3640q-95 0 -161 67q-67 67 -67 161t67 161q66 67 161 67q94 0 161 -67q66 -67 66 -161t-66 -161q-67 -67 -161 -67v0zM2958 3640q-94 0 -161 67t-67 161t67 161t161 67t161 -67q66 -67 66 -161t-66 -161
q-67 -67 -161 -67v0z" />
    <glyph glyph-name="G" unicode="G" 
d="M1137 0q-94 0 -161 66q-66 67 -66 161t66 161q67 67 161 67t161 -67t67 -161t-67 -161q-67 -66 -161 -66v0zM1592 0q-94 0 -161 66q-66 67 -66 161t66 161q67 67 161 67q95 0 161 -67q67 -67 67 -161t-67 -161q-66 -66 -161 -66v0zM2048 0q-95 0 -162 66q-66 67 -66 161
t66 161q67 67 162 67q94 0 161 -67q66 -67 66 -161t-66 -161q-67 -66 -161 -66v0zM2503 0q-95 0 -161 66q-67 67 -67 161t67 161q66 67 161 67q94 0 161 -67q66 -67 66 -161t-66 -161q-67 -66 -161 -66v0zM682 455q-94 0 -161 66q-66 67 -66 161t66 161q67 67 161 67
t161 -67t67 -161t-67 -161q-67 -66 -161 -66v0zM2958 455q-94 0 -161 66q-67 67 -67 161t67 161t161 67t161 -67q66 -67 66 -161t-66 -161q-67 -66 -161 -66v0zM682 910q-94 0 -161 66q-66 67 -66 161t66 161q67 67 161 67t161 -67t67 -161t-67 -161q-67 -66 -161 -66v0z
M2958 910q-94 0 -161 66q-67 67 -67 161t67 161t161 67t161 -67q66 -67 66 -161t-66 -161q-67 -66 -161 -66v0zM682 1365q-94 0 -161 66q-66 67 -66 161q0 95 66 161q67 67 161 67t161 -67q67 -66 67 -161q0 -94 -67 -161q-67 -66 -161 -66v0zM2503 1365q-95 0 -161 66
q-67 67 -67 161q0 95 67 161q66 67 161 67q94 0 161 -67q66 -66 66 -161q0 -94 -66 -161q-67 -66 -161 -66v0zM2958 1365q-94 0 -161 66q-67 67 -67 161q0 95 67 161q67 67 161 67t161 -67q66 -66 66 -161q0 -94 -66 -161q-67 -66 -161 -66v0zM682 1820q-94 0 -161 66
q-66 67 -66 162q0 94 66 161q67 66 161 66t161 -66q67 -67 67 -161q0 -95 -67 -162q-67 -66 -161 -66v0zM682 2275q-94 0 -161 67q-66 66 -66 161q0 94 66 161q67 66 161 66t161 -66q67 -67 67 -161q0 -95 -67 -161q-67 -67 -161 -67v0zM682 2730q-94 0 -161 67
q-66 67 -66 161t66 161q67 66 161 66t161 -66q67 -67 67 -161t-67 -161t-161 -67v0zM682 3185q-94 0 -161 67q-66 67 -66 161t66 161q67 66 161 66t161 -66q67 -67 67 -161t-67 -161t-161 -67v0zM2958 3185q-94 0 -161 67t-67 161t67 161q67 66 161 66t161 -66
q66 -67 66 -161t-66 -161q-67 -67 -161 -67v0zM1137 3640q-94 0 -161 67q-66 67 -66 161t66 161q67 67 161 67t161 -67t67 -161t-67 -161t-161 -67v0zM1592 3640q-94 0 -161 67q-66 67 -66 161t66 161q67 67 161 67q95 0 161 -67q67 -67 67 -161t-67 -161q-66 -67 -161 -67
v0zM2048 3640q-95 0 -162 67q-66 67 -66 161t66 161q67 67 162 67q94 0 161 -67q66 -67 66 -161t-66 -161q-67 -67 -161 -67v0zM2503 3640q-95 0 -161 67q-67 67 -67 161t67 161q66 67 161 67q94 0 161 -67q66 -67 66 -161t-66 -161q-67 -67 -161 -67v0z" />
    <glyph glyph-name="H" unicode="H" 
d="M682 0q-94 0 -161 66q-66 67 -66 161t66 161q67 67 161 67t161 -67t67 -161t-67 -161q-67 -66 -161 -66v0zM2958 0q-94 0 -161 66q-67 67 -67 161t67 161t161 67t161 -67q66 -67 66 -161t-66 -161q-67 -66 -161 -66v0zM682 455q-94 0 -161 66q-66 67 -66 161t66 161
q67 67 161 67t161 -67t67 -161t-67 -161q-67 -66 -161 -66v0zM2958 455q-94 0 -161 66q-67 67 -67 161t67 161t161 67t161 -67q66 -67 66 -161t-66 -161q-67 -66 -161 -66v0zM682 910q-94 0 -161 66q-66 67 -66 161t66 161q67 67 161 67t161 -67t67 -161t-67 -161
q-67 -66 -161 -66v0zM2958 910q-94 0 -161 66q-67 67 -67 161t67 161t161 67t161 -67q66 -67 66 -161t-66 -161q-67 -66 -161 -66v0zM682 1365q-94 0 -161 66q-66 67 -66 161q0 95 66 161q67 67 161 67t161 -67q67 -66 67 -161q0 -94 -67 -161q-67 -66 -161 -66v0z
M2958 1365q-94 0 -161 66q-67 67 -67 161q0 95 67 161q67 67 161 67t161 -67q66 -66 66 -161q0 -94 -66 -161q-67 -66 -161 -66v0zM682 1820q-94 0 -161 66q-66 67 -66 162q0 94 66 161q67 66 161 66t161 -66q67 -67 67 -161q0 -95 -67 -162q-67 -66 -161 -66v0zM1137 1820
q-94 0 -161 66q-66 67 -66 162q0 94 66 161q67 66 161 66t161 -66q67 -67 67 -161q0 -95 -67 -162q-67 -66 -161 -66v0zM1592 1820q-94 0 -161 66q-66 67 -66 162q0 94 66 161q67 66 161 66q95 0 161 -66q67 -67 67 -161q0 -95 -67 -162q-66 -66 -161 -66v0zM2048 1820
q-95 0 -162 66q-66 67 -66 162q0 94 66 161q67 66 162 66q94 0 161 -66q66 -67 66 -161q0 -95 -66 -162q-67 -66 -161 -66v0zM2503 1820q-95 0 -161 66q-67 67 -67 162q0 94 67 161q66 66 161 66q94 0 161 -66q66 -67 66 -161q0 -95 -66 -162q-67 -66 -161 -66v0zM2958 1820
q-94 0 -161 66q-67 67 -67 162q0 94 67 161q67 66 161 66t161 -66q66 -67 66 -161q0 -95 -66 -162q-67 -66 -161 -66v0zM682 2275q-94 0 -161 67q-66 66 -66 161q0 94 66 161q67 66 161 66t161 -66q67 -67 67 -161q0 -95 -67 -161q-67 -67 -161 -67v0zM2958 2275
q-94 0 -161 67q-67 66 -67 161q0 94 67 161q67 66 161 66t161 -66q66 -67 66 -161q0 -95 -66 -161q-67 -67 -161 -67v0zM682 2730q-94 0 -161 67q-66 67 -66 161t66 161q67 66 161 66t161 -66q67 -67 67 -161t-67 -161t-161 -67v0zM2958 2730q-94 0 -161 67t-67 161t67 161
q67 66 161 66t161 -66q66 -67 66 -161t-66 -161q-67 -67 -161 -67v0zM682 3185q-94 0 -161 67q-66 67 -66 161t66 161q67 66 161 66t161 -66q67 -67 67 -161t-67 -161t-161 -67v0zM2958 3185q-94 0 -161 67t-67 161t67 161q67 66 161 66t161 -66q66 -67 66 -161t-66 -161
q-67 -67 -161 -67v0zM682 3640q-94 0 -161 67q-66 67 -66 161t66 161q67 67 161 67t161 -67t67 -161t-67 -161t-161 -67v0zM2958 3640q-94 0 -161 67t-67 161t67 161t161 67t161 -67q66 -67 66 -161t-66 -161q-67 -67 -161 -67v0z" />
    <glyph glyph-name="I" unicode="I" 
d="M682 0q-94 0 -161 66q-66 67 -66 161t66 161q67 67 161 67t161 -67t67 -161t-67 -161q-67 -66 -161 -66v0zM1137 0q-94 0 -161 66q-66 67 -66 161t66 161q67 67 161 67t161 -67t67 -161t-67 -161q-67 -66 -161 -66v0zM1592 0q-94 0 -161 66q-66 67 -66 161t66 161
q67 67 161 67q95 0 161 -67q67 -67 67 -161t-67 -161q-66 -66 -161 -66v0zM2048 0q-95 0 -162 66q-66 67 -66 161t66 161q67 67 162 67q94 0 161 -67q66 -67 66 -161t-66 -161q-67 -66 -161 -66v0zM2503 0q-95 0 -161 66q-67 67 -67 161t67 161q66 67 161 67q94 0 161 -67
q66 -67 66 -161t-66 -161q-67 -66 -161 -66v0zM2958 0q-94 0 -161 66q-67 67 -67 161t67 161t161 67t161 -67q66 -67 66 -161t-66 -161q-67 -66 -161 -66v0zM1592 455q-94 0 -161 66q-66 67 -66 161t66 161q67 67 161 67q95 0 161 -67q67 -67 67 -161t-67 -161
q-66 -66 -161 -66v0zM1592 910q-94 0 -161 66q-66 67 -66 161t66 161q67 67 161 67q95 0 161 -67q67 -67 67 -161t-67 -161q-66 -66 -161 -66v0zM1592 1365q-94 0 -161 66q-66 67 -66 161q0 95 66 161q67 67 161 67q95 0 161 -67q67 -66 67 -161q0 -94 -67 -161
q-66 -66 -161 -66v0zM1592 1820q-94 0 -161 66q-66 67 -66 162q0 94 66 161q67 66 161 66q95 0 161 -66q67 -67 67 -161q0 -95 -67 -162q-66 -66 -161 -66v0zM1592 2275q-94 0 -161 67q-66 66 -66 161q0 94 66 161q67 66 161 66q95 0 161 -66q67 -67 67 -161q0 -95 -67 -161
q-66 -67 -161 -67v0zM1592 2730q-94 0 -161 67q-66 67 -66 161t66 161q67 66 161 66q95 0 161 -66q67 -67 67 -161t-67 -161q-66 -67 -161 -67v0zM1592 3185q-94 0 -161 67q-66 67 -66 161t66 161q67 66 161 66q95 0 161 -66q67 -67 67 -161t-67 -161q-66 -67 -161 -67v0z
M682 3640q-94 0 -161 67q-66 67 -66 161t66 161q67 67 161 67t161 -67t67 -161t-67 -161t-161 -67v0zM1137 3640q-94 0 -161 67q-66 67 -66 161t66 161q67 67 161 67t161 -67t67 -161t-67 -161t-161 -67v0zM1592 3640q-94 0 -161 67q-66 67 -66 161t66 161q67 67 161 67
q95 0 161 -67q67 -67 67 -161t-67 -161q-66 -67 -161 -67v0zM2048 3640q-95 0 -162 67q-66 67 -66 161t66 161q67 67 162 67q94 0 161 -67q66 -67 66 -161t-66 -161q-67 -67 -161 -67v0zM2503 3640q-95 0 -161 67q-67 67 -67 161t67 161q66 67 161 67q94 0 161 -67
q66 -67 66 -161t-66 -161q-67 -67 -161 -67v0zM2958 3640q-94 0 -161 67t-67 161t67 161t161 67t161 -67q66 -67 66 -161t-66 -161q-67 -67 -161 -67v0z" />
    <glyph glyph-name="J" unicode="J" 
d="M1137 0q-94 0 -161 66q-66 67 -66 161t66 161q67 67 161 67t161 -67t67 -161t-67 -161q-67 -66 -161 -66v0zM1592 0q-94 0 -161 66q-66 67 -66 161t66 161q67 67 161 67q95 0 161 -67q67 -67 67 -161t-67 -161q-66 -66 -161 -66v0zM2048 0q-95 0 -162 66q-66 67 -66 161
t66 161q67 67 162 67q94 0 161 -67q66 -67 66 -161t-66 -161q-67 -66 -161 -66v0zM2503 0q-95 0 -161 66q-67 67 -67 161t67 161q66 67 161 67q94 0 161 -67q66 -67 66 -161t-66 -161q-67 -66 -161 -66v0zM682 455q-94 0 -161 66q-66 67 -66 161t66 161q67 67 161 67
t161 -67t67 -161t-67 -161q-67 -66 -161 -66v0zM2958 455q-94 0 -161 66q-67 67 -67 161t67 161t161 67t161 -67q66 -67 66 -161t-66 -161q-67 -66 -161 -66v0zM682 910q-94 0 -161 66q-66 67 -66 161t66 161q67 67 161 67t161 -67t67 -161t-67 -161q-67 -66 -161 -66v0z
M2958 910q-94 0 -161 66q-67 67 -67 161t67 161t161 67t161 -67q66 -67 66 -161t-66 -161q-67 -66 -161 -66v0zM2958 1365q-94 0 -161 66q-67 67 -67 161q0 95 67 161q67 67 161 67t161 -67q66 -66 66 -161q0 -94 -66 -161q-67 -66 -161 -66v0zM2958 1820q-94 0 -161 66
q-67 67 -67 162q0 94 67 161q67 66 161 66t161 -66q66 -67 66 -161q0 -95 -66 -162q-67 -66 -161 -66v0zM2958 2275q-94 0 -161 67q-67 66 -67 161q0 94 67 161q67 66 161 66t161 -66q66 -67 66 -161q0 -95 -66 -161q-67 -67 -161 -67v0zM2958 2730q-94 0 -161 67t-67 161
t67 161q67 66 161 66t161 -66q66 -67 66 -161t-66 -161q-67 -67 -161 -67v0zM2958 3185q-94 0 -161 67t-67 161t67 161q67 66 161 66t161 -66q66 -67 66 -161t-66 -161q-67 -67 -161 -67v0zM2958 3640q-94 0 -161 67t-67 161t67 161t161 67t161 -67q66 -67 66 -161t-66 -161
q-67 -67 -161 -67v0z" />
    <glyph glyph-name="K" unicode="K" 
d="M682 0q-94 0 -161 66q-66 67 -66 161t66 161q67 67 161 67t161 -67t67 -161t-67 -161q-67 -66 -161 -66v0zM2958 0q-94 0 -161 66q-67 67 -67 161t67 161t161 67t161 -67q66 -67 66 -161t-66 -161q-67 -66 -161 -66v0zM682 455q-94 0 -161 66q-66 67 -66 161t66 161
q67 67 161 67t161 -67t67 -161t-67 -161q-67 -66 -161 -66v0zM2503 455q-95 0 -161 66q-67 67 -67 161t67 161q66 67 161 67q94 0 161 -67q66 -67 66 -161t-66 -161q-67 -66 -161 -66v0zM682 910q-94 0 -161 66q-66 67 -66 161t66 161q67 67 161 67t161 -67t67 -161
t-67 -161q-67 -66 -161 -66v0zM2048 910q-95 0 -162 66q-66 67 -66 161t66 161q67 67 162 67q94 0 161 -67q66 -67 66 -161t-66 -161q-67 -66 -161 -66v0zM682 1365q-94 0 -161 66q-66 67 -66 161q0 95 66 161q67 67 161 67t161 -67q67 -66 67 -161q0 -94 -67 -161
q-67 -66 -161 -66v0zM1592 1365q-94 0 -161 66q-66 67 -66 161q0 95 66 161q67 67 161 67q95 0 161 -67q67 -66 67 -161q0 -94 -67 -161q-66 -66 -161 -66v0zM682 1820q-94 0 -161 66q-66 67 -66 162q0 94 66 161q67 66 161 66t161 -66q67 -67 67 -161q0 -95 -67 -162
q-67 -66 -161 -66v0zM1137 1820q-94 0 -161 66q-66 67 -66 162q0 94 66 161q67 66 161 66t161 -66q67 -67 67 -161q0 -95 -67 -162q-67 -66 -161 -66v0zM682 2275q-94 0 -161 67q-66 66 -66 161q0 94 66 161q67 66 161 66t161 -66q67 -67 67 -161q0 -95 -67 -161
q-67 -67 -161 -67v0zM1592 2275q-94 0 -161 67q-66 66 -66 161q0 94 66 161q67 66 161 66q95 0 161 -66q67 -67 67 -161q0 -95 -67 -161q-66 -67 -161 -67v0zM682 2730q-94 0 -161 67q-66 67 -66 161t66 161q67 66 161 66t161 -66q67 -67 67 -161t-67 -161t-161 -67v0z
M2048 2730q-95 0 -162 67q-66 67 -66 161t66 161q67 66 162 66q94 0 161 -66q66 -67 66 -161t-66 -161q-67 -67 -161 -67v0zM682 3185q-94 0 -161 67q-66 67 -66 161t66 161q67 66 161 66t161 -66q67 -67 67 -161t-67 -161t-161 -67v0zM2503 3185q-95 0 -161 67
q-67 67 -67 161t67 161q66 66 161 66q94 0 161 -66q66 -67 66 -161t-66 -161q-67 -67 -161 -67v0zM682 3640q-94 0 -161 67q-66 67 -66 161t66 161q67 67 161 67t161 -67t67 -161t-67 -161t-161 -67v0zM2958 3640q-94 0 -161 67t-67 161t67 161t161 67t161 -67
q66 -67 66 -161t-66 -161q-67 -67 -161 -67v0z" />
    <glyph glyph-name="L" unicode="L" 
d="M682 0q-94 0 -161 66q-66 67 -66 161t66 161q67 67 161 67t161 -67t67 -161t-67 -161q-67 -66 -161 -66v0zM1137 0q-94 0 -161 66q-66 67 -66 161t66 161q67 67 161 67t161 -67t67 -161t-67 -161q-67 -66 -161 -66v0zM1592 0q-94 0 -161 66q-66 67 -66 161t66 161
q67 67 161 67q95 0 161 -67q67 -67 67 -161t-67 -161q-66 -66 -161 -66v0zM2048 0q-95 0 -162 66q-66 67 -66 161t66 161q67 67 162 67q94 0 161 -67q66 -67 66 -161t-66 -161q-67 -66 -161 -66v0zM2503 0q-95 0 -161 66q-67 67 -67 161t67 161q66 67 161 67q94 0 161 -67
q66 -67 66 -161t-66 -161q-67 -66 -161 -66v0zM2958 0q-94 0 -161 66q-67 67 -67 161t67 161t161 67t161 -67q66 -67 66 -161t-66 -161q-67 -66 -161 -66v0zM682 455q-94 0 -161 66q-66 67 -66 161t66 161q67 67 161 67t161 -67t67 -161t-67 -161q-67 -66 -161 -66v0z
M682 910q-94 0 -161 66q-66 67 -66 161t66 161q67 67 161 67t161 -67t67 -161t-67 -161q-67 -66 -161 -66v0zM682 1365q-94 0 -161 66q-66 67 -66 161q0 95 66 161q67 67 161 67t161 -67q67 -66 67 -161q0 -94 -67 -161q-67 -66 -161 -66v0zM682 1820q-94 0 -161 66
q-66 67 -66 162q0 94 66 161q67 66 161 66t161 -66q67 -67 67 -161q0 -95 -67 -162q-67 -66 -161 -66v0zM682 2275q-94 0 -161 67q-66 66 -66 161q0 94 66 161q67 66 161 66t161 -66q67 -67 67 -161q0 -95 -67 -161q-67 -67 -161 -67v0zM682 2730q-94 0 -161 67
q-66 67 -66 161t66 161q67 66 161 66t161 -66q67 -67 67 -161t-67 -161t-161 -67v0zM682 3185q-94 0 -161 67q-66 67 -66 161t66 161q67 66 161 66t161 -66q67 -67 67 -161t-67 -161t-161 -67v0zM682 3640q-94 0 -161 67q-66 67 -66 161t66 161q67 67 161 67t161 -67
t67 -161t-67 -161t-161 -67v0z" />
    <glyph glyph-name="M" unicode="M" 
d="M682 0q-94 0 -161 66q-66 67 -66 161t66 161q67 67 161 67t161 -67t67 -161t-67 -161q-67 -66 -161 -66v0zM2958 0q-94 0 -161 66q-67 67 -67 161t67 161t161 67t161 -67q66 -67 66 -161t-66 -161q-67 -66 -161 -66v0zM682 455q-94 0 -161 66q-66 67 -66 161t66 161
q67 67 161 67t161 -67t67 -161t-67 -161q-67 -66 -161 -66v0zM2958 455q-94 0 -161 66q-67 67 -67 161t67 161t161 67t161 -67q66 -67 66 -161t-66 -161q-67 -66 -161 -66v0zM682 910q-94 0 -161 66q-66 67 -66 161t66 161q67 67 161 67t161 -67t67 -161t-67 -161
q-67 -66 -161 -66v0zM2958 910q-94 0 -161 66q-67 67 -67 161t67 161t161 67t161 -67q66 -67 66 -161t-66 -161q-67 -66 -161 -66v0zM682 1365q-94 0 -161 66q-66 67 -66 161q0 95 66 161q67 67 161 67t161 -67q67 -66 67 -161q0 -94 -67 -161q-67 -66 -161 -66v0z
M2958 1365q-94 0 -161 66q-67 67 -67 161q0 95 67 161q67 67 161 67t161 -67q66 -66 66 -161q0 -94 -66 -161q-67 -66 -161 -66v0zM682 1820q-94 0 -161 66q-66 67 -66 162q0 94 66 161q67 66 161 66t161 -66q67 -67 67 -161q0 -95 -67 -162q-67 -66 -161 -66v0zM1592 1820
q-94 0 -161 66q-66 67 -66 162q0 94 66 161q67 66 161 66q95 0 161 -66q67 -67 67 -161q0 -95 -67 -162q-66 -66 -161 -66v0zM2048 1820q-95 0 -162 66q-66 67 -66 162q0 94 66 161q67 66 162 66q94 0 161 -66q66 -67 66 -161q0 -95 -66 -162q-67 -66 -161 -66v0zM2958 1820
q-94 0 -161 66q-67 67 -67 162q0 94 67 161q67 66 161 66t161 -66q66 -67 66 -161q0 -95 -66 -162q-67 -66 -161 -66v0zM682 2275q-94 0 -161 67q-66 66 -66 161q0 94 66 161q67 66 161 66t161 -66q67 -67 67 -161q0 -95 -67 -161q-67 -67 -161 -67v0zM1592 2275
q-94 0 -161 67q-66 66 -66 161q0 94 66 161q67 66 161 66q95 0 161 -66q67 -67 67 -161q0 -95 -67 -161q-66 -67 -161 -67v0zM2048 2275q-95 0 -162 67q-66 66 -66 161q0 94 66 161q67 66 162 66q94 0 161 -66q66 -67 66 -161q0 -95 -66 -161q-67 -67 -161 -67v0zM2958 2275
q-94 0 -161 67q-67 66 -67 161q0 94 67 161q67 66 161 66t161 -66q66 -67 66 -161q0 -95 -66 -161q-67 -67 -161 -67v0zM682 2730q-94 0 -161 67q-66 67 -66 161t66 161q67 66 161 66t161 -66q67 -67 67 -161t-67 -161t-161 -67v0zM1137 2730q-94 0 -161 67q-66 67 -66 161
t66 161q67 66 161 66t161 -66q67 -67 67 -161t-67 -161t-161 -67v0zM1592 2730q-94 0 -161 67q-66 67 -66 161t66 161q67 66 161 66q95 0 161 -66q67 -67 67 -161t-67 -161q-66 -67 -161 -67v0zM2048 2730q-95 0 -162 67q-66 67 -66 161t66 161q67 66 162 66q94 0 161 -66
q66 -67 66 -161t-66 -161q-67 -67 -161 -67v0zM2503 2730q-95 0 -161 67q-67 67 -67 161t67 161q66 66 161 66q94 0 161 -66q66 -67 66 -161t-66 -161q-67 -67 -161 -67v0zM2958 2730q-94 0 -161 67t-67 161t67 161q67 66 161 66t161 -66q66 -67 66 -161t-66 -161
q-67 -67 -161 -67v0zM682 3185q-94 0 -161 67q-66 67 -66 161t66 161q67 66 161 66t161 -66q67 -67 67 -161t-67 -161t-161 -67v0zM1137 3185q-94 0 -161 67q-66 67 -66 161t66 161q67 66 161 66t161 -66q67 -67 67 -161t-67 -161t-161 -67v0zM2503 3185q-95 0 -161 67
q-67 67 -67 161t67 161q66 66 161 66q94 0 161 -66q66 -67 66 -161t-66 -161q-67 -67 -161 -67v0zM2958 3185q-94 0 -161 67t-67 161t67 161q67 66 161 66t161 -66q66 -67 66 -161t-66 -161q-67 -67 -161 -67v0zM682 3640q-94 0 -161 67q-66 67 -66 161t66 161q67 67 161 67
t161 -67t67 -161t-67 -161t-161 -67v0zM2958 3640q-94 0 -161 67t-67 161t67 161t161 67t161 -67q66 -67 66 -161t-66 -161q-67 -67 -161 -67v0z" />
    <glyph glyph-name="N" unicode="N" 
d="M682 0q-94 0 -161 66q-66 67 -66 161t66 161q67 67 161 67t161 -67t67 -161t-67 -161q-67 -66 -161 -66v0zM2958 0q-94 0 -161 66q-67 67 -67 161t67 161t161 67t161 -67q66 -67 66 -161t-66 -161q-67 -66 -161 -66v0zM682 455q-94 0 -161 66q-66 67 -66 161t66 161
q67 67 161 67t161 -67t67 -161t-67 -161q-67 -66 -161 -66v0zM2503 455q-95 0 -161 66q-67 67 -67 161t67 161q66 67 161 67q94 0 161 -67q66 -67 66 -161t-66 -161q-67 -66 -161 -66v0zM2958 455q-94 0 -161 66q-67 67 -67 161t67 161t161 67t161 -67q66 -67 66 -161
t-66 -161q-67 -66 -161 -66v0zM682 910q-94 0 -161 66q-66 67 -66 161t66 161q67 67 161 67t161 -67t67 -161t-67 -161q-67 -66 -161 -66v0zM2048 910q-95 0 -162 66q-66 67 -66 161t66 161q67 67 162 67q94 0 161 -67q66 -67 66 -161t-66 -161q-67 -66 -161 -66v0z
M2503 910q-95 0 -161 66q-67 67 -67 161t67 161q66 67 161 67q94 0 161 -67q66 -67 66 -161t-66 -161q-67 -66 -161 -66v0zM2958 910q-94 0 -161 66q-67 67 -67 161t67 161t161 67t161 -67q66 -67 66 -161t-66 -161q-67 -66 -161 -66v0zM682 1365q-94 0 -161 66
q-66 67 -66 161q0 95 66 161q67 67 161 67t161 -67q67 -66 67 -161q0 -94 -67 -161q-67 -66 -161 -66v0zM2048 1365q-95 0 -162 66q-66 67 -66 161q0 95 66 161q67 67 162 67q94 0 161 -67q66 -66 66 -161q0 -94 -66 -161q-67 -66 -161 -66v0zM2958 1365q-94 0 -161 66
q-67 67 -67 161q0 95 67 161q67 67 161 67t161 -67q66 -66 66 -161q0 -94 -66 -161q-67 -66 -161 -66v0zM682 1820q-94 0 -161 66q-66 67 -66 162q0 94 66 161q67 66 161 66t161 -66q67 -67 67 -161q0 -95 -67 -162q-67 -66 -161 -66v0zM1592 1820q-94 0 -161 66
q-66 67 -66 162q0 94 66 161q67 66 161 66q95 0 161 -66q67 -67 67 -161q0 -95 -67 -162q-66 -66 -161 -66v0zM2048 1820q-95 0 -162 66q-66 67 -66 162q0 94 66 161q67 66 162 66q94 0 161 -66q66 -67 66 -161q0 -95 -66 -162q-67 -66 -161 -66v0zM2958 1820q-94 0 -161 66
q-67 67 -67 162q0 94 67 161q67 66 161 66t161 -66q66 -67 66 -161q0 -95 -66 -162q-67 -66 -161 -66v0zM682 2275q-94 0 -161 67q-66 66 -66 161q0 94 66 161q67 66 161 66t161 -66q67 -67 67 -161q0 -95 -67 -161q-67 -67 -161 -67v0zM1592 2275q-94 0 -161 67
q-66 66 -66 161q0 94 66 161q67 66 161 66q95 0 161 -66q67 -67 67 -161q0 -95 -67 -161q-66 -67 -161 -67v0zM2958 2275q-94 0 -161 67q-67 66 -67 161q0 94 67 161q67 66 161 66t161 -66q66 -67 66 -161q0 -95 -66 -161q-67 -67 -161 -67v0zM682 2730q-94 0 -161 67
q-66 67 -66 161t66 161q67 66 161 66t161 -66q67 -67 67 -161t-67 -161t-161 -67v0zM1137 2730q-94 0 -161 67q-66 67 -66 161t66 161q67 66 161 66t161 -66q67 -67 67 -161t-67 -161t-161 -67v0zM1592 2730q-94 0 -161 67q-66 67 -66 161t66 161q67 66 161 66q95 0 161 -66
q67 -67 67 -161t-67 -161q-66 -67 -161 -67v0zM2958 2730q-94 0 -161 67t-67 161t67 161q67 66 161 66t161 -66q66 -67 66 -161t-66 -161q-67 -67 -161 -67v0zM682 3185q-94 0 -161 67q-66 67 -66 161t66 161q67 66 161 66t161 -66q67 -67 67 -161t-67 -161t-161 -67v0z
M1137 3185q-94 0 -161 67q-66 67 -66 161t66 161q67 66 161 66t161 -66q67 -67 67 -161t-67 -161t-161 -67v0zM2958 3185q-94 0 -161 67t-67 161t67 161q67 66 161 66t161 -66q66 -67 66 -161t-66 -161q-67 -67 -161 -67v0zM682 3640q-94 0 -161 67q-66 67 -66 161t66 161
q67 67 161 67t161 -67t67 -161t-67 -161t-161 -67v0zM2958 3640q-94 0 -161 67t-67 161t67 161t161 67t161 -67q66 -67 66 -161t-66 -161q-67 -67 -161 -67v0z" />
    <glyph glyph-name="O" unicode="O" 
d="M1137 0q-94 0 -161 66q-66 67 -66 161t66 161q67 67 161 67t161 -67t67 -161t-67 -161q-67 -66 -161 -66v0zM1592 0q-94 0 -161 66q-66 67 -66 161t66 161q67 67 161 67q95 0 161 -67q67 -67 67 -161t-67 -161q-66 -66 -161 -66v0zM2048 0q-95 0 -162 66q-66 67 -66 161
t66 161q67 67 162 67q94 0 161 -67q66 -67 66 -161t-66 -161q-67 -66 -161 -66v0zM2503 0q-95 0 -161 66q-67 67 -67 161t67 161q66 67 161 67q94 0 161 -67q66 -67 66 -161t-66 -161q-67 -66 -161 -66v0zM682 455q-94 0 -161 66q-66 67 -66 161t66 161q67 67 161 67
t161 -67t67 -161t-67 -161q-67 -66 -161 -66v0zM2958 455q-94 0 -161 66q-67 67 -67 161t67 161t161 67t161 -67q66 -67 66 -161t-66 -161q-67 -66 -161 -66v0zM682 910q-94 0 -161 66q-66 67 -66 161t66 161q67 67 161 67t161 -67t67 -161t-67 -161q-67 -66 -161 -66v0z
M2958 910q-94 0 -161 66q-67 67 -67 161t67 161t161 67t161 -67q66 -67 66 -161t-66 -161q-67 -66 -161 -66v0zM682 1365q-94 0 -161 66q-66 67 -66 161q0 95 66 161q67 67 161 67t161 -67q67 -66 67 -161q0 -94 -67 -161q-67 -66 -161 -66v0zM2958 1365q-94 0 -161 66
q-67 67 -67 161q0 95 67 161q67 67 161 67t161 -67q66 -66 66 -161q0 -94 -66 -161q-67 -66 -161 -66v0zM682 1820q-94 0 -161 66q-66 67 -66 162q0 94 66 161q67 66 161 66t161 -66q67 -67 67 -161q0 -95 -67 -162q-67 -66 -161 -66v0zM2958 1820q-94 0 -161 66
q-67 67 -67 162q0 94 67 161q67 66 161 66t161 -66q66 -67 66 -161q0 -95 -66 -162q-67 -66 -161 -66v0zM682 2275q-94 0 -161 67q-66 66 -66 161q0 94 66 161q67 66 161 66t161 -66q67 -67 67 -161q0 -95 -67 -161q-67 -67 -161 -67v0zM2958 2275q-94 0 -161 67
q-67 66 -67 161q0 94 67 161q67 66 161 66t161 -66q66 -67 66 -161q0 -95 -66 -161q-67 -67 -161 -67v0zM682 2730q-94 0 -161 67q-66 67 -66 161t66 161q67 66 161 66t161 -66q67 -67 67 -161t-67 -161t-161 -67v0zM2958 2730q-94 0 -161 67t-67 161t67 161q67 66 161 66
t161 -66q66 -67 66 -161t-66 -161q-67 -67 -161 -67v0zM682 3185q-94 0 -161 67q-66 67 -66 161t66 161q67 66 161 66t161 -66q67 -67 67 -161t-67 -161t-161 -67v0zM2958 3185q-94 0 -161 67t-67 161t67 161q67 66 161 66t161 -66q66 -67 66 -161t-66 -161
q-67 -67 -161 -67v0zM1137 3640q-94 0 -161 67q-66 67 -66 161t66 161q67 67 161 67t161 -67t67 -161t-67 -161t-161 -67v0zM1592 3640q-94 0 -161 67q-66 67 -66 161t66 161q67 67 161 67q95 0 161 -67q67 -67 67 -161t-67 -161q-66 -67 -161 -67v0zM2048 3640
q-95 0 -162 67q-66 67 -66 161t66 161q67 67 162 67q94 0 161 -67q66 -67 66 -161t-66 -161q-67 -67 -161 -67v0zM2503 3640q-95 0 -161 67q-67 67 -67 161t67 161q66 67 161 67q94 0 161 -67q66 -67 66 -161t-66 -161q-67 -67 -161 -67v0z" />
    <glyph glyph-name="P" unicode="P" 
d="M682 0q-94 0 -161 66q-66 67 -66 161t66 161q67 67 161 67t161 -67t67 -161t-67 -161q-67 -66 -161 -66v0zM682 455q-94 0 -161 66q-66 67 -66 161t66 161q67 67 161 67t161 -67t67 -161t-67 -161q-67 -66 -161 -66v0zM682 910q-94 0 -161 66q-66 67 -66 161t66 161
q67 67 161 67t161 -67t67 -161t-67 -161q-67 -66 -161 -66v0zM682 1365q-94 0 -161 66q-66 67 -66 161q0 95 66 161q67 67 161 67t161 -67q67 -66 67 -161q0 -94 -67 -161q-67 -66 -161 -66v0zM682 1820q-94 0 -161 66q-66 67 -66 162q0 94 66 161q67 66 161 66t161 -66
q67 -67 67 -161q0 -95 -67 -162q-67 -66 -161 -66v0zM1137 1820q-94 0 -161 66q-66 67 -66 162q0 94 66 161q67 66 161 66t161 -66q67 -67 67 -161q0 -95 -67 -162q-67 -66 -161 -66v0zM1592 1820q-94 0 -161 66q-66 67 -66 162q0 94 66 161q67 66 161 66q95 0 161 -66
q67 -67 67 -161q0 -95 -67 -162q-66 -66 -161 -66v0zM2048 1820q-95 0 -162 66q-66 67 -66 162q0 94 66 161q67 66 162 66q94 0 161 -66q66 -67 66 -161q0 -95 -66 -162q-67 -66 -161 -66v0zM2503 1820q-95 0 -161 66q-67 67 -67 162q0 94 67 161q66 66 161 66q94 0 161 -66
q66 -67 66 -161q0 -95 -66 -162q-67 -66 -161 -66v0zM682 2275q-94 0 -161 67q-66 66 -66 161q0 94 66 161q67 66 161 66t161 -66q67 -67 67 -161q0 -95 -67 -161q-67 -67 -161 -67v0zM2958 2275q-94 0 -161 67q-67 66 -67 161q0 94 67 161q67 66 161 66t161 -66
q66 -67 66 -161q0 -95 -66 -161q-67 -67 -161 -67v0zM682 2730q-94 0 -161 67q-66 67 -66 161t66 161q67 66 161 66t161 -66q67 -67 67 -161t-67 -161t-161 -67v0zM2958 2730q-94 0 -161 67t-67 161t67 161q67 66 161 66t161 -66q66 -67 66 -161t-66 -161q-67 -67 -161 -67
v0zM682 3185q-94 0 -161 67q-66 67 -66 161t66 161q67 66 161 66t161 -66q67 -67 67 -161t-67 -161t-161 -67v0zM2958 3185q-94 0 -161 67t-67 161t67 161q67 66 161 66t161 -66q66 -67 66 -161t-66 -161q-67 -67 -161 -67v0zM682 3640q-94 0 -161 67q-66 67 -66 161t66 161
q67 67 161 67t161 -67t67 -161t-67 -161t-161 -67v0zM1137 3640q-94 0 -161 67q-66 67 -66 161t66 161q67 67 161 67t161 -67t67 -161t-67 -161t-161 -67v0zM1592 3640q-94 0 -161 67q-66 67 -66 161t66 161q67 67 161 67q95 0 161 -67q67 -67 67 -161t-67 -161
q-66 -67 -161 -67v0zM2048 3640q-95 0 -162 67q-66 67 -66 161t66 161q67 67 162 67q94 0 161 -67q66 -67 66 -161t-66 -161q-67 -67 -161 -67v0zM2503 3640q-95 0 -161 67q-67 67 -67 161t67 161q66 67 161 67q94 0 161 -67q66 -67 66 -161t-66 -161q-67 -67 -161 -67v0z
" />
    <glyph glyph-name="Q" unicode="Q" 
d="M1137 0q-94 0 -161 66q-66 67 -66 161t66 161q67 67 161 67t161 -67t67 -161t-67 -161q-67 -66 -161 -66v0zM1592 0q-94 0 -161 66q-66 67 -66 161t66 161q67 67 161 67q95 0 161 -67q67 -67 67 -161t-67 -161q-66 -66 -161 -66v0zM2048 0q-95 0 -162 66q-66 67 -66 161
t66 161q67 67 162 67q94 0 161 -67q66 -67 66 -161t-66 -161q-67 -66 -161 -66v0zM2503 0q-95 0 -161 66q-67 67 -67 161t67 161q66 67 161 67q94 0 161 -67q66 -67 66 -161t-66 -161q-67 -66 -161 -66v0zM2958 0q-94 0 -161 66q-67 67 -67 161t67 161t161 67t161 -67
q66 -67 66 -161t-66 -161q-67 -66 -161 -66v0zM682 455q-94 0 -161 66q-66 67 -66 161t66 161q67 67 161 67t161 -67t67 -161t-67 -161q-67 -66 -161 -66v0zM2503 455q-95 0 -161 66q-67 67 -67 161t67 161q66 67 161 67q94 0 161 -67q66 -67 66 -161t-66 -161
q-67 -66 -161 -66v0zM2958 455q-94 0 -161 66q-67 67 -67 161t67 161t161 67t161 -67q66 -67 66 -161t-66 -161q-67 -66 -161 -66v0zM682 910q-94 0 -161 66q-66 67 -66 161t66 161q67 67 161 67t161 -67t67 -161t-67 -161q-67 -66 -161 -66v0zM2048 910q-95 0 -162 66
q-66 67 -66 161t66 161q67 67 162 67q94 0 161 -67q66 -67 66 -161t-66 -161q-67 -66 -161 -66v0zM2958 910q-94 0 -161 66q-67 67 -67 161t67 161t161 67t161 -67q66 -67 66 -161t-66 -161q-67 -66 -161 -66v0zM682 1365q-94 0 -161 66q-66 67 -66 161q0 95 66 161
q67 67 161 67t161 -67q67 -66 67 -161q0 -94 -67 -161q-67 -66 -161 -66v0zM2958 1365q-94 0 -161 66q-67 67 -67 161q0 95 67 161q67 67 161 67t161 -67q66 -66 66 -161q0 -94 -66 -161q-67 -66 -161 -66v0zM682 1820q-94 0 -161 66q-66 67 -66 162q0 94 66 161
q67 66 161 66t161 -66q67 -67 67 -161q0 -95 -67 -162q-67 -66 -161 -66v0zM2958 1820q-94 0 -161 66q-67 67 -67 162q0 94 67 161q67 66 161 66t161 -66q66 -67 66 -161q0 -95 -66 -162q-67 -66 -161 -66v0zM682 2275q-94 0 -161 67q-66 66 -66 161q0 94 66 161
q67 66 161 66t161 -66q67 -67 67 -161q0 -95 -67 -161q-67 -67 -161 -67v0zM2958 2275q-94 0 -161 67q-67 66 -67 161q0 94 67 161q67 66 161 66t161 -66q66 -67 66 -161q0 -95 -66 -161q-67 -67 -161 -67v0zM682 2730q-94 0 -161 67q-66 67 -66 161t66 161q67 66 161 66
t161 -66q67 -67 67 -161t-67 -161t-161 -67v0zM2958 2730q-94 0 -161 67t-67 161t67 161q67 66 161 66t161 -66q66 -67 66 -161t-66 -161q-67 -67 -161 -67v0zM682 3185q-94 0 -161 67q-66 67 -66 161t66 161q67 66 161 66t161 -66q67 -67 67 -161t-67 -161t-161 -67v0z
M2958 3185q-94 0 -161 67t-67 161t67 161q67 66 161 66t161 -66q66 -67 66 -161t-66 -161q-67 -67 -161 -67v0zM1137 3640q-94 0 -161 67q-66 67 -66 161t66 161q67 67 161 67t161 -67t67 -161t-67 -161t-161 -67v0zM1592 3640q-94 0 -161 67q-66 67 -66 161t66 161
q67 67 161 67q95 0 161 -67q67 -67 67 -161t-67 -161q-66 -67 -161 -67v0zM2048 3640q-95 0 -162 67q-66 67 -66 161t66 161q67 67 162 67q94 0 161 -67q66 -67 66 -161t-66 -161q-67 -67 -161 -67v0zM2503 3640q-95 0 -161 67q-67 67 -67 161t67 161q66 67 161 67
q94 0 161 -67q66 -67 66 -161t-66 -161q-67 -67 -161 -67v0z" />
    <glyph glyph-name="R" unicode="R" 
d="M682 0q-94 0 -161 66q-66 67 -66 161t66 161q67 67 161 67t161 -67t67 -161t-67 -161q-67 -66 -161 -66v0zM2958 0q-94 0 -161 66q-67 67 -67 161t67 161t161 67t161 -67q66 -67 66 -161t-66 -161q-67 -66 -161 -66v0zM682 455q-94 0 -161 66q-66 67 -66 161t66 161
q67 67 161 67t161 -67t67 -161t-67 -161q-67 -66 -161 -66v0zM2958 455q-94 0 -161 66q-67 67 -67 161t67 161t161 67t161 -67q66 -67 66 -161t-66 -161q-67 -66 -161 -66v0zM682 910q-94 0 -161 66q-66 67 -66 161t66 161q67 67 161 67t161 -67t67 -161t-67 -161
q-67 -66 -161 -66v0zM2503 910q-95 0 -161 66q-67 67 -67 161t67 161q66 67 161 67q94 0 161 -67q66 -67 66 -161t-66 -161q-67 -66 -161 -66v0zM682 1365q-94 0 -161 66q-66 67 -66 161q0 95 66 161q67 67 161 67t161 -67q67 -66 67 -161q0 -94 -67 -161q-67 -66 -161 -66
v0zM2048 1365q-95 0 -162 66q-66 67 -66 161q0 95 66 161q67 67 162 67q94 0 161 -67q66 -66 66 -161q0 -94 -66 -161q-67 -66 -161 -66v0zM682 1820q-94 0 -161 66q-66 67 -66 162q0 94 66 161q67 66 161 66t161 -66q67 -67 67 -161q0 -95 -67 -162q-67 -66 -161 -66v0z
M1137 1820q-94 0 -161 66q-66 67 -66 162q0 94 66 161q67 66 161 66t161 -66q67 -67 67 -161q0 -95 -67 -162q-67 -66 -161 -66v0zM1592 1820q-94 0 -161 66q-66 67 -66 162q0 94 66 161q67 66 161 66q95 0 161 -66q67 -67 67 -161q0 -95 -67 -162q-66 -66 -161 -66v0z
M2048 1820q-95 0 -162 66q-66 67 -66 162q0 94 66 161q67 66 162 66q94 0 161 -66q66 -67 66 -161q0 -95 -66 -162q-67 -66 -161 -66v0zM2503 1820q-95 0 -161 66q-67 67 -67 162q0 94 67 161q66 66 161 66q94 0 161 -66q66 -67 66 -161q0 -95 -66 -162q-67 -66 -161 -66v0z
M682 2275q-94 0 -161 67q-66 66 -66 161q0 94 66 161q67 66 161 66t161 -66q67 -67 67 -161q0 -95 -67 -161q-67 -67 -161 -67v0zM2958 2275q-94 0 -161 67q-67 66 -67 161q0 94 67 161q67 66 161 66t161 -66q66 -67 66 -161q0 -95 -66 -161q-67 -67 -161 -67v0zM682 2730
q-94 0 -161 67q-66 67 -66 161t66 161q67 66 161 66t161 -66q67 -67 67 -161t-67 -161t-161 -67v0zM2958 2730q-94 0 -161 67t-67 161t67 161q67 66 161 66t161 -66q66 -67 66 -161t-66 -161q-67 -67 -161 -67v0zM682 3185q-94 0 -161 67q-66 67 -66 161t66 161
q67 66 161 66t161 -66q67 -67 67 -161t-67 -161t-161 -67v0zM2958 3185q-94 0 -161 67t-67 161t67 161q67 66 161 66t161 -66q66 -67 66 -161t-66 -161q-67 -67 -161 -67v0zM682 3640q-94 0 -161 67q-66 67 -66 161t66 161q67 67 161 67t161 -67t67 -161t-67 -161t-161 -67
v0zM1137 3640q-94 0 -161 67q-66 67 -66 161t66 161q67 67 161 67t161 -67t67 -161t-67 -161t-161 -67v0zM1592 3640q-94 0 -161 67q-66 67 -66 161t66 161q67 67 161 67q95 0 161 -67q67 -67 67 -161t-67 -161q-66 -67 -161 -67v0zM2048 3640q-95 0 -162 67q-66 67 -66 161
t66 161q67 67 162 67q94 0 161 -67q66 -67 66 -161t-66 -161q-67 -67 -161 -67v0zM2503 3640q-95 0 -161 67q-67 67 -67 161t67 161q66 67 161 67q94 0 161 -67q66 -67 66 -161t-66 -161q-67 -67 -161 -67v0z" />
    <glyph glyph-name="S" unicode="S" 
d="M1137 0q-94 0 -161 66q-66 67 -66 161t66 161q67 67 161 67t161 -67t67 -161t-67 -161q-67 -66 -161 -66v0zM1592 0q-94 0 -161 66q-66 67 -66 161t66 161q67 67 161 67q95 0 161 -67q67 -67 67 -161t-67 -161q-66 -66 -161 -66v0zM2048 0q-95 0 -162 66q-66 67 -66 161
t66 161q67 67 162 67q94 0 161 -67q66 -67 66 -161t-66 -161q-67 -66 -161 -66v0zM2503 0q-95 0 -161 66q-67 67 -67 161t67 161q66 67 161 67q94 0 161 -67q66 -67 66 -161t-66 -161q-67 -66 -161 -66v0zM682 455q-94 0 -161 66q-66 67 -66 161t66 161q67 67 161 67
t161 -67t67 -161t-67 -161q-67 -66 -161 -66v0zM2958 455q-94 0 -161 66q-67 67 -67 161t67 161t161 67t161 -67q66 -67 66 -161t-66 -161q-67 -66 -161 -66v0zM2958 910q-94 0 -161 66q-67 67 -67 161t67 161t161 67t161 -67q66 -67 66 -161t-66 -161q-67 -66 -161 -66v0z
M2958 1365q-94 0 -161 66q-67 67 -67 161q0 95 67 161q67 67 161 67t161 -67q66 -66 66 -161q0 -94 -66 -161q-67 -66 -161 -66v0zM1137 1820q-94 0 -161 66q-66 67 -66 162q0 94 66 161q67 66 161 66t161 -66q67 -67 67 -161q0 -95 -67 -162q-67 -66 -161 -66v0zM1592 1820
q-94 0 -161 66q-66 67 -66 162q0 94 66 161q67 66 161 66q95 0 161 -66q67 -67 67 -161q0 -95 -67 -162q-66 -66 -161 -66v0zM2048 1820q-95 0 -162 66q-66 67 -66 162q0 94 66 161q67 66 162 66q94 0 161 -66q66 -67 66 -161q0 -95 -66 -162q-67 -66 -161 -66v0zM2503 1820
q-95 0 -161 66q-67 67 -67 162q0 94 67 161q66 66 161 66q94 0 161 -66q66 -67 66 -161q0 -95 -66 -162q-67 -66 -161 -66v0zM682 2275q-94 0 -161 67q-66 66 -66 161q0 94 66 161q67 66 161 66t161 -66q67 -67 67 -161q0 -95 -67 -161q-67 -67 -161 -67v0zM682 2730
q-94 0 -161 67q-66 67 -66 161t66 161q67 66 161 66t161 -66q67 -67 67 -161t-67 -161t-161 -67v0zM682 3185q-94 0 -161 67q-66 67 -66 161t66 161q67 66 161 66t161 -66q67 -67 67 -161t-67 -161t-161 -67v0zM2958 3185q-94 0 -161 67t-67 161t67 161q67 66 161 66
t161 -66q66 -67 66 -161t-66 -161q-67 -67 -161 -67v0zM1137 3640q-94 0 -161 67q-66 67 -66 161t66 161q67 67 161 67t161 -67t67 -161t-67 -161t-161 -67v0zM1592 3640q-94 0 -161 67q-66 67 -66 161t66 161q67 67 161 67q95 0 161 -67q67 -67 67 -161t-67 -161
q-66 -67 -161 -67v0zM2048 3640q-95 0 -162 67q-66 67 -66 161t66 161q67 67 162 67q94 0 161 -67q66 -67 66 -161t-66 -161q-67 -67 -161 -67v0zM2503 3640q-95 0 -161 67q-67 67 -67 161t67 161q66 67 161 67q94 0 161 -67q66 -67 66 -161t-66 -161q-67 -67 -161 -67v0z
" />
    <glyph glyph-name="T" unicode="T" 
d="M1592 0q-94 0 -161 66q-66 67 -66 161t66 161q67 67 161 67q95 0 161 -67q67 -67 67 -161t-67 -161q-66 -66 -161 -66v0zM1592 455q-94 0 -161 66q-66 67 -66 161t66 161q67 67 161 67q95 0 161 -67q67 -67 67 -161t-67 -161q-66 -66 -161 -66v0zM1592 910q-94 0 -161 66
q-66 67 -66 161t66 161q67 67 161 67q95 0 161 -67q67 -67 67 -161t-67 -161q-66 -66 -161 -66v0zM1592 1365q-94 0 -161 66q-66 67 -66 161q0 95 66 161q67 67 161 67q95 0 161 -67q67 -66 67 -161q0 -94 -67 -161q-66 -66 -161 -66v0zM1592 1820q-94 0 -161 66
q-66 67 -66 162q0 94 66 161q67 66 161 66q95 0 161 -66q67 -67 67 -161q0 -95 -67 -162q-66 -66 -161 -66v0zM1592 2275q-94 0 -161 67q-66 66 -66 161q0 94 66 161q67 66 161 66q95 0 161 -66q67 -67 67 -161q0 -95 -67 -161q-66 -67 -161 -67v0zM1592 2730q-94 0 -161 67
q-66 67 -66 161t66 161q67 66 161 66q95 0 161 -66q67 -67 67 -161t-67 -161q-66 -67 -161 -67v0zM1592 3185q-94 0 -161 67q-66 67 -66 161t66 161q67 66 161 66q95 0 161 -66q67 -67 67 -161t-67 -161q-66 -67 -161 -67v0zM682 3640q-94 0 -161 67q-66 67 -66 161t66 161
q67 67 161 67t161 -67t67 -161t-67 -161t-161 -67v0zM1137 3640q-94 0 -161 67q-66 67 -66 161t66 161q67 67 161 67t161 -67t67 -161t-67 -161t-161 -67v0zM1592 3640q-94 0 -161 67q-66 67 -66 161t66 161q67 67 161 67q95 0 161 -67q67 -67 67 -161t-67 -161
q-66 -67 -161 -67v0zM2048 3640q-95 0 -162 67q-66 67 -66 161t66 161q67 67 162 67q94 0 161 -67q66 -67 66 -161t-66 -161q-67 -67 -161 -67v0zM2503 3640q-95 0 -161 67q-67 67 -67 161t67 161q66 67 161 67q94 0 161 -67q66 -67 66 -161t-66 -161q-67 -67 -161 -67v0z
M2958 3640q-94 0 -161 67t-67 161t67 161t161 67t161 -67q66 -67 66 -161t-66 -161q-67 -67 -161 -67v0z" />
    <glyph glyph-name="U" unicode="U" 
d="M1137 0q-94 0 -161 66q-66 67 -66 161t66 161q67 67 161 67t161 -67t67 -161t-67 -161q-67 -66 -161 -66v0zM1592 0q-94 0 -161 66q-66 67 -66 161t66 161q67 67 161 67q95 0 161 -67q67 -67 67 -161t-67 -161q-66 -66 -161 -66v0zM2048 0q-95 0 -162 66q-66 67 -66 161
t66 161q67 67 162 67q94 0 161 -67q66 -67 66 -161t-66 -161q-67 -66 -161 -66v0zM2503 0q-95 0 -161 66q-67 67 -67 161t67 161q66 67 161 67q94 0 161 -67q66 -67 66 -161t-66 -161q-67 -66 -161 -66v0zM682 455q-94 0 -161 66q-66 67 -66 161t66 161q67 67 161 67
t161 -67t67 -161t-67 -161q-67 -66 -161 -66v0zM2958 455q-94 0 -161 66q-67 67 -67 161t67 161t161 67t161 -67q66 -67 66 -161t-66 -161q-67 -66 -161 -66v0zM682 910q-94 0 -161 66q-66 67 -66 161t66 161q67 67 161 67t161 -67t67 -161t-67 -161q-67 -66 -161 -66v0z
M2958 910q-94 0 -161 66q-67 67 -67 161t67 161t161 67t161 -67q66 -67 66 -161t-66 -161q-67 -66 -161 -66v0zM682 1365q-94 0 -161 66q-66 67 -66 161q0 95 66 161q67 67 161 67t161 -67q67 -66 67 -161q0 -94 -67 -161q-67 -66 -161 -66v0zM2958 1365q-94 0 -161 66
q-67 67 -67 161q0 95 67 161q67 67 161 67t161 -67q66 -66 66 -161q0 -94 -66 -161q-67 -66 -161 -66v0zM682 1820q-94 0 -161 66q-66 67 -66 162q0 94 66 161q67 66 161 66t161 -66q67 -67 67 -161q0 -95 -67 -162q-67 -66 -161 -66v0zM2958 1820q-94 0 -161 66
q-67 67 -67 162q0 94 67 161q67 66 161 66t161 -66q66 -67 66 -161q0 -95 -66 -162q-67 -66 -161 -66v0zM682 2275q-94 0 -161 67q-66 66 -66 161q0 94 66 161q67 66 161 66t161 -66q67 -67 67 -161q0 -95 -67 -161q-67 -67 -161 -67v0zM2958 2275q-94 0 -161 67
q-67 66 -67 161q0 94 67 161q67 66 161 66t161 -66q66 -67 66 -161q0 -95 -66 -161q-67 -67 -161 -67v0zM682 2730q-94 0 -161 67q-66 67 -66 161t66 161q67 66 161 66t161 -66q67 -67 67 -161t-67 -161t-161 -67v0zM2958 2730q-94 0 -161 67t-67 161t67 161q67 66 161 66
t161 -66q66 -67 66 -161t-66 -161q-67 -67 -161 -67v0zM682 3185q-94 0 -161 67q-66 67 -66 161t66 161q67 66 161 66t161 -66q67 -67 67 -161t-67 -161t-161 -67v0zM2958 3185q-94 0 -161 67t-67 161t67 161q67 66 161 66t161 -66q66 -67 66 -161t-66 -161
q-67 -67 -161 -67v0zM682 3640q-94 0 -161 67q-66 67 -66 161t66 161q67 67 161 67t161 -67t67 -161t-67 -161t-161 -67v0zM2958 3640q-94 0 -161 67t-67 161t67 161t161 67t161 -67q66 -67 66 -161t-66 -161q-67 -67 -161 -67v0z" />
    <glyph glyph-name="V" unicode="V" 
d="M1592 0q-94 0 -161 66q-66 67 -66 161t66 161q67 67 161 67q95 0 161 -67q67 -67 67 -161t-67 -161q-66 -66 -161 -66v0zM2048 0q-95 0 -162 66q-66 67 -66 161t66 161q67 67 162 67q94 0 161 -67q66 -67 66 -161t-66 -161q-67 -66 -161 -66v0zM1137 455q-94 0 -161 66
q-66 67 -66 161t66 161q67 67 161 67t161 -67t67 -161t-67 -161q-67 -66 -161 -66v0zM2503 455q-95 0 -161 66q-67 67 -67 161t67 161q66 67 161 67q94 0 161 -67q66 -67 66 -161t-66 -161q-67 -66 -161 -66v0zM1137 910q-94 0 -161 66q-66 67 -66 161t66 161q67 67 161 67
t161 -67t67 -161t-67 -161q-67 -66 -161 -66v0zM2503 910q-95 0 -161 66q-67 67 -67 161t67 161q66 67 161 67q94 0 161 -67q66 -67 66 -161t-66 -161q-67 -66 -161 -66v0zM682 1365q-94 0 -161 66q-66 67 -66 161q0 95 66 161q67 67 161 67t161 -67q67 -66 67 -161
q0 -94 -67 -161q-67 -66 -161 -66v0zM2958 1365q-94 0 -161 66q-67 67 -67 161q0 95 67 161q67 67 161 67t161 -67q66 -66 66 -161q0 -94 -66 -161q-67 -66 -161 -66v0zM682 1820q-94 0 -161 66q-66 67 -66 162q0 94 66 161q67 66 161 66t161 -66q67 -67 67 -161
q0 -95 -67 -162q-67 -66 -161 -66v0zM2958 1820q-94 0 -161 66q-67 67 -67 162q0 94 67 161q67 66 161 66t161 -66q66 -67 66 -161q0 -95 -66 -162q-67 -66 -161 -66v0zM682 2275q-94 0 -161 67q-66 66 -66 161q0 94 66 161q67 66 161 66t161 -66q67 -67 67 -161
q0 -95 -67 -161q-67 -67 -161 -67v0zM2958 2275q-94 0 -161 67q-67 66 -67 161q0 94 67 161q67 66 161 66t161 -66q66 -67 66 -161q0 -95 -66 -161q-67 -67 -161 -67v0zM682 2730q-94 0 -161 67q-66 67 -66 161t66 161q67 66 161 66t161 -66q67 -67 67 -161t-67 -161
t-161 -67v0zM2958 2730q-94 0 -161 67t-67 161t67 161q67 66 161 66t161 -66q66 -67 66 -161t-66 -161q-67 -67 -161 -67v0zM682 3185q-94 0 -161 67q-66 67 -66 161t66 161q67 66 161 66t161 -66q67 -67 67 -161t-67 -161t-161 -67v0zM2958 3185q-94 0 -161 67t-67 161
t67 161q67 66 161 66t161 -66q66 -67 66 -161t-66 -161q-67 -67 -161 -67v0zM682 3640q-94 0 -161 67q-66 67 -66 161t66 161q67 67 161 67t161 -67t67 -161t-67 -161t-161 -67v0zM2958 3640q-94 0 -161 67t-67 161t67 161t161 67t161 -67q66 -67 66 -161t-66 -161
q-67 -67 -161 -67v0z" />
    <glyph glyph-name="W" unicode="W" 
d="M1137 0q-94 0 -161 66q-66 67 -66 161t66 161q67 67 161 67t161 -67t67 -161t-67 -161q-67 -66 -161 -66v0zM2503 0q-95 0 -161 66q-67 67 -67 161t67 161q66 67 161 67q94 0 161 -67q66 -67 66 -161t-66 -161q-67 -66 -161 -66v0zM1137 455q-94 0 -161 66
q-66 67 -66 161t66 161q67 67 161 67t161 -67t67 -161t-67 -161q-67 -66 -161 -66v0zM2503 455q-95 0 -161 66q-67 67 -67 161t67 161q66 67 161 67q94 0 161 -67q66 -67 66 -161t-66 -161q-67 -66 -161 -66v0zM682 910q-94 0 -161 66q-66 67 -66 161t66 161q67 67 161 67
t161 -67t67 -161t-67 -161q-67 -66 -161 -66v0zM1137 910q-94 0 -161 66q-66 67 -66 161t66 161q67 67 161 67t161 -67t67 -161t-67 -161q-67 -66 -161 -66v0zM1592 910q-94 0 -161 66q-66 67 -66 161t66 161q67 67 161 67q95 0 161 -67q67 -67 67 -161t-67 -161
q-66 -66 -161 -66v0zM2048 910q-95 0 -162 66q-66 67 -66 161t66 161q67 67 162 67q94 0 161 -67q66 -67 66 -161t-66 -161q-67 -66 -161 -66v0zM2503 910q-95 0 -161 66q-67 67 -67 161t67 161q66 67 161 67q94 0 161 -67q66 -67 66 -161t-66 -161q-67 -66 -161 -66v0z
M2958 910q-94 0 -161 66q-67 67 -67 161t67 161t161 67t161 -67q66 -67 66 -161t-66 -161q-67 -66 -161 -66v0zM682 1365q-94 0 -161 66q-66 67 -66 161q0 95 66 161q67 67 161 67t161 -67q67 -66 67 -161q0 -94 -67 -161q-67 -66 -161 -66v0zM1592 1365q-94 0 -161 66
q-66 67 -66 161q0 95 66 161q67 67 161 67q95 0 161 -67q67 -66 67 -161q0 -94 -67 -161q-66 -66 -161 -66v0zM2048 1365q-95 0 -162 66q-66 67 -66 161q0 95 66 161q67 67 162 67q94 0 161 -67q66 -66 66 -161q0 -94 -66 -161q-67 -66 -161 -66v0zM2958 1365q-94 0 -161 66
q-67 67 -67 161q0 95 67 161q67 67 161 67t161 -67q66 -66 66 -161q0 -94 -66 -161q-67 -66 -161 -66v0zM682 1820q-94 0 -161 66q-66 67 -66 162q0 94 66 161q67 66 161 66t161 -66q67 -67 67 -161q0 -95 -67 -162q-67 -66 -161 -66v0zM1592 1820q-94 0 -161 66
q-66 67 -66 162q0 94 66 161q67 66 161 66q95 0 161 -66q67 -67 67 -161q0 -95 -67 -162q-66 -66 -161 -66v0zM2048 1820q-95 0 -162 66q-66 67 -66 162q0 94 66 161q67 66 162 66q94 0 161 -66q66 -67 66 -161q0 -95 -66 -162q-67 -66 -161 -66v0zM2958 1820q-94 0 -161 66
q-67 67 -67 162q0 94 67 161q67 66 161 66t161 -66q66 -67 66 -161q0 -95 -66 -162q-67 -66 -161 -66v0zM682 2275q-94 0 -161 67q-66 66 -66 161q0 94 66 161q67 66 161 66t161 -66q67 -67 67 -161q0 -95 -67 -161q-67 -67 -161 -67v0zM1592 2275q-94 0 -161 67
q-66 66 -66 161q0 94 66 161q67 66 161 66q95 0 161 -66q67 -67 67 -161q0 -95 -67 -161q-66 -67 -161 -67v0zM2048 2275q-95 0 -162 67q-66 66 -66 161q0 94 66 161q67 66 162 66q94 0 161 -66q66 -67 66 -161q0 -95 -66 -161q-67 -67 -161 -67v0zM2958 2275q-94 0 -161 67
q-67 66 -67 161q0 94 67 161q67 66 161 66t161 -66q66 -67 66 -161q0 -95 -66 -161q-67 -67 -161 -67v0zM682 2730q-94 0 -161 67q-66 67 -66 161t66 161q67 66 161 66t161 -66q67 -67 67 -161t-67 -161t-161 -67v0zM2958 2730q-94 0 -161 67t-67 161t67 161q67 66 161 66
t161 -66q66 -67 66 -161t-66 -161q-67 -67 -161 -67v0zM682 3185q-94 0 -161 67q-66 67 -66 161t66 161q67 66 161 66t161 -66q67 -67 67 -161t-67 -161t-161 -67v0zM2958 3185q-94 0 -161 67t-67 161t67 161q67 66 161 66t161 -66q66 -67 66 -161t-66 -161
q-67 -67 -161 -67v0zM682 3640q-94 0 -161 67q-66 67 -66 161t66 161q67 67 161 67t161 -67t67 -161t-67 -161t-161 -67v0zM2958 3640q-94 0 -161 67t-67 161t67 161t161 67t161 -67q66 -67 66 -161t-66 -161q-67 -67 -161 -67v0z" />
    <glyph glyph-name="X" unicode="X" 
d="M682 0q-94 0 -161 66q-66 67 -66 161t66 161q67 67 161 67t161 -67t67 -161t-67 -161q-67 -66 -161 -66v0zM2958 0q-94 0 -161 66q-67 67 -67 161t67 161t161 67t161 -67q66 -67 66 -161t-66 -161q-67 -66 -161 -66v0zM682 455q-94 0 -161 66q-66 67 -66 161t66 161
q67 67 161 67t161 -67t67 -161t-67 -161q-67 -66 -161 -66v0zM2958 455q-94 0 -161 66q-67 67 -67 161t67 161t161 67t161 -67q66 -67 66 -161t-66 -161q-67 -66 -161 -66v0zM1137 910q-94 0 -161 66q-66 67 -66 161t66 161q67 67 161 67t161 -67t67 -161t-67 -161
q-67 -66 -161 -66v0zM2503 910q-95 0 -161 66q-67 67 -67 161t67 161q66 67 161 67q94 0 161 -67q66 -67 66 -161t-66 -161q-67 -66 -161 -66v0zM1592 1365q-94 0 -161 66q-66 67 -66 161q0 95 66 161q67 67 161 67q95 0 161 -67q67 -66 67 -161q0 -94 -67 -161
q-66 -66 -161 -66v0zM2048 1365q-95 0 -162 66q-66 67 -66 161q0 95 66 161q67 67 162 67q94 0 161 -67q66 -66 66 -161q0 -94 -66 -161q-67 -66 -161 -66v0zM1592 1820q-94 0 -161 66q-66 67 -66 162q0 94 66 161q67 66 161 66q95 0 161 -66q67 -67 67 -161q0 -95 -67 -162
q-66 -66 -161 -66v0zM2048 1820q-95 0 -162 66q-66 67 -66 162q0 94 66 161q67 66 162 66q94 0 161 -66q66 -67 66 -161q0 -95 -66 -162q-67 -66 -161 -66v0zM1592 2275q-94 0 -161 67q-66 66 -66 161q0 94 66 161q67 66 161 66q95 0 161 -66q67 -67 67 -161q0 -95 -67 -161
q-66 -67 -161 -67v0zM2048 2275q-95 0 -162 67q-66 66 -66 161q0 94 66 161q67 66 162 66q94 0 161 -66q66 -67 66 -161q0 -95 -66 -161q-67 -67 -161 -67v0zM1137 2730q-94 0 -161 67q-66 67 -66 161t66 161q67 66 161 66t161 -66q67 -67 67 -161t-67 -161t-161 -67v0z
M2503 2730q-95 0 -161 67q-67 67 -67 161t67 161q66 66 161 66q94 0 161 -66q66 -67 66 -161t-66 -161q-67 -67 -161 -67v0zM682 3185q-94 0 -161 67q-66 67 -66 161t66 161q67 66 161 66t161 -66q67 -67 67 -161t-67 -161t-161 -67v0zM2958 3185q-94 0 -161 67t-67 161
t67 161q67 66 161 66t161 -66q66 -67 66 -161t-66 -161q-67 -67 -161 -67v0zM682 3640q-94 0 -161 67q-66 67 -66 161t66 161q67 67 161 67t161 -67t67 -161t-67 -161t-161 -67v0zM2958 3640q-94 0 -161 67t-67 161t67 161t161 67t161 -67q66 -67 66 -161t-66 -161
q-67 -67 -161 -67v0z" />
    <glyph glyph-name="Y" unicode="Y" 
d="M1592 0q-94 0 -161 66q-66 67 -66 161t66 161q67 67 161 67q95 0 161 -67q67 -67 67 -161t-67 -161q-66 -66 -161 -66v0zM1592 455q-94 0 -161 66q-66 67 -66 161t66 161q67 67 161 67q95 0 161 -67q67 -67 67 -161t-67 -161q-66 -66 -161 -66v0zM1592 910q-94 0 -161 66
q-66 67 -66 161t66 161q67 67 161 67q95 0 161 -67q67 -67 67 -161t-67 -161q-66 -66 -161 -66v0zM1592 1365q-94 0 -161 66q-66 67 -66 161q0 95 66 161q67 67 161 67q95 0 161 -67q67 -66 67 -161q0 -94 -67 -161q-66 -66 -161 -66v0zM1592 1820q-94 0 -161 66
q-66 67 -66 162q0 94 66 161q67 66 161 66q95 0 161 -66q67 -67 67 -161q0 -95 -67 -162q-66 -66 -161 -66v0zM2048 1820q-95 0 -162 66q-66 67 -66 162q0 94 66 161q67 66 162 66q94 0 161 -66q66 -67 66 -161q0 -95 -66 -162q-67 -66 -161 -66v0zM1137 2275q-94 0 -161 67
q-66 66 -66 161q0 94 66 161q67 66 161 66t161 -66q67 -67 67 -161q0 -95 -67 -161q-67 -67 -161 -67v0zM2503 2275q-95 0 -161 67q-67 66 -67 161q0 94 67 161q66 66 161 66q94 0 161 -66q66 -67 66 -161q0 -95 -66 -161q-67 -67 -161 -67v0zM682 2730q-94 0 -161 67
q-66 67 -66 161t66 161q67 66 161 66t161 -66q67 -67 67 -161t-67 -161t-161 -67v0zM2958 2730q-94 0 -161 67t-67 161t67 161q67 66 161 66t161 -66q66 -67 66 -161t-66 -161q-67 -67 -161 -67v0zM682 3185q-94 0 -161 67q-66 67 -66 161t66 161q67 66 161 66t161 -66
q67 -67 67 -161t-67 -161t-161 -67v0zM2958 3185q-94 0 -161 67t-67 161t67 161q67 66 161 66t161 -66q66 -67 66 -161t-66 -161q-67 -67 -161 -67v0zM682 3640q-94 0 -161 67q-66 67 -66 161t66 161q67 67 161 67t161 -67t67 -161t-67 -161t-161 -67v0zM2958 3640
q-94 0 -161 67t-67 161t67 161t161 67t161 -67q66 -67 66 -161t-66 -161q-67 -67 -161 -67v0z" />
    <glyph glyph-name="Z" unicode="Z" 
d="M682 0q-94 0 -161 66q-66 67 -66 161t66 161q67 67 161 67t161 -67t67 -161t-67 -161q-67 -66 -161 -66v0zM1137 0q-94 0 -161 66q-66 67 -66 161t66 161q67 67 161 67t161 -67t67 -161t-67 -161q-67 -66 -161 -66v0zM1592 0q-94 0 -161 66q-66 67 -66 161t66 161
q67 67 161 67q95 0 161 -67q67 -67 67 -161t-67 -161q-66 -66 -161 -66v0zM2048 0q-95 0 -162 66q-66 67 -66 161t66 161q67 67 162 67q94 0 161 -67q66 -67 66 -161t-66 -161q-67 -66 -161 -66v0zM2503 0q-95 0 -161 66q-67 67 -67 161t67 161q66 67 161 67q94 0 161 -67
q66 -67 66 -161t-66 -161q-67 -66 -161 -66v0zM2958 0q-94 0 -161 66q-67 67 -67 161t67 161t161 67t161 -67q66 -67 66 -161t-66 -161q-67 -66 -161 -66v0zM682 455q-94 0 -161 66q-66 67 -66 161t66 161q67 67 161 67t161 -67t67 -161t-67 -161q-67 -66 -161 -66v0z
M682 910q-94 0 -161 66q-66 67 -66 161t66 161q67 67 161 67t161 -67t67 -161t-67 -161q-67 -66 -161 -66v0zM1137 910q-94 0 -161 66q-66 67 -66 161t66 161q67 67 161 67t161 -67t67 -161t-67 -161q-67 -66 -161 -66v0zM1137 1365q-94 0 -161 66q-66 67 -66 161
q0 95 66 161q67 67 161 67t161 -67q67 -66 67 -161q0 -94 -67 -161q-67 -66 -161 -66v0zM1592 1365q-94 0 -161 66q-66 67 -66 161q0 95 66 161q67 67 161 67q95 0 161 -67q67 -66 67 -161q0 -94 -67 -161q-66 -66 -161 -66v0zM1592 1820q-94 0 -161 66q-66 67 -66 162
q0 94 66 161q67 66 161 66q95 0 161 -66q67 -67 67 -161q0 -95 -67 -162q-66 -66 -161 -66v0zM2048 1820q-95 0 -162 66q-66 67 -66 162q0 94 66 161q67 66 162 66q94 0 161 -66q66 -67 66 -161q0 -95 -66 -162q-67 -66 -161 -66v0zM2048 2275q-95 0 -162 67q-66 66 -66 161
q0 94 66 161q67 66 162 66q94 0 161 -66q66 -67 66 -161q0 -95 -66 -161q-67 -67 -161 -67v0zM2503 2275q-95 0 -161 67q-67 66 -67 161q0 94 67 161q66 66 161 66q94 0 161 -66q66 -67 66 -161q0 -95 -66 -161q-67 -67 -161 -67v0zM2503 2730q-95 0 -161 67q-67 67 -67 161
t67 161q66 66 161 66q94 0 161 -66q66 -67 66 -161t-66 -161q-67 -67 -161 -67v0zM2958 2730q-94 0 -161 67t-67 161t67 161q67 66 161 66t161 -66q66 -67 66 -161t-66 -161q-67 -67 -161 -67v0zM2958 3185q-94 0 -161 67t-67 161t67 161q67 66 161 66t161 -66
q66 -67 66 -161t-66 -161q-67 -67 -161 -67v0zM682 3640q-94 0 -161 67q-66 67 -66 161t66 161q67 67 161 67t161 -67t67 -161t-67 -161t-161 -67v0zM1137 3640q-94 0 -161 67q-66 67 -66 161t66 161q67 67 161 67t161 -67t67 -161t-67 -161t-161 -67v0zM1592 3640
q-94 0 -161 67q-66 67 -66 161t66 161q67 67 161 67q95 0 161 -67q67 -67 67 -161t-67 -161q-66 -67 -161 -67v0zM2048 3640q-95 0 -162 67q-66 67 -66 161t66 161q67 67 162 67q94 0 161 -67q66 -67 66 -161t-66 -161q-67 -67 -161 -67v0zM2503 3640q-95 0 -161 67
q-67 67 -67 161t67 161q66 67 161 67q94 0 161 -67q66 -67 66 -161t-66 -161q-67 -67 -161 -67v0zM2958 3640q-94 0 -161 67t-67 161t67 161t161 67t161 -67q66 -67 66 -161t-66 -161q-67 -67 -161 -67v0z" />
    <glyph glyph-name="bracketleft" unicode="[" horiz-adv-x="2730" 
d="M1137 0q-94 0 -161 66q-66 67 -66 161t66 161q67 67 161 67t161 -67t67 -161t-67 -161q-67 -66 -161 -66v0zM1592 0q-94 0 -161 66q-66 67 -66 161t66 161q67 67 161 67q95 0 161 -67q67 -67 67 -161t-67 -161q-66 -66 -161 -66v0zM2048 0q-95 0 -162 66q-66 67 -66 161
t66 161q67 67 162 67q94 0 161 -67q66 -67 66 -161t-66 -161q-67 -66 -161 -66v0zM1137 455q-94 0 -161 66q-66 67 -66 161t66 161q67 67 161 67t161 -67t67 -161t-67 -161q-67 -66 -161 -66v0zM1137 910q-94 0 -161 66q-66 67 -66 161t66 161q67 67 161 67t161 -67t67 -161
t-67 -161q-67 -66 -161 -66v0zM1137 1365q-94 0 -161 66q-66 67 -66 161q0 95 66 161q67 67 161 67t161 -67q67 -66 67 -161q0 -94 -67 -161q-67 -66 -161 -66v0zM1137 1820q-94 0 -161 66q-66 67 -66 162q0 94 66 161q67 66 161 66t161 -66q67 -67 67 -161q0 -95 -67 -162
q-67 -66 -161 -66v0zM1137 2275q-94 0 -161 67q-66 66 -66 161q0 94 66 161q67 66 161 66t161 -66q67 -67 67 -161q0 -95 -67 -161q-67 -67 -161 -67v0zM1137 2730q-94 0 -161 67q-66 67 -66 161t66 161q67 66 161 66t161 -66q67 -67 67 -161t-67 -161t-161 -67v0z
M1137 3185q-94 0 -161 67q-66 67 -66 161t66 161q67 66 161 66t161 -66q67 -67 67 -161t-67 -161t-161 -67v0zM1137 3640q-94 0 -161 67q-66 67 -66 161t66 161q67 67 161 67t161 -67t67 -161t-67 -161t-161 -67v0zM1592 3640q-94 0 -161 67q-66 67 -66 161t66 161
q67 67 161 67q95 0 161 -67q67 -67 67 -161t-67 -161q-66 -67 -161 -67v0zM2048 3640q-95 0 -162 67q-66 67 -66 161t66 161q67 67 162 67q94 0 161 -67q66 -67 66 -161t-66 -161q-67 -67 -161 -67v0z" />
    <glyph glyph-name="backslash" unicode="\" 
d="M3413 0q-94 0 -161 66q-67 67 -67 161t67 161t161 67t161 -67q66 -67 66 -161t-66 -161q-67 -66 -161 -66v0zM2958 455q-94 0 -161 66q-67 67 -67 161t67 161t161 67t161 -67q66 -67 66 -161t-66 -161q-67 -66 -161 -66v0zM3413 455q-94 0 -161 66q-67 67 -67 161t67 161
t161 67t161 -67q66 -67 66 -161t-66 -161q-67 -66 -161 -66v0zM2503 910q-95 0 -161 66q-67 67 -67 161t67 161q66 67 161 67q94 0 161 -67q66 -67 66 -161t-66 -161q-67 -66 -161 -66v0zM2958 910q-94 0 -161 66q-67 67 -67 161t67 161t161 67t161 -67q66 -67 66 -161
t-66 -161q-67 -66 -161 -66v0zM2048 1365q-95 0 -162 66q-66 67 -66 161q0 95 66 161q67 67 162 67q94 0 161 -67q66 -66 66 -161q0 -94 -66 -161q-67 -66 -161 -66v0zM2503 1365q-95 0 -161 66q-67 67 -67 161q0 95 67 161q66 67 161 67q94 0 161 -67q66 -66 66 -161
q0 -94 -66 -161q-67 -66 -161 -66v0zM1592 1820q-94 0 -161 66q-66 67 -66 162q0 94 66 161q67 66 161 66q95 0 161 -66q67 -67 67 -161q0 -95 -67 -162q-66 -66 -161 -66v0zM2048 1820q-95 0 -162 66q-66 67 -66 162q0 94 66 161q67 66 162 66q94 0 161 -66q66 -67 66 -161
q0 -95 -66 -162q-67 -66 -161 -66v0zM1137 2275q-94 0 -161 67q-66 66 -66 161q0 94 66 161q67 66 161 66t161 -66q67 -67 67 -161q0 -95 -67 -161q-67 -67 -161 -67v0zM1592 2275q-94 0 -161 67q-66 66 -66 161q0 94 66 161q67 66 161 66q95 0 161 -66q67 -67 67 -161
q0 -95 -67 -161q-66 -67 -161 -67v0zM682 2730q-94 0 -161 67q-66 67 -66 161t66 161q67 66 161 66t161 -66q67 -67 67 -161t-67 -161t-161 -67v0zM1137 2730q-94 0 -161 67q-66 67 -66 161t66 161q67 66 161 66t161 -66q67 -67 67 -161t-67 -161t-161 -67v0zM227 3185
q-94 0 -161 67q-66 67 -66 161t66 161q67 66 161 66t161 -66q67 -67 67 -161t-67 -161t-161 -67v0zM682 3185q-94 0 -161 67q-66 67 -66 161t66 161q67 66 161 66t161 -66q67 -67 67 -161t-67 -161t-161 -67v0zM227 3640q-94 0 -161 67q-66 67 -66 161t66 161q67 67 161 67
t161 -67t67 -161t-67 -161t-161 -67v0z" />
    <glyph glyph-name="bracketright" unicode="]" horiz-adv-x="2730" 
d="M1137 0q-94 0 -161 66q-66 67 -66 161t66 161q67 67 161 67t161 -67t67 -161t-67 -161q-67 -66 -161 -66v0zM1592 0q-94 0 -161 66q-66 67 -66 161t66 161q67 67 161 67q95 0 161 -67q67 -67 67 -161t-67 -161q-66 -66 -161 -66v0zM2048 0q-95 0 -162 66q-66 67 -66 161
t66 161q67 67 162 67q94 0 161 -67q66 -67 66 -161t-66 -161q-67 -66 -161 -66v0zM2048 455q-95 0 -162 66q-66 67 -66 161t66 161q67 67 162 67q94 0 161 -67q66 -67 66 -161t-66 -161q-67 -66 -161 -66v0zM2048 910q-95 0 -162 66q-66 67 -66 161t66 161q67 67 162 67
q94 0 161 -67q66 -67 66 -161t-66 -161q-67 -66 -161 -66v0zM2048 1365q-95 0 -162 66q-66 67 -66 161q0 95 66 161q67 67 162 67q94 0 161 -67q66 -66 66 -161q0 -94 -66 -161q-67 -66 -161 -66v0zM2048 1820q-95 0 -162 66q-66 67 -66 162q0 94 66 161q67 66 162 66
q94 0 161 -66q66 -67 66 -161q0 -95 -66 -162q-67 -66 -161 -66v0zM2048 2275q-95 0 -162 67q-66 66 -66 161q0 94 66 161q67 66 162 66q94 0 161 -66q66 -67 66 -161q0 -95 -66 -161q-67 -67 -161 -67v0zM2048 2730q-95 0 -162 67q-66 67 -66 161t66 161q67 66 162 66
q94 0 161 -66q66 -67 66 -161t-66 -161q-67 -67 -161 -67v0zM2048 3185q-95 0 -162 67q-66 67 -66 161t66 161q67 66 162 66q94 0 161 -66q66 -67 66 -161t-66 -161q-67 -67 -161 -67v0zM1137 3640q-94 0 -161 67q-66 67 -66 161t66 161q67 67 161 67t161 -67t67 -161
t-67 -161t-161 -67v0zM1592 3640q-94 0 -161 67q-66 67 -66 161t66 161q67 67 161 67q95 0 161 -67q67 -67 67 -161t-67 -161q-66 -67 -161 -67v0zM2048 3640q-95 0 -162 67q-66 67 -66 161t66 161q67 67 162 67q94 0 161 -67q66 -67 66 -161t-66 -161q-67 -67 -161 -67v0z
" />
    <glyph glyph-name="asciicircum" unicode="^" horiz-adv-x="2730" 
d="M1137 4551q-94 0 -161 66q-66 67 -66 161t66 161q67 67 161 67t161 -67t67 -161t-67 -161q-67 -66 -161 -66v0zM2048 4551q-95 0 -162 66q-66 67 -66 161t66 161q67 67 162 67q94 0 161 -67q66 -67 66 -161t-66 -161q-67 -66 -161 -66v0zM1592 5006q-94 0 -161 66
q-66 67 -66 161t66 161q67 67 161 67q95 0 161 -67q67 -67 67 -161t-67 -161q-66 -66 -161 -66v0z" />
    <glyph glyph-name="underscore" unicode="_" 
d="M682 0q-94 0 -161 66q-66 67 -66 161t66 161q67 67 161 67t161 -67t67 -161t-67 -161q-67 -66 -161 -66v0zM1137 0q-94 0 -161 66q-66 67 -66 161t66 161q67 67 161 67t161 -67t67 -161t-67 -161q-67 -66 -161 -66v0zM1592 0q-94 0 -161 66q-66 67 -66 161t66 161
q67 67 161 67q95 0 161 -67q67 -67 67 -161t-67 -161q-66 -66 -161 -66v0zM2048 0q-95 0 -162 66q-66 67 -66 161t66 161q67 67 162 67q94 0 161 -67q66 -67 66 -161t-66 -161q-67 -66 -161 -66v0zM2503 0q-95 0 -161 66q-67 67 -67 161t67 161q66 67 161 67q94 0 161 -67
q66 -67 66 -161t-66 -161q-67 -66 -161 -66v0zM2958 0q-94 0 -161 66q-67 67 -67 161t67 161t161 67t161 -67q66 -67 66 -161t-66 -161q-67 -66 -161 -66v0z" />
    <glyph glyph-name="grave" unicode="`" horiz-adv-x="2730" 
d="M1592 4551q-94 0 -161 66q-66 67 -66 161t66 161q67 67 161 67q95 0 161 -67q67 -67 67 -161t-67 -161q-66 -66 -161 -66v0zM2048 4551q-95 0 -162 66q-66 67 -66 161t66 161q67 67 162 67q94 0 161 -67q66 -67 66 -161t-66 -161q-67 -66 -161 -66v0zM1137 5006
q-94 0 -161 66q-66 67 -66 161t66 161q67 67 161 67t161 -67t67 -161t-67 -161q-67 -66 -161 -66v0z" />
    <glyph glyph-name="a" unicode="a" 
d="M682 0q-94 0 -161 66q-66 67 -66 161t66 161q67 67 161 67t161 -67t67 -161t-67 -161q-67 -66 -161 -66v0zM2958 0q-94 0 -161 66q-67 67 -67 161t67 161t161 67t161 -67q66 -67 66 -161t-66 -161q-67 -66 -161 -66v0zM682 455q-94 0 -161 66q-66 67 -66 161t66 161
q67 67 161 67t161 -67t67 -161t-67 -161q-67 -66 -161 -66v0zM2958 455q-94 0 -161 66q-67 67 -67 161t67 161t161 67t161 -67q66 -67 66 -161t-66 -161q-67 -66 -161 -66v0zM682 910q-94 0 -161 66q-66 67 -66 161t66 161q67 67 161 67t161 -67t67 -161t-67 -161
q-67 -66 -161 -66v0zM2958 910q-94 0 -161 66q-67 67 -67 161t67 161t161 67t161 -67q66 -67 66 -161t-66 -161q-67 -66 -161 -66v0zM682 1365q-94 0 -161 66q-66 67 -66 161q0 95 66 161q67 67 161 67t161 -67q67 -66 67 -161q0 -94 -67 -161q-67 -66 -161 -66v0z
M1137 1365q-94 0 -161 66q-66 67 -66 161q0 95 66 161q67 67 161 67t161 -67q67 -66 67 -161q0 -94 -67 -161q-67 -66 -161 -66v0zM1592 1365q-94 0 -161 66q-66 67 -66 161q0 95 66 161q67 67 161 67q95 0 161 -67q67 -66 67 -161q0 -94 -67 -161q-66 -66 -161 -66v0z
M2048 1365q-95 0 -162 66q-66 67 -66 161q0 95 66 161q67 67 162 67q94 0 161 -67q66 -66 66 -161q0 -94 -66 -161q-67 -66 -161 -66v0zM2503 1365q-95 0 -161 66q-67 67 -67 161q0 95 67 161q66 67 161 67q94 0 161 -67q66 -66 66 -161q0 -94 -66 -161q-67 -66 -161 -66v0z
M2958 1365q-94 0 -161 66q-67 67 -67 161q0 95 67 161q67 67 161 67t161 -67q66 -66 66 -161q0 -94 -66 -161q-67 -66 -161 -66v0zM682 1820q-94 0 -161 66q-66 67 -66 162q0 94 66 161q67 66 161 66t161 -66q67 -67 67 -161q0 -95 -67 -162q-67 -66 -161 -66v0zM2958 1820
q-94 0 -161 66q-67 67 -67 162q0 94 67 161q67 66 161 66t161 -66q66 -67 66 -161q0 -95 -66 -162q-67 -66 -161 -66v0zM682 2275q-94 0 -161 67q-66 66 -66 161q0 94 66 161q67 66 161 66t161 -66q67 -67 67 -161q0 -95 -67 -161q-67 -67 -161 -67v0zM2958 2275
q-94 0 -161 67q-67 66 -67 161q0 94 67 161q67 66 161 66t161 -66q66 -67 66 -161q0 -95 -66 -161q-67 -67 -161 -67v0zM682 2730q-94 0 -161 67q-66 67 -66 161t66 161q67 66 161 66t161 -66q67 -67 67 -161t-67 -161t-161 -67v0zM2958 2730q-94 0 -161 67t-67 161t67 161
q67 66 161 66t161 -66q66 -67 66 -161t-66 -161q-67 -67 -161 -67v0zM682 3185q-94 0 -161 67q-66 67 -66 161t66 161q67 66 161 66t161 -66q67 -67 67 -161t-67 -161t-161 -67v0zM2958 3185q-94 0 -161 67t-67 161t67 161q67 66 161 66t161 -66q66 -67 66 -161t-66 -161
q-67 -67 -161 -67v0zM1137 3640q-94 0 -161 67q-66 67 -66 161t66 161q67 67 161 67t161 -67t67 -161t-67 -161t-161 -67v0zM1592 3640q-94 0 -161 67q-66 67 -66 161t66 161q67 67 161 67q95 0 161 -67q67 -67 67 -161t-67 -161q-66 -67 -161 -67v0zM2048 3640
q-95 0 -162 67q-66 67 -66 161t66 161q67 67 162 67q94 0 161 -67q66 -67 66 -161t-66 -161q-67 -67 -161 -67v0zM2503 3640q-95 0 -161 67q-67 67 -67 161t67 161q66 67 161 67q94 0 161 -67q66 -67 66 -161t-66 -161q-67 -67 -161 -67v0z" />
    <glyph glyph-name="b" unicode="b" 
d="M682 0q-94 0 -161 66q-66 67 -66 161t66 161q67 67 161 67t161 -67t67 -161t-67 -161q-67 -66 -161 -66v0zM1137 0q-94 0 -161 66q-66 67 -66 161t66 161q67 67 161 67t161 -67t67 -161t-67 -161q-67 -66 -161 -66v0zM1592 0q-94 0 -161 66q-66 67 -66 161t66 161
q67 67 161 67q95 0 161 -67q67 -67 67 -161t-67 -161q-66 -66 -161 -66v0zM2048 0q-95 0 -162 66q-66 67 -66 161t66 161q67 67 162 67q94 0 161 -67q66 -67 66 -161t-66 -161q-67 -66 -161 -66v0zM2503 0q-95 0 -161 66q-67 67 -67 161t67 161q66 67 161 67q94 0 161 -67
q66 -67 66 -161t-66 -161q-67 -66 -161 -66v0zM682 455q-94 0 -161 66q-66 67 -66 161t66 161q67 67 161 67t161 -67t67 -161t-67 -161q-67 -66 -161 -66v0zM2958 455q-94 0 -161 66q-67 67 -67 161t67 161t161 67t161 -67q66 -67 66 -161t-66 -161q-67 -66 -161 -66v0z
M682 910q-94 0 -161 66q-66 67 -66 161t66 161q67 67 161 67t161 -67t67 -161t-67 -161q-67 -66 -161 -66v0zM2958 910q-94 0 -161 66q-67 67 -67 161t67 161t161 67t161 -67q66 -67 66 -161t-66 -161q-67 -66 -161 -66v0zM682 1365q-94 0 -161 66q-66 67 -66 161
q0 95 66 161q67 67 161 67t161 -67q67 -66 67 -161q0 -94 -67 -161q-67 -66 -161 -66v0zM2958 1365q-94 0 -161 66q-67 67 -67 161q0 95 67 161q67 67 161 67t161 -67q66 -66 66 -161q0 -94 -66 -161q-67 -66 -161 -66v0zM682 1820q-94 0 -161 66q-66 67 -66 162
q0 94 66 161q67 66 161 66t161 -66q67 -67 67 -161q0 -95 -67 -162q-67 -66 -161 -66v0zM1137 1820q-94 0 -161 66q-66 67 -66 162q0 94 66 161q67 66 161 66t161 -66q67 -67 67 -161q0 -95 -67 -162q-67 -66 -161 -66v0zM1592 1820q-94 0 -161 66q-66 67 -66 162
q0 94 66 161q67 66 161 66q95 0 161 -66q67 -67 67 -161q0 -95 -67 -162q-66 -66 -161 -66v0zM2048 1820q-95 0 -162 66q-66 67 -66 162q0 94 66 161q67 66 162 66q94 0 161 -66q66 -67 66 -161q0 -95 -66 -162q-67 -66 -161 -66v0zM2503 1820q-95 0 -161 66q-67 67 -67 162
q0 94 67 161q66 66 161 66q94 0 161 -66q66 -67 66 -161q0 -95 -66 -162q-67 -66 -161 -66v0zM682 2275q-94 0 -161 67q-66 66 -66 161q0 94 66 161q67 66 161 66t161 -66q67 -67 67 -161q0 -95 -67 -161q-67 -67 -161 -67v0zM2958 2275q-94 0 -161 67q-67 66 -67 161
q0 94 67 161q67 66 161 66t161 -66q66 -67 66 -161q0 -95 -66 -161q-67 -67 -161 -67v0zM682 2730q-94 0 -161 67q-66 67 -66 161t66 161q67 66 161 66t161 -66q67 -67 67 -161t-67 -161t-161 -67v0zM2958 2730q-94 0 -161 67t-67 161t67 161q67 66 161 66t161 -66
q66 -67 66 -161t-66 -161q-67 -67 -161 -67v0zM682 3185q-94 0 -161 67q-66 67 -66 161t66 161q67 66 161 66t161 -66q67 -67 67 -161t-67 -161t-161 -67v0zM2958 3185q-94 0 -161 67t-67 161t67 161q67 66 161 66t161 -66q66 -67 66 -161t-66 -161q-67 -67 -161 -67v0z
M682 3640q-94 0 -161 67q-66 67 -66 161t66 161q67 67 161 67t161 -67t67 -161t-67 -161t-161 -67v0zM1137 3640q-94 0 -161 67q-66 67 -66 161t66 161q67 67 161 67t161 -67t67 -161t-67 -161t-161 -67v0zM1592 3640q-94 0 -161 67q-66 67 -66 161t66 161q67 67 161 67
q95 0 161 -67q67 -67 67 -161t-67 -161q-66 -67 -161 -67v0zM2048 3640q-95 0 -162 67q-66 67 -66 161t66 161q67 67 162 67q94 0 161 -67q66 -67 66 -161t-66 -161q-67 -67 -161 -67v0zM2503 3640q-95 0 -161 67q-67 67 -67 161t67 161q66 67 161 67q94 0 161 -67
q66 -67 66 -161t-66 -161q-67 -67 -161 -67v0z" />
    <glyph glyph-name="c" unicode="c" 
d="M1137 0q-94 0 -161 66q-66 67 -66 161t66 161q67 67 161 67t161 -67t67 -161t-67 -161q-67 -66 -161 -66v0zM1592 0q-94 0 -161 66q-66 67 -66 161t66 161q67 67 161 67q95 0 161 -67q67 -67 67 -161t-67 -161q-66 -66 -161 -66v0zM2048 0q-95 0 -162 66q-66 67 -66 161
t66 161q67 67 162 67q94 0 161 -67q66 -67 66 -161t-66 -161q-67 -66 -161 -66v0zM2503 0q-95 0 -161 66q-67 67 -67 161t67 161q66 67 161 67q94 0 161 -67q66 -67 66 -161t-66 -161q-67 -66 -161 -66v0zM682 455q-94 0 -161 66q-66 67 -66 161t66 161q67 67 161 67
t161 -67t67 -161t-67 -161q-67 -66 -161 -66v0zM2958 455q-94 0 -161 66q-67 67 -67 161t67 161t161 67t161 -67q66 -67 66 -161t-66 -161q-67 -66 -161 -66v0zM682 910q-94 0 -161 66q-66 67 -66 161t66 161q67 67 161 67t161 -67t67 -161t-67 -161q-67 -66 -161 -66v0z
M682 1365q-94 0 -161 66q-66 67 -66 161q0 95 66 161q67 67 161 67t161 -67q67 -66 67 -161q0 -94 -67 -161q-67 -66 -161 -66v0zM682 1820q-94 0 -161 66q-66 67 -66 162q0 94 66 161q67 66 161 66t161 -66q67 -67 67 -161q0 -95 -67 -162q-67 -66 -161 -66v0zM682 2275
q-94 0 -161 67q-66 66 -66 161q0 94 66 161q67 66 161 66t161 -66q67 -67 67 -161q0 -95 -67 -161q-67 -67 -161 -67v0zM682 2730q-94 0 -161 67q-66 67 -66 161t66 161q67 66 161 66t161 -66q67 -67 67 -161t-67 -161t-161 -67v0zM682 3185q-94 0 -161 67q-66 67 -66 161
t66 161q67 66 161 66t161 -66q67 -67 67 -161t-67 -161t-161 -67v0zM2958 3185q-94 0 -161 67t-67 161t67 161q67 66 161 66t161 -66q66 -67 66 -161t-66 -161q-67 -67 -161 -67v0zM1137 3640q-94 0 -161 67q-66 67 -66 161t66 161q67 67 161 67t161 -67t67 -161t-67 -161
t-161 -67v0zM1592 3640q-94 0 -161 67q-66 67 -66 161t66 161q67 67 161 67q95 0 161 -67q67 -67 67 -161t-67 -161q-66 -67 -161 -67v0zM2048 3640q-95 0 -162 67q-66 67 -66 161t66 161q67 67 162 67q94 0 161 -67q66 -67 66 -161t-66 -161q-67 -67 -161 -67v0zM2503 3640
q-95 0 -161 67q-67 67 -67 161t67 161q66 67 161 67q94 0 161 -67q66 -67 66 -161t-66 -161q-67 -67 -161 -67v0z" />
    <glyph glyph-name="d" unicode="d" 
d="M682 0q-94 0 -161 66q-66 67 -66 161t66 161q67 67 161 67t161 -67t67 -161t-67 -161q-67 -66 -161 -66v0zM1137 0q-94 0 -161 66q-66 67 -66 161t66 161q67 67 161 67t161 -67t67 -161t-67 -161q-67 -66 -161 -66v0zM1592 0q-94 0 -161 66q-66 67 -66 161t66 161
q67 67 161 67q95 0 161 -67q67 -67 67 -161t-67 -161q-66 -66 -161 -66v0zM2048 0q-95 0 -162 66q-66 67 -66 161t66 161q67 67 162 67q94 0 161 -67q66 -67 66 -161t-66 -161q-67 -66 -161 -66v0zM682 455q-94 0 -161 66q-66 67 -66 161t66 161q67 67 161 67t161 -67
t67 -161t-67 -161q-67 -66 -161 -66v0zM2503 455q-95 0 -161 66q-67 67 -67 161t67 161q66 67 161 67q94 0 161 -67q66 -67 66 -161t-66 -161q-67 -66 -161 -66v0zM682 910q-94 0 -161 66q-66 67 -66 161t66 161q67 67 161 67t161 -67t67 -161t-67 -161q-67 -66 -161 -66v0z
M2958 910q-94 0 -161 66q-67 67 -67 161t67 161t161 67t161 -67q66 -67 66 -161t-66 -161q-67 -66 -161 -66v0zM682 1365q-94 0 -161 66q-66 67 -66 161q0 95 66 161q67 67 161 67t161 -67q67 -66 67 -161q0 -94 -67 -161q-67 -66 -161 -66v0zM2958 1365q-94 0 -161 66
q-67 67 -67 161q0 95 67 161q67 67 161 67t161 -67q66 -66 66 -161q0 -94 -66 -161q-67 -66 -161 -66v0zM682 1820q-94 0 -161 66q-66 67 -66 162q0 94 66 161q67 66 161 66t161 -66q67 -67 67 -161q0 -95 -67 -162q-67 -66 -161 -66v0zM2958 1820q-94 0 -161 66
q-67 67 -67 162q0 94 67 161q67 66 161 66t161 -66q66 -67 66 -161q0 -95 -66 -162q-67 -66 -161 -66v0zM682 2275q-94 0 -161 67q-66 66 -66 161q0 94 66 161q67 66 161 66t161 -66q67 -67 67 -161q0 -95 -67 -161q-67 -67 -161 -67v0zM2958 2275q-94 0 -161 67
q-67 66 -67 161q0 94 67 161q67 66 161 66t161 -66q66 -67 66 -161q0 -95 -66 -161q-67 -67 -161 -67v0zM682 2730q-94 0 -161 67q-66 67 -66 161t66 161q67 66 161 66t161 -66q67 -67 67 -161t-67 -161t-161 -67v0zM2958 2730q-94 0 -161 67t-67 161t67 161q67 66 161 66
t161 -66q66 -67 66 -161t-66 -161q-67 -67 -161 -67v0zM682 3185q-94 0 -161 67q-66 67 -66 161t66 161q67 66 161 66t161 -66q67 -67 67 -161t-67 -161t-161 -67v0zM2503 3185q-95 0 -161 67q-67 67 -67 161t67 161q66 66 161 66q94 0 161 -66q66 -67 66 -161t-66 -161
q-67 -67 -161 -67v0zM682 3640q-94 0 -161 67q-66 67 -66 161t66 161q67 67 161 67t161 -67t67 -161t-67 -161t-161 -67v0zM1137 3640q-94 0 -161 67q-66 67 -66 161t66 161q67 67 161 67t161 -67t67 -161t-67 -161t-161 -67v0zM1592 3640q-94 0 -161 67q-66 67 -66 161
t66 161q67 67 161 67q95 0 161 -67q67 -67 67 -161t-67 -161q-66 -67 -161 -67v0zM2048 3640q-95 0 -162 67q-66 67 -66 161t66 161q67 67 162 67q94 0 161 -67q66 -67 66 -161t-66 -161q-67 -67 -161 -67v0z" />
    <glyph glyph-name="e" unicode="e" 
d="M682 0q-94 0 -161 66q-66 67 -66 161t66 161q67 67 161 67t161 -67t67 -161t-67 -161q-67 -66 -161 -66v0zM1137 0q-94 0 -161 66q-66 67 -66 161t66 161q67 67 161 67t161 -67t67 -161t-67 -161q-67 -66 -161 -66v0zM1592 0q-94 0 -161 66q-66 67 -66 161t66 161
q67 67 161 67q95 0 161 -67q67 -67 67 -161t-67 -161q-66 -66 -161 -66v0zM2048 0q-95 0 -162 66q-66 67 -66 161t66 161q67 67 162 67q94 0 161 -67q66 -67 66 -161t-66 -161q-67 -66 -161 -66v0zM2503 0q-95 0 -161 66q-67 67 -67 161t67 161q66 67 161 67q94 0 161 -67
q66 -67 66 -161t-66 -161q-67 -66 -161 -66v0zM2958 0q-94 0 -161 66q-67 67 -67 161t67 161t161 67t161 -67q66 -67 66 -161t-66 -161q-67 -66 -161 -66v0zM682 455q-94 0 -161 66q-66 67 -66 161t66 161q67 67 161 67t161 -67t67 -161t-67 -161q-67 -66 -161 -66v0z
M682 910q-94 0 -161 66q-66 67 -66 161t66 161q67 67 161 67t161 -67t67 -161t-67 -161q-67 -66 -161 -66v0zM682 1365q-94 0 -161 66q-66 67 -66 161q0 95 66 161q67 67 161 67t161 -67q67 -66 67 -161q0 -94 -67 -161q-67 -66 -161 -66v0zM682 1820q-94 0 -161 66
q-66 67 -66 162q0 94 66 161q67 66 161 66t161 -66q67 -67 67 -161q0 -95 -67 -162q-67 -66 -161 -66v0zM1137 1820q-94 0 -161 66q-66 67 -66 162q0 94 66 161q67 66 161 66t161 -66q67 -67 67 -161q0 -95 -67 -162q-67 -66 -161 -66v0zM1592 1820q-94 0 -161 66
q-66 67 -66 162q0 94 66 161q67 66 161 66q95 0 161 -66q67 -67 67 -161q0 -95 -67 -162q-66 -66 -161 -66v0zM2048 1820q-95 0 -162 66q-66 67 -66 162q0 94 66 161q67 66 162 66q94 0 161 -66q66 -67 66 -161q0 -95 -66 -162q-67 -66 -161 -66v0zM2503 1820q-95 0 -161 66
q-67 67 -67 162q0 94 67 161q66 66 161 66q94 0 161 -66q66 -67 66 -161q0 -95 -66 -162q-67 -66 -161 -66v0zM682 2275q-94 0 -161 67q-66 66 -66 161q0 94 66 161q67 66 161 66t161 -66q67 -67 67 -161q0 -95 -67 -161q-67 -67 -161 -67v0zM682 2730q-94 0 -161 67
q-66 67 -66 161t66 161q67 66 161 66t161 -66q67 -67 67 -161t-67 -161t-161 -67v0zM682 3185q-94 0 -161 67q-66 67 -66 161t66 161q67 66 161 66t161 -66q67 -67 67 -161t-67 -161t-161 -67v0zM682 3640q-94 0 -161 67q-66 67 -66 161t66 161q67 67 161 67t161 -67
t67 -161t-67 -161t-161 -67v0zM1137 3640q-94 0 -161 67q-66 67 -66 161t66 161q67 67 161 67t161 -67t67 -161t-67 -161t-161 -67v0zM1592 3640q-94 0 -161 67q-66 67 -66 161t66 161q67 67 161 67q95 0 161 -67q67 -67 67 -161t-67 -161q-66 -67 -161 -67v0zM2048 3640
q-95 0 -162 67q-66 67 -66 161t66 161q67 67 162 67q94 0 161 -67q66 -67 66 -161t-66 -161q-67 -67 -161 -67v0zM2503 3640q-95 0 -161 67q-67 67 -67 161t67 161q66 67 161 67q94 0 161 -67q66 -67 66 -161t-66 -161q-67 -67 -161 -67v0zM2958 3640q-94 0 -161 67t-67 161
t67 161t161 67t161 -67q66 -67 66 -161t-66 -161q-67 -67 -161 -67v0z" />
    <glyph glyph-name="f" unicode="f" 
d="M682 0q-94 0 -161 66q-66 67 -66 161t66 161q67 67 161 67t161 -67t67 -161t-67 -161q-67 -66 -161 -66v0zM682 455q-94 0 -161 66q-66 67 -66 161t66 161q67 67 161 67t161 -67t67 -161t-67 -161q-67 -66 -161 -66v0zM682 910q-94 0 -161 66q-66 67 -66 161t66 161
q67 67 161 67t161 -67t67 -161t-67 -161q-67 -66 -161 -66v0zM682 1365q-94 0 -161 66q-66 67 -66 161q0 95 66 161q67 67 161 67t161 -67q67 -66 67 -161q0 -94 -67 -161q-67 -66 -161 -66v0zM682 1820q-94 0 -161 66q-66 67 -66 162q0 94 66 161q67 66 161 66t161 -66
q67 -67 67 -161q0 -95 -67 -162q-67 -66 -161 -66v0zM1137 1820q-94 0 -161 66q-66 67 -66 162q0 94 66 161q67 66 161 66t161 -66q67 -67 67 -161q0 -95 -67 -162q-67 -66 -161 -66v0zM1592 1820q-94 0 -161 66q-66 67 -66 162q0 94 66 161q67 66 161 66q95 0 161 -66
q67 -67 67 -161q0 -95 -67 -162q-66 -66 -161 -66v0zM2048 1820q-95 0 -162 66q-66 67 -66 162q0 94 66 161q67 66 162 66q94 0 161 -66q66 -67 66 -161q0 -95 -66 -162q-67 -66 -161 -66v0zM2503 1820q-95 0 -161 66q-67 67 -67 162q0 94 67 161q66 66 161 66q94 0 161 -66
q66 -67 66 -161q0 -95 -66 -162q-67 -66 -161 -66v0zM682 2275q-94 0 -161 67q-66 66 -66 161q0 94 66 161q67 66 161 66t161 -66q67 -67 67 -161q0 -95 -67 -161q-67 -67 -161 -67v0zM682 2730q-94 0 -161 67q-66 67 -66 161t66 161q67 66 161 66t161 -66q67 -67 67 -161
t-67 -161t-161 -67v0zM682 3185q-94 0 -161 67q-66 67 -66 161t66 161q67 66 161 66t161 -66q67 -67 67 -161t-67 -161t-161 -67v0zM682 3640q-94 0 -161 67q-66 67 -66 161t66 161q67 67 161 67t161 -67t67 -161t-67 -161t-161 -67v0zM1137 3640q-94 0 -161 67
q-66 67 -66 161t66 161q67 67 161 67t161 -67t67 -161t-67 -161t-161 -67v0zM1592 3640q-94 0 -161 67q-66 67 -66 161t66 161q67 67 161 67q95 0 161 -67q67 -67 67 -161t-67 -161q-66 -67 -161 -67v0zM2048 3640q-95 0 -162 67q-66 67 -66 161t66 161q67 67 162 67
q94 0 161 -67q66 -67 66 -161t-66 -161q-67 -67 -161 -67v0zM2503 3640q-95 0 -161 67q-67 67 -67 161t67 161q66 67 161 67q94 0 161 -67q66 -67 66 -161t-66 -161q-67 -67 -161 -67v0zM2958 3640q-94 0 -161 67t-67 161t67 161t161 67t161 -67q66 -67 66 -161t-66 -161
q-67 -67 -161 -67v0z" />
    <glyph glyph-name="g" unicode="g" 
d="M1137 0q-94 0 -161 66q-66 67 -66 161t66 161q67 67 161 67t161 -67t67 -161t-67 -161q-67 -66 -161 -66v0zM1592 0q-94 0 -161 66q-66 67 -66 161t66 161q67 67 161 67q95 0 161 -67q67 -67 67 -161t-67 -161q-66 -66 -161 -66v0zM2048 0q-95 0 -162 66q-66 67 -66 161
t66 161q67 67 162 67q94 0 161 -67q66 -67 66 -161t-66 -161q-67 -66 -161 -66v0zM2503 0q-95 0 -161 66q-67 67 -67 161t67 161q66 67 161 67q94 0 161 -67q66 -67 66 -161t-66 -161q-67 -66 -161 -66v0zM682 455q-94 0 -161 66q-66 67 -66 161t66 161q67 67 161 67
t161 -67t67 -161t-67 -161q-67 -66 -161 -66v0zM2958 455q-94 0 -161 66q-67 67 -67 161t67 161t161 67t161 -67q66 -67 66 -161t-66 -161q-67 -66 -161 -66v0zM682 910q-94 0 -161 66q-66 67 -66 161t66 161q67 67 161 67t161 -67t67 -161t-67 -161q-67 -66 -161 -66v0z
M2958 910q-94 0 -161 66q-67 67 -67 161t67 161t161 67t161 -67q66 -67 66 -161t-66 -161q-67 -66 -161 -66v0zM682 1365q-94 0 -161 66q-66 67 -66 161q0 95 66 161q67 67 161 67t161 -67q67 -66 67 -161q0 -94 -67 -161q-67 -66 -161 -66v0zM2503 1365q-95 0 -161 66
q-67 67 -67 161q0 95 67 161q66 67 161 67q94 0 161 -67q66 -66 66 -161q0 -94 -66 -161q-67 -66 -161 -66v0zM2958 1365q-94 0 -161 66q-67 67 -67 161q0 95 67 161q67 67 161 67t161 -67q66 -66 66 -161q0 -94 -66 -161q-67 -66 -161 -66v0zM682 1820q-94 0 -161 66
q-66 67 -66 162q0 94 66 161q67 66 161 66t161 -66q67 -67 67 -161q0 -95 -67 -162q-67 -66 -161 -66v0zM682 2275q-94 0 -161 67q-66 66 -66 161q0 94 66 161q67 66 161 66t161 -66q67 -67 67 -161q0 -95 -67 -161q-67 -67 -161 -67v0zM682 2730q-94 0 -161 67
q-66 67 -66 161t66 161q67 66 161 66t161 -66q67 -67 67 -161t-67 -161t-161 -67v0zM682 3185q-94 0 -161 67q-66 67 -66 161t66 161q67 66 161 66t161 -66q67 -67 67 -161t-67 -161t-161 -67v0zM2958 3185q-94 0 -161 67t-67 161t67 161q67 66 161 66t161 -66
q66 -67 66 -161t-66 -161q-67 -67 -161 -67v0zM1137 3640q-94 0 -161 67q-66 67 -66 161t66 161q67 67 161 67t161 -67t67 -161t-67 -161t-161 -67v0zM1592 3640q-94 0 -161 67q-66 67 -66 161t66 161q67 67 161 67q95 0 161 -67q67 -67 67 -161t-67 -161q-66 -67 -161 -67
v0zM2048 3640q-95 0 -162 67q-66 67 -66 161t66 161q67 67 162 67q94 0 161 -67q66 -67 66 -161t-66 -161q-67 -67 -161 -67v0zM2503 3640q-95 0 -161 67q-67 67 -67 161t67 161q66 67 161 67q94 0 161 -67q66 -67 66 -161t-66 -161q-67 -67 -161 -67v0z" />
    <glyph glyph-name="h" unicode="h" 
d="M682 0q-94 0 -161 66q-66 67 -66 161t66 161q67 67 161 67t161 -67t67 -161t-67 -161q-67 -66 -161 -66v0zM2958 0q-94 0 -161 66q-67 67 -67 161t67 161t161 67t161 -67q66 -67 66 -161t-66 -161q-67 -66 -161 -66v0zM682 455q-94 0 -161 66q-66 67 -66 161t66 161
q67 67 161 67t161 -67t67 -161t-67 -161q-67 -66 -161 -66v0zM2958 455q-94 0 -161 66q-67 67 -67 161t67 161t161 67t161 -67q66 -67 66 -161t-66 -161q-67 -66 -161 -66v0zM682 910q-94 0 -161 66q-66 67 -66 161t66 161q67 67 161 67t161 -67t67 -161t-67 -161
q-67 -66 -161 -66v0zM2958 910q-94 0 -161 66q-67 67 -67 161t67 161t161 67t161 -67q66 -67 66 -161t-66 -161q-67 -66 -161 -66v0zM682 1365q-94 0 -161 66q-66 67 -66 161q0 95 66 161q67 67 161 67t161 -67q67 -66 67 -161q0 -94 -67 -161q-67 -66 -161 -66v0z
M2958 1365q-94 0 -161 66q-67 67 -67 161q0 95 67 161q67 67 161 67t161 -67q66 -66 66 -161q0 -94 -66 -161q-67 -66 -161 -66v0zM682 1820q-94 0 -161 66q-66 67 -66 162q0 94 66 161q67 66 161 66t161 -66q67 -67 67 -161q0 -95 -67 -162q-67 -66 -161 -66v0zM1137 1820
q-94 0 -161 66q-66 67 -66 162q0 94 66 161q67 66 161 66t161 -66q67 -67 67 -161q0 -95 -67 -162q-67 -66 -161 -66v0zM1592 1820q-94 0 -161 66q-66 67 -66 162q0 94 66 161q67 66 161 66q95 0 161 -66q67 -67 67 -161q0 -95 -67 -162q-66 -66 -161 -66v0zM2048 1820
q-95 0 -162 66q-66 67 -66 162q0 94 66 161q67 66 162 66q94 0 161 -66q66 -67 66 -161q0 -95 -66 -162q-67 -66 -161 -66v0zM2503 1820q-95 0 -161 66q-67 67 -67 162q0 94 67 161q66 66 161 66q94 0 161 -66q66 -67 66 -161q0 -95 -66 -162q-67 -66 -161 -66v0zM2958 1820
q-94 0 -161 66q-67 67 -67 162q0 94 67 161q67 66 161 66t161 -66q66 -67 66 -161q0 -95 -66 -162q-67 -66 -161 -66v0zM682 2275q-94 0 -161 67q-66 66 -66 161q0 94 66 161q67 66 161 66t161 -66q67 -67 67 -161q0 -95 -67 -161q-67 -67 -161 -67v0zM2958 2275
q-94 0 -161 67q-67 66 -67 161q0 94 67 161q67 66 161 66t161 -66q66 -67 66 -161q0 -95 -66 -161q-67 -67 -161 -67v0zM682 2730q-94 0 -161 67q-66 67 -66 161t66 161q67 66 161 66t161 -66q67 -67 67 -161t-67 -161t-161 -67v0zM2958 2730q-94 0 -161 67t-67 161t67 161
q67 66 161 66t161 -66q66 -67 66 -161t-66 -161q-67 -67 -161 -67v0zM682 3185q-94 0 -161 67q-66 67 -66 161t66 161q67 66 161 66t161 -66q67 -67 67 -161t-67 -161t-161 -67v0zM2958 3185q-94 0 -161 67t-67 161t67 161q67 66 161 66t161 -66q66 -67 66 -161t-66 -161
q-67 -67 -161 -67v0zM682 3640q-94 0 -161 67q-66 67 -66 161t66 161q67 67 161 67t161 -67t67 -161t-67 -161t-161 -67v0zM2958 3640q-94 0 -161 67t-67 161t67 161t161 67t161 -67q66 -67 66 -161t-66 -161q-67 -67 -161 -67v0z" />
    <glyph glyph-name="i" unicode="i" 
d="M682 0q-94 0 -161 66q-66 67 -66 161t66 161q67 67 161 67t161 -67t67 -161t-67 -161q-67 -66 -161 -66v0zM1137 0q-94 0 -161 66q-66 67 -66 161t66 161q67 67 161 67t161 -67t67 -161t-67 -161q-67 -66 -161 -66v0zM1592 0q-94 0 -161 66q-66 67 -66 161t66 161
q67 67 161 67q95 0 161 -67q67 -67 67 -161t-67 -161q-66 -66 -161 -66v0zM2048 0q-95 0 -162 66q-66 67 -66 161t66 161q67 67 162 67q94 0 161 -67q66 -67 66 -161t-66 -161q-67 -66 -161 -66v0zM2503 0q-95 0 -161 66q-67 67 -67 161t67 161q66 67 161 67q94 0 161 -67
q66 -67 66 -161t-66 -161q-67 -66 -161 -66v0zM2958 0q-94 0 -161 66q-67 67 -67 161t67 161t161 67t161 -67q66 -67 66 -161t-66 -161q-67 -66 -161 -66v0zM1592 455q-94 0 -161 66q-66 67 -66 161t66 161q67 67 161 67q95 0 161 -67q67 -67 67 -161t-67 -161
q-66 -66 -161 -66v0zM1592 910q-94 0 -161 66q-66 67 -66 161t66 161q67 67 161 67q95 0 161 -67q67 -67 67 -161t-67 -161q-66 -66 -161 -66v0zM1592 1365q-94 0 -161 66q-66 67 -66 161q0 95 66 161q67 67 161 67q95 0 161 -67q67 -66 67 -161q0 -94 -67 -161
q-66 -66 -161 -66v0zM1592 1820q-94 0 -161 66q-66 67 -66 162q0 94 66 161q67 66 161 66q95 0 161 -66q67 -67 67 -161q0 -95 -67 -162q-66 -66 -161 -66v0zM1592 2275q-94 0 -161 67q-66 66 -66 161q0 94 66 161q67 66 161 66q95 0 161 -66q67 -67 67 -161q0 -95 -67 -161
q-66 -67 -161 -67v0zM1592 2730q-94 0 -161 67q-66 67 -66 161t66 161q67 66 161 66q95 0 161 -66q67 -67 67 -161t-67 -161q-66 -67 -161 -67v0zM1592 3185q-94 0 -161 67q-66 67 -66 161t66 161q67 66 161 66q95 0 161 -66q67 -67 67 -161t-67 -161q-66 -67 -161 -67v0z
M682 3640q-94 0 -161 67q-66 67 -66 161t66 161q67 67 161 67t161 -67t67 -161t-67 -161t-161 -67v0zM1137 3640q-94 0 -161 67q-66 67 -66 161t66 161q67 67 161 67t161 -67t67 -161t-67 -161t-161 -67v0zM1592 3640q-94 0 -161 67q-66 67 -66 161t66 161q67 67 161 67
q95 0 161 -67q67 -67 67 -161t-67 -161q-66 -67 -161 -67v0zM2048 3640q-95 0 -162 67q-66 67 -66 161t66 161q67 67 162 67q94 0 161 -67q66 -67 66 -161t-66 -161q-67 -67 -161 -67v0zM2503 3640q-95 0 -161 67q-67 67 -67 161t67 161q66 67 161 67q94 0 161 -67
q66 -67 66 -161t-66 -161q-67 -67 -161 -67v0zM2958 3640q-94 0 -161 67t-67 161t67 161t161 67t161 -67q66 -67 66 -161t-66 -161q-67 -67 -161 -67v0z" />
    <glyph glyph-name="j" unicode="j" 
d="M1137 0q-94 0 -161 66q-66 67 -66 161t66 161q67 67 161 67t161 -67t67 -161t-67 -161q-67 -66 -161 -66v0zM1592 0q-94 0 -161 66q-66 67 -66 161t66 161q67 67 161 67q95 0 161 -67q67 -67 67 -161t-67 -161q-66 -66 -161 -66v0zM2048 0q-95 0 -162 66q-66 67 -66 161
t66 161q67 67 162 67q94 0 161 -67q66 -67 66 -161t-66 -161q-67 -66 -161 -66v0zM2503 0q-95 0 -161 66q-67 67 -67 161t67 161q66 67 161 67q94 0 161 -67q66 -67 66 -161t-66 -161q-67 -66 -161 -66v0zM682 455q-94 0 -161 66q-66 67 -66 161t66 161q67 67 161 67
t161 -67t67 -161t-67 -161q-67 -66 -161 -66v0zM2958 455q-94 0 -161 66q-67 67 -67 161t67 161t161 67t161 -67q66 -67 66 -161t-66 -161q-67 -66 -161 -66v0zM682 910q-94 0 -161 66q-66 67 -66 161t66 161q67 67 161 67t161 -67t67 -161t-67 -161q-67 -66 -161 -66v0z
M2958 910q-94 0 -161 66q-67 67 -67 161t67 161t161 67t161 -67q66 -67 66 -161t-66 -161q-67 -66 -161 -66v0zM2958 1365q-94 0 -161 66q-67 67 -67 161q0 95 67 161q67 67 161 67t161 -67q66 -66 66 -161q0 -94 -66 -161q-67 -66 -161 -66v0zM2958 1820q-94 0 -161 66
q-67 67 -67 162q0 94 67 161q67 66 161 66t161 -66q66 -67 66 -161q0 -95 -66 -162q-67 -66 -161 -66v0zM2958 2275q-94 0 -161 67q-67 66 -67 161q0 94 67 161q67 66 161 66t161 -66q66 -67 66 -161q0 -95 -66 -161q-67 -67 -161 -67v0zM2958 2730q-94 0 -161 67t-67 161
t67 161q67 66 161 66t161 -66q66 -67 66 -161t-66 -161q-67 -67 -161 -67v0zM2958 3185q-94 0 -161 67t-67 161t67 161q67 66 161 66t161 -66q66 -67 66 -161t-66 -161q-67 -67 -161 -67v0zM2958 3640q-94 0 -161 67t-67 161t67 161t161 67t161 -67q66 -67 66 -161t-66 -161
q-67 -67 -161 -67v0z" />
    <glyph glyph-name="k" unicode="k" 
d="M682 0q-94 0 -161 66q-66 67 -66 161t66 161q67 67 161 67t161 -67t67 -161t-67 -161q-67 -66 -161 -66v0zM2958 0q-94 0 -161 66q-67 67 -67 161t67 161t161 67t161 -67q66 -67 66 -161t-66 -161q-67 -66 -161 -66v0zM682 455q-94 0 -161 66q-66 67 -66 161t66 161
q67 67 161 67t161 -67t67 -161t-67 -161q-67 -66 -161 -66v0zM2503 455q-95 0 -161 66q-67 67 -67 161t67 161q66 67 161 67q94 0 161 -67q66 -67 66 -161t-66 -161q-67 -66 -161 -66v0zM682 910q-94 0 -161 66q-66 67 -66 161t66 161q67 67 161 67t161 -67t67 -161
t-67 -161q-67 -66 -161 -66v0zM2048 910q-95 0 -162 66q-66 67 -66 161t66 161q67 67 162 67q94 0 161 -67q66 -67 66 -161t-66 -161q-67 -66 -161 -66v0zM682 1365q-94 0 -161 66q-66 67 -66 161q0 95 66 161q67 67 161 67t161 -67q67 -66 67 -161q0 -94 -67 -161
q-67 -66 -161 -66v0zM1592 1365q-94 0 -161 66q-66 67 -66 161q0 95 66 161q67 67 161 67q95 0 161 -67q67 -66 67 -161q0 -94 -67 -161q-66 -66 -161 -66v0zM682 1820q-94 0 -161 66q-66 67 -66 162q0 94 66 161q67 66 161 66t161 -66q67 -67 67 -161q0 -95 -67 -162
q-67 -66 -161 -66v0zM1137 1820q-94 0 -161 66q-66 67 -66 162q0 94 66 161q67 66 161 66t161 -66q67 -67 67 -161q0 -95 -67 -162q-67 -66 -161 -66v0zM682 2275q-94 0 -161 67q-66 66 -66 161q0 94 66 161q67 66 161 66t161 -66q67 -67 67 -161q0 -95 -67 -161
q-67 -67 -161 -67v0zM1592 2275q-94 0 -161 67q-66 66 -66 161q0 94 66 161q67 66 161 66q95 0 161 -66q67 -67 67 -161q0 -95 -67 -161q-66 -67 -161 -67v0zM682 2730q-94 0 -161 67q-66 67 -66 161t66 161q67 66 161 66t161 -66q67 -67 67 -161t-67 -161t-161 -67v0z
M2048 2730q-95 0 -162 67q-66 67 -66 161t66 161q67 66 162 66q94 0 161 -66q66 -67 66 -161t-66 -161q-67 -67 -161 -67v0zM682 3185q-94 0 -161 67q-66 67 -66 161t66 161q67 66 161 66t161 -66q67 -67 67 -161t-67 -161t-161 -67v0zM2503 3185q-95 0 -161 67
q-67 67 -67 161t67 161q66 66 161 66q94 0 161 -66q66 -67 66 -161t-66 -161q-67 -67 -161 -67v0zM682 3640q-94 0 -161 67q-66 67 -66 161t66 161q67 67 161 67t161 -67t67 -161t-67 -161t-161 -67v0zM2958 3640q-94 0 -161 67t-67 161t67 161t161 67t161 -67
q66 -67 66 -161t-66 -161q-67 -67 -161 -67v0z" />
    <glyph glyph-name="l" unicode="l" 
d="M682 0q-94 0 -161 66q-66 67 -66 161t66 161q67 67 161 67t161 -67t67 -161t-67 -161q-67 -66 -161 -66v0zM1137 0q-94 0 -161 66q-66 67 -66 161t66 161q67 67 161 67t161 -67t67 -161t-67 -161q-67 -66 -161 -66v0zM1592 0q-94 0 -161 66q-66 67 -66 161t66 161
q67 67 161 67q95 0 161 -67q67 -67 67 -161t-67 -161q-66 -66 -161 -66v0zM2048 0q-95 0 -162 66q-66 67 -66 161t66 161q67 67 162 67q94 0 161 -67q66 -67 66 -161t-66 -161q-67 -66 -161 -66v0zM2503 0q-95 0 -161 66q-67 67 -67 161t67 161q66 67 161 67q94 0 161 -67
q66 -67 66 -161t-66 -161q-67 -66 -161 -66v0zM2958 0q-94 0 -161 66q-67 67 -67 161t67 161t161 67t161 -67q66 -67 66 -161t-66 -161q-67 -66 -161 -66v0zM682 455q-94 0 -161 66q-66 67 -66 161t66 161q67 67 161 67t161 -67t67 -161t-67 -161q-67 -66 -161 -66v0z
M682 910q-94 0 -161 66q-66 67 -66 161t66 161q67 67 161 67t161 -67t67 -161t-67 -161q-67 -66 -161 -66v0zM682 1365q-94 0 -161 66q-66 67 -66 161q0 95 66 161q67 67 161 67t161 -67q67 -66 67 -161q0 -94 -67 -161q-67 -66 -161 -66v0zM682 1820q-94 0 -161 66
q-66 67 -66 162q0 94 66 161q67 66 161 66t161 -66q67 -67 67 -161q0 -95 -67 -162q-67 -66 -161 -66v0zM682 2275q-94 0 -161 67q-66 66 -66 161q0 94 66 161q67 66 161 66t161 -66q67 -67 67 -161q0 -95 -67 -161q-67 -67 -161 -67v0zM682 2730q-94 0 -161 67
q-66 67 -66 161t66 161q67 66 161 66t161 -66q67 -67 67 -161t-67 -161t-161 -67v0zM682 3185q-94 0 -161 67q-66 67 -66 161t66 161q67 66 161 66t161 -66q67 -67 67 -161t-67 -161t-161 -67v0zM682 3640q-94 0 -161 67q-66 67 -66 161t66 161q67 67 161 67t161 -67
t67 -161t-67 -161t-161 -67v0z" />
    <glyph glyph-name="m" unicode="m" 
d="M682 0q-94 0 -161 66q-66 67 -66 161t66 161q67 67 161 67t161 -67t67 -161t-67 -161q-67 -66 -161 -66v0zM2958 0q-94 0 -161 66q-67 67 -67 161t67 161t161 67t161 -67q66 -67 66 -161t-66 -161q-67 -66 -161 -66v0zM682 455q-94 0 -161 66q-66 67 -66 161t66 161
q67 67 161 67t161 -67t67 -161t-67 -161q-67 -66 -161 -66v0zM2958 455q-94 0 -161 66q-67 67 -67 161t67 161t161 67t161 -67q66 -67 66 -161t-66 -161q-67 -66 -161 -66v0zM682 910q-94 0 -161 66q-66 67 -66 161t66 161q67 67 161 67t161 -67t67 -161t-67 -161
q-67 -66 -161 -66v0zM2958 910q-94 0 -161 66q-67 67 -67 161t67 161t161 67t161 -67q66 -67 66 -161t-66 -161q-67 -66 -161 -66v0zM682 1365q-94 0 -161 66q-66 67 -66 161q0 95 66 161q67 67 161 67t161 -67q67 -66 67 -161q0 -94 -67 -161q-67 -66 -161 -66v0z
M2958 1365q-94 0 -161 66q-67 67 -67 161q0 95 67 161q67 67 161 67t161 -67q66 -66 66 -161q0 -94 -66 -161q-67 -66 -161 -66v0zM682 1820q-94 0 -161 66q-66 67 -66 162q0 94 66 161q67 66 161 66t161 -66q67 -67 67 -161q0 -95 -67 -162q-67 -66 -161 -66v0zM1592 1820
q-94 0 -161 66q-66 67 -66 162q0 94 66 161q67 66 161 66q95 0 161 -66q67 -67 67 -161q0 -95 -67 -162q-66 -66 -161 -66v0zM2048 1820q-95 0 -162 66q-66 67 -66 162q0 94 66 161q67 66 162 66q94 0 161 -66q66 -67 66 -161q0 -95 -66 -162q-67 -66 -161 -66v0zM2958 1820
q-94 0 -161 66q-67 67 -67 162q0 94 67 161q67 66 161 66t161 -66q66 -67 66 -161q0 -95 -66 -162q-67 -66 -161 -66v0zM682 2275q-94 0 -161 67q-66 66 -66 161q0 94 66 161q67 66 161 66t161 -66q67 -67 67 -161q0 -95 -67 -161q-67 -67 -161 -67v0zM1592 2275
q-94 0 -161 67q-66 66 -66 161q0 94 66 161q67 66 161 66q95 0 161 -66q67 -67 67 -161q0 -95 -67 -161q-66 -67 -161 -67v0zM2048 2275q-95 0 -162 67q-66 66 -66 161q0 94 66 161q67 66 162 66q94 0 161 -66q66 -67 66 -161q0 -95 -66 -161q-67 -67 -161 -67v0zM2958 2275
q-94 0 -161 67q-67 66 -67 161q0 94 67 161q67 66 161 66t161 -66q66 -67 66 -161q0 -95 -66 -161q-67 -67 -161 -67v0zM682 2730q-94 0 -161 67q-66 67 -66 161t66 161q67 66 161 66t161 -66q67 -67 67 -161t-67 -161t-161 -67v0zM1137 2730q-94 0 -161 67q-66 67 -66 161
t66 161q67 66 161 66t161 -66q67 -67 67 -161t-67 -161t-161 -67v0zM1592 2730q-94 0 -161 67q-66 67 -66 161t66 161q67 66 161 66q95 0 161 -66q67 -67 67 -161t-67 -161q-66 -67 -161 -67v0zM2048 2730q-95 0 -162 67q-66 67 -66 161t66 161q67 66 162 66q94 0 161 -66
q66 -67 66 -161t-66 -161q-67 -67 -161 -67v0zM2503 2730q-95 0 -161 67q-67 67 -67 161t67 161q66 66 161 66q94 0 161 -66q66 -67 66 -161t-66 -161q-67 -67 -161 -67v0zM2958 2730q-94 0 -161 67t-67 161t67 161q67 66 161 66t161 -66q66 -67 66 -161t-66 -161
q-67 -67 -161 -67v0zM682 3185q-94 0 -161 67q-66 67 -66 161t66 161q67 66 161 66t161 -66q67 -67 67 -161t-67 -161t-161 -67v0zM1137 3185q-94 0 -161 67q-66 67 -66 161t66 161q67 66 161 66t161 -66q67 -67 67 -161t-67 -161t-161 -67v0zM2503 3185q-95 0 -161 67
q-67 67 -67 161t67 161q66 66 161 66q94 0 161 -66q66 -67 66 -161t-66 -161q-67 -67 -161 -67v0zM2958 3185q-94 0 -161 67t-67 161t67 161q67 66 161 66t161 -66q66 -67 66 -161t-66 -161q-67 -67 -161 -67v0zM682 3640q-94 0 -161 67q-66 67 -66 161t66 161q67 67 161 67
t161 -67t67 -161t-67 -161t-161 -67v0zM2958 3640q-94 0 -161 67t-67 161t67 161t161 67t161 -67q66 -67 66 -161t-66 -161q-67 -67 -161 -67v0z" />
    <glyph glyph-name="n" unicode="n" 
d="M682 0q-94 0 -161 66q-66 67 -66 161t66 161q67 67 161 67t161 -67t67 -161t-67 -161q-67 -66 -161 -66v0zM2958 0q-94 0 -161 66q-67 67 -67 161t67 161t161 67t161 -67q66 -67 66 -161t-66 -161q-67 -66 -161 -66v0zM682 455q-94 0 -161 66q-66 67 -66 161t66 161
q67 67 161 67t161 -67t67 -161t-67 -161q-67 -66 -161 -66v0zM2503 455q-95 0 -161 66q-67 67 -67 161t67 161q66 67 161 67q94 0 161 -67q66 -67 66 -161t-66 -161q-67 -66 -161 -66v0zM2958 455q-94 0 -161 66q-67 67 -67 161t67 161t161 67t161 -67q66 -67 66 -161
t-66 -161q-67 -66 -161 -66v0zM682 910q-94 0 -161 66q-66 67 -66 161t66 161q67 67 161 67t161 -67t67 -161t-67 -161q-67 -66 -161 -66v0zM2048 910q-95 0 -162 66q-66 67 -66 161t66 161q67 67 162 67q94 0 161 -67q66 -67 66 -161t-66 -161q-67 -66 -161 -66v0z
M2503 910q-95 0 -161 66q-67 67 -67 161t67 161q66 67 161 67q94 0 161 -67q66 -67 66 -161t-66 -161q-67 -66 -161 -66v0zM2958 910q-94 0 -161 66q-67 67 -67 161t67 161t161 67t161 -67q66 -67 66 -161t-66 -161q-67 -66 -161 -66v0zM682 1365q-94 0 -161 66
q-66 67 -66 161q0 95 66 161q67 67 161 67t161 -67q67 -66 67 -161q0 -94 -67 -161q-67 -66 -161 -66v0zM2048 1365q-95 0 -162 66q-66 67 -66 161q0 95 66 161q67 67 162 67q94 0 161 -67q66 -66 66 -161q0 -94 -66 -161q-67 -66 -161 -66v0zM2958 1365q-94 0 -161 66
q-67 67 -67 161q0 95 67 161q67 67 161 67t161 -67q66 -66 66 -161q0 -94 -66 -161q-67 -66 -161 -66v0zM682 1820q-94 0 -161 66q-66 67 -66 162q0 94 66 161q67 66 161 66t161 -66q67 -67 67 -161q0 -95 -67 -162q-67 -66 -161 -66v0zM1592 1820q-94 0 -161 66
q-66 67 -66 162q0 94 66 161q67 66 161 66q95 0 161 -66q67 -67 67 -161q0 -95 -67 -162q-66 -66 -161 -66v0zM2048 1820q-95 0 -162 66q-66 67 -66 162q0 94 66 161q67 66 162 66q94 0 161 -66q66 -67 66 -161q0 -95 -66 -162q-67 -66 -161 -66v0zM2958 1820q-94 0 -161 66
q-67 67 -67 162q0 94 67 161q67 66 161 66t161 -66q66 -67 66 -161q0 -95 -66 -162q-67 -66 -161 -66v0zM682 2275q-94 0 -161 67q-66 66 -66 161q0 94 66 161q67 66 161 66t161 -66q67 -67 67 -161q0 -95 -67 -161q-67 -67 -161 -67v0zM1592 2275q-94 0 -161 67
q-66 66 -66 161q0 94 66 161q67 66 161 66q95 0 161 -66q67 -67 67 -161q0 -95 -67 -161q-66 -67 -161 -67v0zM2958 2275q-94 0 -161 67q-67 66 -67 161q0 94 67 161q67 66 161 66t161 -66q66 -67 66 -161q0 -95 -66 -161q-67 -67 -161 -67v0zM682 2730q-94 0 -161 67
q-66 67 -66 161t66 161q67 66 161 66t161 -66q67 -67 67 -161t-67 -161t-161 -67v0zM1137 2730q-94 0 -161 67q-66 67 -66 161t66 161q67 66 161 66t161 -66q67 -67 67 -161t-67 -161t-161 -67v0zM1592 2730q-94 0 -161 67q-66 67 -66 161t66 161q67 66 161 66q95 0 161 -66
q67 -67 67 -161t-67 -161q-66 -67 -161 -67v0zM2958 2730q-94 0 -161 67t-67 161t67 161q67 66 161 66t161 -66q66 -67 66 -161t-66 -161q-67 -67 -161 -67v0zM682 3185q-94 0 -161 67q-66 67 -66 161t66 161q67 66 161 66t161 -66q67 -67 67 -161t-67 -161t-161 -67v0z
M1137 3185q-94 0 -161 67q-66 67 -66 161t66 161q67 66 161 66t161 -66q67 -67 67 -161t-67 -161t-161 -67v0zM2958 3185q-94 0 -161 67t-67 161t67 161q67 66 161 66t161 -66q66 -67 66 -161t-66 -161q-67 -67 -161 -67v0zM682 3640q-94 0 -161 67q-66 67 -66 161t66 161
q67 67 161 67t161 -67t67 -161t-67 -161t-161 -67v0zM2958 3640q-94 0 -161 67t-67 161t67 161t161 67t161 -67q66 -67 66 -161t-66 -161q-67 -67 -161 -67v0z" />
    <glyph glyph-name="o" unicode="o" 
d="M1137 0q-94 0 -161 66q-66 67 -66 161t66 161q67 67 161 67t161 -67t67 -161t-67 -161q-67 -66 -161 -66v0zM1592 0q-94 0 -161 66q-66 67 -66 161t66 161q67 67 161 67q95 0 161 -67q67 -67 67 -161t-67 -161q-66 -66 -161 -66v0zM2048 0q-95 0 -162 66q-66 67 -66 161
t66 161q67 67 162 67q94 0 161 -67q66 -67 66 -161t-66 -161q-67 -66 -161 -66v0zM2503 0q-95 0 -161 66q-67 67 -67 161t67 161q66 67 161 67q94 0 161 -67q66 -67 66 -161t-66 -161q-67 -66 -161 -66v0zM682 455q-94 0 -161 66q-66 67 -66 161t66 161q67 67 161 67
t161 -67t67 -161t-67 -161q-67 -66 -161 -66v0zM2958 455q-94 0 -161 66q-67 67 -67 161t67 161t161 67t161 -67q66 -67 66 -161t-66 -161q-67 -66 -161 -66v0zM682 910q-94 0 -161 66q-66 67 -66 161t66 161q67 67 161 67t161 -67t67 -161t-67 -161q-67 -66 -161 -66v0z
M2958 910q-94 0 -161 66q-67 67 -67 161t67 161t161 67t161 -67q66 -67 66 -161t-66 -161q-67 -66 -161 -66v0zM682 1365q-94 0 -161 66q-66 67 -66 161q0 95 66 161q67 67 161 67t161 -67q67 -66 67 -161q0 -94 -67 -161q-67 -66 -161 -66v0zM2958 1365q-94 0 -161 66
q-67 67 -67 161q0 95 67 161q67 67 161 67t161 -67q66 -66 66 -161q0 -94 -66 -161q-67 -66 -161 -66v0zM682 1820q-94 0 -161 66q-66 67 -66 162q0 94 66 161q67 66 161 66t161 -66q67 -67 67 -161q0 -95 -67 -162q-67 -66 -161 -66v0zM2958 1820q-94 0 -161 66
q-67 67 -67 162q0 94 67 161q67 66 161 66t161 -66q66 -67 66 -161q0 -95 -66 -162q-67 -66 -161 -66v0zM682 2275q-94 0 -161 67q-66 66 -66 161q0 94 66 161q67 66 161 66t161 -66q67 -67 67 -161q0 -95 -67 -161q-67 -67 -161 -67v0zM2958 2275q-94 0 -161 67
q-67 66 -67 161q0 94 67 161q67 66 161 66t161 -66q66 -67 66 -161q0 -95 -66 -161q-67 -67 -161 -67v0zM682 2730q-94 0 -161 67q-66 67 -66 161t66 161q67 66 161 66t161 -66q67 -67 67 -161t-67 -161t-161 -67v0zM2958 2730q-94 0 -161 67t-67 161t67 161q67 66 161 66
t161 -66q66 -67 66 -161t-66 -161q-67 -67 -161 -67v0zM682 3185q-94 0 -161 67q-66 67 -66 161t66 161q67 66 161 66t161 -66q67 -67 67 -161t-67 -161t-161 -67v0zM2958 3185q-94 0 -161 67t-67 161t67 161q67 66 161 66t161 -66q66 -67 66 -161t-66 -161
q-67 -67 -161 -67v0zM1137 3640q-94 0 -161 67q-66 67 -66 161t66 161q67 67 161 67t161 -67t67 -161t-67 -161t-161 -67v0zM1592 3640q-94 0 -161 67q-66 67 -66 161t66 161q67 67 161 67q95 0 161 -67q67 -67 67 -161t-67 -161q-66 -67 -161 -67v0zM2048 3640
q-95 0 -162 67q-66 67 -66 161t66 161q67 67 162 67q94 0 161 -67q66 -67 66 -161t-66 -161q-67 -67 -161 -67v0zM2503 3640q-95 0 -161 67q-67 67 -67 161t67 161q66 67 161 67q94 0 161 -67q66 -67 66 -161t-66 -161q-67 -67 -161 -67v0z" />
    <glyph glyph-name="p" unicode="p" 
d="M682 0q-94 0 -161 66q-66 67 -66 161t66 161q67 67 161 67t161 -67t67 -161t-67 -161q-67 -66 -161 -66v0zM682 455q-94 0 -161 66q-66 67 -66 161t66 161q67 67 161 67t161 -67t67 -161t-67 -161q-67 -66 -161 -66v0zM682 910q-94 0 -161 66q-66 67 -66 161t66 161
q67 67 161 67t161 -67t67 -161t-67 -161q-67 -66 -161 -66v0zM682 1365q-94 0 -161 66q-66 67 -66 161q0 95 66 161q67 67 161 67t161 -67q67 -66 67 -161q0 -94 -67 -161q-67 -66 -161 -66v0zM682 1820q-94 0 -161 66q-66 67 -66 162q0 94 66 161q67 66 161 66t161 -66
q67 -67 67 -161q0 -95 -67 -162q-67 -66 -161 -66v0zM1137 1820q-94 0 -161 66q-66 67 -66 162q0 94 66 161q67 66 161 66t161 -66q67 -67 67 -161q0 -95 -67 -162q-67 -66 -161 -66v0zM1592 1820q-94 0 -161 66q-66 67 -66 162q0 94 66 161q67 66 161 66q95 0 161 -66
q67 -67 67 -161q0 -95 -67 -162q-66 -66 -161 -66v0zM2048 1820q-95 0 -162 66q-66 67 -66 162q0 94 66 161q67 66 162 66q94 0 161 -66q66 -67 66 -161q0 -95 -66 -162q-67 -66 -161 -66v0zM2503 1820q-95 0 -161 66q-67 67 -67 162q0 94 67 161q66 66 161 66q94 0 161 -66
q66 -67 66 -161q0 -95 -66 -162q-67 -66 -161 -66v0zM682 2275q-94 0 -161 67q-66 66 -66 161q0 94 66 161q67 66 161 66t161 -66q67 -67 67 -161q0 -95 -67 -161q-67 -67 -161 -67v0zM2958 2275q-94 0 -161 67q-67 66 -67 161q0 94 67 161q67 66 161 66t161 -66
q66 -67 66 -161q0 -95 -66 -161q-67 -67 -161 -67v0zM682 2730q-94 0 -161 67q-66 67 -66 161t66 161q67 66 161 66t161 -66q67 -67 67 -161t-67 -161t-161 -67v0zM2958 2730q-94 0 -161 67t-67 161t67 161q67 66 161 66t161 -66q66 -67 66 -161t-66 -161q-67 -67 -161 -67
v0zM682 3185q-94 0 -161 67q-66 67 -66 161t66 161q67 66 161 66t161 -66q67 -67 67 -161t-67 -161t-161 -67v0zM2958 3185q-94 0 -161 67t-67 161t67 161q67 66 161 66t161 -66q66 -67 66 -161t-66 -161q-67 -67 -161 -67v0zM682 3640q-94 0 -161 67q-66 67 -66 161t66 161
q67 67 161 67t161 -67t67 -161t-67 -161t-161 -67v0zM1137 3640q-94 0 -161 67q-66 67 -66 161t66 161q67 67 161 67t161 -67t67 -161t-67 -161t-161 -67v0zM1592 3640q-94 0 -161 67q-66 67 -66 161t66 161q67 67 161 67q95 0 161 -67q67 -67 67 -161t-67 -161
q-66 -67 -161 -67v0zM2048 3640q-95 0 -162 67q-66 67 -66 161t66 161q67 67 162 67q94 0 161 -67q66 -67 66 -161t-66 -161q-67 -67 -161 -67v0zM2503 3640q-95 0 -161 67q-67 67 -67 161t67 161q66 67 161 67q94 0 161 -67q66 -67 66 -161t-66 -161q-67 -67 -161 -67v0z
" />
    <glyph glyph-name="q" unicode="q" 
d="M1137 0q-94 0 -161 66q-66 67 -66 161t66 161q67 67 161 67t161 -67t67 -161t-67 -161q-67 -66 -161 -66v0zM1592 0q-94 0 -161 66q-66 67 -66 161t66 161q67 67 161 67q95 0 161 -67q67 -67 67 -161t-67 -161q-66 -66 -161 -66v0zM2048 0q-95 0 -162 66q-66 67 -66 161
t66 161q67 67 162 67q94 0 161 -67q66 -67 66 -161t-66 -161q-67 -66 -161 -66v0zM2503 0q-95 0 -161 66q-67 67 -67 161t67 161q66 67 161 67q94 0 161 -67q66 -67 66 -161t-66 -161q-67 -66 -161 -66v0zM2958 0q-94 0 -161 66q-67 67 -67 161t67 161t161 67t161 -67
q66 -67 66 -161t-66 -161q-67 -66 -161 -66v0zM682 455q-94 0 -161 66q-66 67 -66 161t66 161q67 67 161 67t161 -67t67 -161t-67 -161q-67 -66 -161 -66v0zM2503 455q-95 0 -161 66q-67 67 -67 161t67 161q66 67 161 67q94 0 161 -67q66 -67 66 -161t-66 -161
q-67 -66 -161 -66v0zM2958 455q-94 0 -161 66q-67 67 -67 161t67 161t161 67t161 -67q66 -67 66 -161t-66 -161q-67 -66 -161 -66v0zM682 910q-94 0 -161 66q-66 67 -66 161t66 161q67 67 161 67t161 -67t67 -161t-67 -161q-67 -66 -161 -66v0zM2048 910q-95 0 -162 66
q-66 67 -66 161t66 161q67 67 162 67q94 0 161 -67q66 -67 66 -161t-66 -161q-67 -66 -161 -66v0zM2958 910q-94 0 -161 66q-67 67 -67 161t67 161t161 67t161 -67q66 -67 66 -161t-66 -161q-67 -66 -161 -66v0zM682 1365q-94 0 -161 66q-66 67 -66 161q0 95 66 161
q67 67 161 67t161 -67q67 -66 67 -161q0 -94 -67 -161q-67 -66 -161 -66v0zM2958 1365q-94 0 -161 66q-67 67 -67 161q0 95 67 161q67 67 161 67t161 -67q66 -66 66 -161q0 -94 -66 -161q-67 -66 -161 -66v0zM682 1820q-94 0 -161 66q-66 67 -66 162q0 94 66 161
q67 66 161 66t161 -66q67 -67 67 -161q0 -95 -67 -162q-67 -66 -161 -66v0zM2958 1820q-94 0 -161 66q-67 67 -67 162q0 94 67 161q67 66 161 66t161 -66q66 -67 66 -161q0 -95 -66 -162q-67 -66 -161 -66v0zM682 2275q-94 0 -161 67q-66 66 -66 161q0 94 66 161
q67 66 161 66t161 -66q67 -67 67 -161q0 -95 -67 -161q-67 -67 -161 -67v0zM2958 2275q-94 0 -161 67q-67 66 -67 161q0 94 67 161q67 66 161 66t161 -66q66 -67 66 -161q0 -95 -66 -161q-67 -67 -161 -67v0zM682 2730q-94 0 -161 67q-66 67 -66 161t66 161q67 66 161 66
t161 -66q67 -67 67 -161t-67 -161t-161 -67v0zM2958 2730q-94 0 -161 67t-67 161t67 161q67 66 161 66t161 -66q66 -67 66 -161t-66 -161q-67 -67 -161 -67v0zM682 3185q-94 0 -161 67q-66 67 -66 161t66 161q67 66 161 66t161 -66q67 -67 67 -161t-67 -161t-161 -67v0z
M2958 3185q-94 0 -161 67t-67 161t67 161q67 66 161 66t161 -66q66 -67 66 -161t-66 -161q-67 -67 -161 -67v0zM1137 3640q-94 0 -161 67q-66 67 -66 161t66 161q67 67 161 67t161 -67t67 -161t-67 -161t-161 -67v0zM1592 3640q-94 0 -161 67q-66 67 -66 161t66 161
q67 67 161 67q95 0 161 -67q67 -67 67 -161t-67 -161q-66 -67 -161 -67v0zM2048 3640q-95 0 -162 67q-66 67 -66 161t66 161q67 67 162 67q94 0 161 -67q66 -67 66 -161t-66 -161q-67 -67 -161 -67v0zM2503 3640q-95 0 -161 67q-67 67 -67 161t67 161q66 67 161 67
q94 0 161 -67q66 -67 66 -161t-66 -161q-67 -67 -161 -67v0z" />
    <glyph glyph-name="r" unicode="r" 
d="M682 0q-94 0 -161 66q-66 67 -66 161t66 161q67 67 161 67t161 -67t67 -161t-67 -161q-67 -66 -161 -66v0zM2958 0q-94 0 -161 66q-67 67 -67 161t67 161t161 67t161 -67q66 -67 66 -161t-66 -161q-67 -66 -161 -66v0zM682 455q-94 0 -161 66q-66 67 -66 161t66 161
q67 67 161 67t161 -67t67 -161t-67 -161q-67 -66 -161 -66v0zM2958 455q-94 0 -161 66q-67 67 -67 161t67 161t161 67t161 -67q66 -67 66 -161t-66 -161q-67 -66 -161 -66v0zM682 910q-94 0 -161 66q-66 67 -66 161t66 161q67 67 161 67t161 -67t67 -161t-67 -161
q-67 -66 -161 -66v0zM2503 910q-95 0 -161 66q-67 67 -67 161t67 161q66 67 161 67q94 0 161 -67q66 -67 66 -161t-66 -161q-67 -66 -161 -66v0zM682 1365q-94 0 -161 66q-66 67 -66 161q0 95 66 161q67 67 161 67t161 -67q67 -66 67 -161q0 -94 -67 -161q-67 -66 -161 -66
v0zM2048 1365q-95 0 -162 66q-66 67 -66 161q0 95 66 161q67 67 162 67q94 0 161 -67q66 -66 66 -161q0 -94 -66 -161q-67 -66 -161 -66v0zM682 1820q-94 0 -161 66q-66 67 -66 162q0 94 66 161q67 66 161 66t161 -66q67 -67 67 -161q0 -95 -67 -162q-67 -66 -161 -66v0z
M1137 1820q-94 0 -161 66q-66 67 -66 162q0 94 66 161q67 66 161 66t161 -66q67 -67 67 -161q0 -95 -67 -162q-67 -66 -161 -66v0zM1592 1820q-94 0 -161 66q-66 67 -66 162q0 94 66 161q67 66 161 66q95 0 161 -66q67 -67 67 -161q0 -95 -67 -162q-66 -66 -161 -66v0z
M2048 1820q-95 0 -162 66q-66 67 -66 162q0 94 66 161q67 66 162 66q94 0 161 -66q66 -67 66 -161q0 -95 -66 -162q-67 -66 -161 -66v0zM2503 1820q-95 0 -161 66q-67 67 -67 162q0 94 67 161q66 66 161 66q94 0 161 -66q66 -67 66 -161q0 -95 -66 -162q-67 -66 -161 -66v0z
M682 2275q-94 0 -161 67q-66 66 -66 161q0 94 66 161q67 66 161 66t161 -66q67 -67 67 -161q0 -95 -67 -161q-67 -67 -161 -67v0zM2958 2275q-94 0 -161 67q-67 66 -67 161q0 94 67 161q67 66 161 66t161 -66q66 -67 66 -161q0 -95 -66 -161q-67 -67 -161 -67v0zM682 2730
q-94 0 -161 67q-66 67 -66 161t66 161q67 66 161 66t161 -66q67 -67 67 -161t-67 -161t-161 -67v0zM2958 2730q-94 0 -161 67t-67 161t67 161q67 66 161 66t161 -66q66 -67 66 -161t-66 -161q-67 -67 -161 -67v0zM682 3185q-94 0 -161 67q-66 67 -66 161t66 161
q67 66 161 66t161 -66q67 -67 67 -161t-67 -161t-161 -67v0zM2958 3185q-94 0 -161 67t-67 161t67 161q67 66 161 66t161 -66q66 -67 66 -161t-66 -161q-67 -67 -161 -67v0zM682 3640q-94 0 -161 67q-66 67 -66 161t66 161q67 67 161 67t161 -67t67 -161t-67 -161t-161 -67
v0zM1137 3640q-94 0 -161 67q-66 67 -66 161t66 161q67 67 161 67t161 -67t67 -161t-67 -161t-161 -67v0zM1592 3640q-94 0 -161 67q-66 67 -66 161t66 161q67 67 161 67q95 0 161 -67q67 -67 67 -161t-67 -161q-66 -67 -161 -67v0zM2048 3640q-95 0 -162 67q-66 67 -66 161
t66 161q67 67 162 67q94 0 161 -67q66 -67 66 -161t-66 -161q-67 -67 -161 -67v0zM2503 3640q-95 0 -161 67q-67 67 -67 161t67 161q66 67 161 67q94 0 161 -67q66 -67 66 -161t-66 -161q-67 -67 -161 -67v0z" />
    <glyph glyph-name="s" unicode="s" 
d="M1137 0q-94 0 -161 66q-66 67 -66 161t66 161q67 67 161 67t161 -67t67 -161t-67 -161q-67 -66 -161 -66v0zM1592 0q-94 0 -161 66q-66 67 -66 161t66 161q67 67 161 67q95 0 161 -67q67 -67 67 -161t-67 -161q-66 -66 -161 -66v0zM2048 0q-95 0 -162 66q-66 67 -66 161
t66 161q67 67 162 67q94 0 161 -67q66 -67 66 -161t-66 -161q-67 -66 -161 -66v0zM2503 0q-95 0 -161 66q-67 67 -67 161t67 161q66 67 161 67q94 0 161 -67q66 -67 66 -161t-66 -161q-67 -66 -161 -66v0zM682 455q-94 0 -161 66q-66 67 -66 161t66 161q67 67 161 67
t161 -67t67 -161t-67 -161q-67 -66 -161 -66v0zM2958 455q-94 0 -161 66q-67 67 -67 161t67 161t161 67t161 -67q66 -67 66 -161t-66 -161q-67 -66 -161 -66v0zM2958 910q-94 0 -161 66q-67 67 -67 161t67 161t161 67t161 -67q66 -67 66 -161t-66 -161q-67 -66 -161 -66v0z
M2958 1365q-94 0 -161 66q-67 67 -67 161q0 95 67 161q67 67 161 67t161 -67q66 -66 66 -161q0 -94 -66 -161q-67 -66 -161 -66v0zM1137 1820q-94 0 -161 66q-66 67 -66 162q0 94 66 161q67 66 161 66t161 -66q67 -67 67 -161q0 -95 -67 -162q-67 -66 -161 -66v0zM1592 1820
q-94 0 -161 66q-66 67 -66 162q0 94 66 161q67 66 161 66q95 0 161 -66q67 -67 67 -161q0 -95 -67 -162q-66 -66 -161 -66v0zM2048 1820q-95 0 -162 66q-66 67 -66 162q0 94 66 161q67 66 162 66q94 0 161 -66q66 -67 66 -161q0 -95 -66 -162q-67 -66 -161 -66v0zM2503 1820
q-95 0 -161 66q-67 67 -67 162q0 94 67 161q66 66 161 66q94 0 161 -66q66 -67 66 -161q0 -95 -66 -162q-67 -66 -161 -66v0zM682 2275q-94 0 -161 67q-66 66 -66 161q0 94 66 161q67 66 161 66t161 -66q67 -67 67 -161q0 -95 -67 -161q-67 -67 -161 -67v0zM682 2730
q-94 0 -161 67q-66 67 -66 161t66 161q67 66 161 66t161 -66q67 -67 67 -161t-67 -161t-161 -67v0zM682 3185q-94 0 -161 67q-66 67 -66 161t66 161q67 66 161 66t161 -66q67 -67 67 -161t-67 -161t-161 -67v0zM2958 3185q-94 0 -161 67t-67 161t67 161q67 66 161 66
t161 -66q66 -67 66 -161t-66 -161q-67 -67 -161 -67v0zM1137 3640q-94 0 -161 67q-66 67 -66 161t66 161q67 67 161 67t161 -67t67 -161t-67 -161t-161 -67v0zM1592 3640q-94 0 -161 67q-66 67 -66 161t66 161q67 67 161 67q95 0 161 -67q67 -67 67 -161t-67 -161
q-66 -67 -161 -67v0zM2048 3640q-95 0 -162 67q-66 67 -66 161t66 161q67 67 162 67q94 0 161 -67q66 -67 66 -161t-66 -161q-67 -67 -161 -67v0zM2503 3640q-95 0 -161 67q-67 67 -67 161t67 161q66 67 161 67q94 0 161 -67q66 -67 66 -161t-66 -161q-67 -67 -161 -67v0z
" />
    <glyph glyph-name="t" unicode="t" 
d="M1592 0q-94 0 -161 66q-66 67 -66 161t66 161q67 67 161 67q95 0 161 -67q67 -67 67 -161t-67 -161q-66 -66 -161 -66v0zM1592 455q-94 0 -161 66q-66 67 -66 161t66 161q67 67 161 67q95 0 161 -67q67 -67 67 -161t-67 -161q-66 -66 -161 -66v0zM1592 910q-94 0 -161 66
q-66 67 -66 161t66 161q67 67 161 67q95 0 161 -67q67 -67 67 -161t-67 -161q-66 -66 -161 -66v0zM1592 1365q-94 0 -161 66q-66 67 -66 161q0 95 66 161q67 67 161 67q95 0 161 -67q67 -66 67 -161q0 -94 -67 -161q-66 -66 -161 -66v0zM1592 1820q-94 0 -161 66
q-66 67 -66 162q0 94 66 161q67 66 161 66q95 0 161 -66q67 -67 67 -161q0 -95 -67 -162q-66 -66 -161 -66v0zM1592 2275q-94 0 -161 67q-66 66 -66 161q0 94 66 161q67 66 161 66q95 0 161 -66q67 -67 67 -161q0 -95 -67 -161q-66 -67 -161 -67v0zM1592 2730q-94 0 -161 67
q-66 67 -66 161t66 161q67 66 161 66q95 0 161 -66q67 -67 67 -161t-67 -161q-66 -67 -161 -67v0zM1592 3185q-94 0 -161 67q-66 67 -66 161t66 161q67 66 161 66q95 0 161 -66q67 -67 67 -161t-67 -161q-66 -67 -161 -67v0zM682 3640q-94 0 -161 67q-66 67 -66 161t66 161
q67 67 161 67t161 -67t67 -161t-67 -161t-161 -67v0zM1137 3640q-94 0 -161 67q-66 67 -66 161t66 161q67 67 161 67t161 -67t67 -161t-67 -161t-161 -67v0zM1592 3640q-94 0 -161 67q-66 67 -66 161t66 161q67 67 161 67q95 0 161 -67q67 -67 67 -161t-67 -161
q-66 -67 -161 -67v0zM2048 3640q-95 0 -162 67q-66 67 -66 161t66 161q67 67 162 67q94 0 161 -67q66 -67 66 -161t-66 -161q-67 -67 -161 -67v0zM2503 3640q-95 0 -161 67q-67 67 -67 161t67 161q66 67 161 67q94 0 161 -67q66 -67 66 -161t-66 -161q-67 -67 -161 -67v0z
M2958 3640q-94 0 -161 67t-67 161t67 161t161 67t161 -67q66 -67 66 -161t-66 -161q-67 -67 -161 -67v0z" />
    <glyph glyph-name="u" unicode="u" 
d="M1137 0q-94 0 -161 66q-66 67 -66 161t66 161q67 67 161 67t161 -67t67 -161t-67 -161q-67 -66 -161 -66v0zM1592 0q-94 0 -161 66q-66 67 -66 161t66 161q67 67 161 67q95 0 161 -67q67 -67 67 -161t-67 -161q-66 -66 -161 -66v0zM2048 0q-95 0 -162 66q-66 67 -66 161
t66 161q67 67 162 67q94 0 161 -67q66 -67 66 -161t-66 -161q-67 -66 -161 -66v0zM2503 0q-95 0 -161 66q-67 67 -67 161t67 161q66 67 161 67q94 0 161 -67q66 -67 66 -161t-66 -161q-67 -66 -161 -66v0zM682 455q-94 0 -161 66q-66 67 -66 161t66 161q67 67 161 67
t161 -67t67 -161t-67 -161q-67 -66 -161 -66v0zM2958 455q-94 0 -161 66q-67 67 -67 161t67 161t161 67t161 -67q66 -67 66 -161t-66 -161q-67 -66 -161 -66v0zM682 910q-94 0 -161 66q-66 67 -66 161t66 161q67 67 161 67t161 -67t67 -161t-67 -161q-67 -66 -161 -66v0z
M2958 910q-94 0 -161 66q-67 67 -67 161t67 161t161 67t161 -67q66 -67 66 -161t-66 -161q-67 -66 -161 -66v0zM682 1365q-94 0 -161 66q-66 67 -66 161q0 95 66 161q67 67 161 67t161 -67q67 -66 67 -161q0 -94 -67 -161q-67 -66 -161 -66v0zM2958 1365q-94 0 -161 66
q-67 67 -67 161q0 95 67 161q67 67 161 67t161 -67q66 -66 66 -161q0 -94 -66 -161q-67 -66 -161 -66v0zM682 1820q-94 0 -161 66q-66 67 -66 162q0 94 66 161q67 66 161 66t161 -66q67 -67 67 -161q0 -95 -67 -162q-67 -66 -161 -66v0zM2958 1820q-94 0 -161 66
q-67 67 -67 162q0 94 67 161q67 66 161 66t161 -66q66 -67 66 -161q0 -95 -66 -162q-67 -66 -161 -66v0zM682 2275q-94 0 -161 67q-66 66 -66 161q0 94 66 161q67 66 161 66t161 -66q67 -67 67 -161q0 -95 -67 -161q-67 -67 -161 -67v0zM2958 2275q-94 0 -161 67
q-67 66 -67 161q0 94 67 161q67 66 161 66t161 -66q66 -67 66 -161q0 -95 -66 -161q-67 -67 -161 -67v0zM682 2730q-94 0 -161 67q-66 67 -66 161t66 161q67 66 161 66t161 -66q67 -67 67 -161t-67 -161t-161 -67v0zM2958 2730q-94 0 -161 67t-67 161t67 161q67 66 161 66
t161 -66q66 -67 66 -161t-66 -161q-67 -67 -161 -67v0zM682 3185q-94 0 -161 67q-66 67 -66 161t66 161q67 66 161 66t161 -66q67 -67 67 -161t-67 -161t-161 -67v0zM2958 3185q-94 0 -161 67t-67 161t67 161q67 66 161 66t161 -66q66 -67 66 -161t-66 -161
q-67 -67 -161 -67v0zM682 3640q-94 0 -161 67q-66 67 -66 161t66 161q67 67 161 67t161 -67t67 -161t-67 -161t-161 -67v0zM2958 3640q-94 0 -161 67t-67 161t67 161t161 67t161 -67q66 -67 66 -161t-66 -161q-67 -67 -161 -67v0z" />
    <glyph glyph-name="v" unicode="v" 
d="M1592 0q-94 0 -161 66q-66 67 -66 161t66 161q67 67 161 67q95 0 161 -67q67 -67 67 -161t-67 -161q-66 -66 -161 -66v0zM2048 0q-95 0 -162 66q-66 67 -66 161t66 161q67 67 162 67q94 0 161 -67q66 -67 66 -161t-66 -161q-67 -66 -161 -66v0zM1137 455q-94 0 -161 66
q-66 67 -66 161t66 161q67 67 161 67t161 -67t67 -161t-67 -161q-67 -66 -161 -66v0zM2503 455q-95 0 -161 66q-67 67 -67 161t67 161q66 67 161 67q94 0 161 -67q66 -67 66 -161t-66 -161q-67 -66 -161 -66v0zM1137 910q-94 0 -161 66q-66 67 -66 161t66 161q67 67 161 67
t161 -67t67 -161t-67 -161q-67 -66 -161 -66v0zM2503 910q-95 0 -161 66q-67 67 -67 161t67 161q66 67 161 67q94 0 161 -67q66 -67 66 -161t-66 -161q-67 -66 -161 -66v0zM682 1365q-94 0 -161 66q-66 67 -66 161q0 95 66 161q67 67 161 67t161 -67q67 -66 67 -161
q0 -94 -67 -161q-67 -66 -161 -66v0zM2958 1365q-94 0 -161 66q-67 67 -67 161q0 95 67 161q67 67 161 67t161 -67q66 -66 66 -161q0 -94 -66 -161q-67 -66 -161 -66v0zM682 1820q-94 0 -161 66q-66 67 -66 162q0 94 66 161q67 66 161 66t161 -66q67 -67 67 -161
q0 -95 -67 -162q-67 -66 -161 -66v0zM2958 1820q-94 0 -161 66q-67 67 -67 162q0 94 67 161q67 66 161 66t161 -66q66 -67 66 -161q0 -95 -66 -162q-67 -66 -161 -66v0zM682 2275q-94 0 -161 67q-66 66 -66 161q0 94 66 161q67 66 161 66t161 -66q67 -67 67 -161
q0 -95 -67 -161q-67 -67 -161 -67v0zM2958 2275q-94 0 -161 67q-67 66 -67 161q0 94 67 161q67 66 161 66t161 -66q66 -67 66 -161q0 -95 -66 -161q-67 -67 -161 -67v0zM682 2730q-94 0 -161 67q-66 67 -66 161t66 161q67 66 161 66t161 -66q67 -67 67 -161t-67 -161
t-161 -67v0zM2958 2730q-94 0 -161 67t-67 161t67 161q67 66 161 66t161 -66q66 -67 66 -161t-66 -161q-67 -67 -161 -67v0zM682 3185q-94 0 -161 67q-66 67 -66 161t66 161q67 66 161 66t161 -66q67 -67 67 -161t-67 -161t-161 -67v0zM2958 3185q-94 0 -161 67t-67 161
t67 161q67 66 161 66t161 -66q66 -67 66 -161t-66 -161q-67 -67 -161 -67v0zM682 3640q-94 0 -161 67q-66 67 -66 161t66 161q67 67 161 67t161 -67t67 -161t-67 -161t-161 -67v0zM2958 3640q-94 0 -161 67t-67 161t67 161t161 67t161 -67q66 -67 66 -161t-66 -161
q-67 -67 -161 -67v0z" />
    <glyph glyph-name="w" unicode="w" 
d="M1137 0q-94 0 -161 66q-66 67 -66 161t66 161q67 67 161 67t161 -67t67 -161t-67 -161q-67 -66 -161 -66v0zM2503 0q-95 0 -161 66q-67 67 -67 161t67 161q66 67 161 67q94 0 161 -67q66 -67 66 -161t-66 -161q-67 -66 -161 -66v0zM1137 455q-94 0 -161 66
q-66 67 -66 161t66 161q67 67 161 67t161 -67t67 -161t-67 -161q-67 -66 -161 -66v0zM2503 455q-95 0 -161 66q-67 67 -67 161t67 161q66 67 161 67q94 0 161 -67q66 -67 66 -161t-66 -161q-67 -66 -161 -66v0zM682 910q-94 0 -161 66q-66 67 -66 161t66 161q67 67 161 67
t161 -67t67 -161t-67 -161q-67 -66 -161 -66v0zM1137 910q-94 0 -161 66q-66 67 -66 161t66 161q67 67 161 67t161 -67t67 -161t-67 -161q-67 -66 -161 -66v0zM1592 910q-94 0 -161 66q-66 67 -66 161t66 161q67 67 161 67q95 0 161 -67q67 -67 67 -161t-67 -161
q-66 -66 -161 -66v0zM2048 910q-95 0 -162 66q-66 67 -66 161t66 161q67 67 162 67q94 0 161 -67q66 -67 66 -161t-66 -161q-67 -66 -161 -66v0zM2503 910q-95 0 -161 66q-67 67 -67 161t67 161q66 67 161 67q94 0 161 -67q66 -67 66 -161t-66 -161q-67 -66 -161 -66v0z
M2958 910q-94 0 -161 66q-67 67 -67 161t67 161t161 67t161 -67q66 -67 66 -161t-66 -161q-67 -66 -161 -66v0zM682 1365q-94 0 -161 66q-66 67 -66 161q0 95 66 161q67 67 161 67t161 -67q67 -66 67 -161q0 -94 -67 -161q-67 -66 -161 -66v0zM1592 1365q-94 0 -161 66
q-66 67 -66 161q0 95 66 161q67 67 161 67q95 0 161 -67q67 -66 67 -161q0 -94 -67 -161q-66 -66 -161 -66v0zM2048 1365q-95 0 -162 66q-66 67 -66 161q0 95 66 161q67 67 162 67q94 0 161 -67q66 -66 66 -161q0 -94 -66 -161q-67 -66 -161 -66v0zM2958 1365q-94 0 -161 66
q-67 67 -67 161q0 95 67 161q67 67 161 67t161 -67q66 -66 66 -161q0 -94 -66 -161q-67 -66 -161 -66v0zM682 1820q-94 0 -161 66q-66 67 -66 162q0 94 66 161q67 66 161 66t161 -66q67 -67 67 -161q0 -95 -67 -162q-67 -66 -161 -66v0zM1592 1820q-94 0 -161 66
q-66 67 -66 162q0 94 66 161q67 66 161 66q95 0 161 -66q67 -67 67 -161q0 -95 -67 -162q-66 -66 -161 -66v0zM2048 1820q-95 0 -162 66q-66 67 -66 162q0 94 66 161q67 66 162 66q94 0 161 -66q66 -67 66 -161q0 -95 -66 -162q-67 -66 -161 -66v0zM2958 1820q-94 0 -161 66
q-67 67 -67 162q0 94 67 161q67 66 161 66t161 -66q66 -67 66 -161q0 -95 -66 -162q-67 -66 -161 -66v0zM682 2275q-94 0 -161 67q-66 66 -66 161q0 94 66 161q67 66 161 66t161 -66q67 -67 67 -161q0 -95 -67 -161q-67 -67 -161 -67v0zM1592 2275q-94 0 -161 67
q-66 66 -66 161q0 94 66 161q67 66 161 66q95 0 161 -66q67 -67 67 -161q0 -95 -67 -161q-66 -67 -161 -67v0zM2048 2275q-95 0 -162 67q-66 66 -66 161q0 94 66 161q67 66 162 66q94 0 161 -66q66 -67 66 -161q0 -95 -66 -161q-67 -67 -161 -67v0zM2958 2275q-94 0 -161 67
q-67 66 -67 161q0 94 67 161q67 66 161 66t161 -66q66 -67 66 -161q0 -95 -66 -161q-67 -67 -161 -67v0zM682 2730q-94 0 -161 67q-66 67 -66 161t66 161q67 66 161 66t161 -66q67 -67 67 -161t-67 -161t-161 -67v0zM2958 2730q-94 0 -161 67t-67 161t67 161q67 66 161 66
t161 -66q66 -67 66 -161t-66 -161q-67 -67 -161 -67v0zM682 3185q-94 0 -161 67q-66 67 -66 161t66 161q67 66 161 66t161 -66q67 -67 67 -161t-67 -161t-161 -67v0zM2958 3185q-94 0 -161 67t-67 161t67 161q67 66 161 66t161 -66q66 -67 66 -161t-66 -161
q-67 -67 -161 -67v0zM682 3640q-94 0 -161 67q-66 67 -66 161t66 161q67 67 161 67t161 -67t67 -161t-67 -161t-161 -67v0zM2958 3640q-94 0 -161 67t-67 161t67 161t161 67t161 -67q66 -67 66 -161t-66 -161q-67 -67 -161 -67v0z" />
    <glyph glyph-name="x" unicode="x" 
d="M682 0q-94 0 -161 66q-66 67 -66 161t66 161q67 67 161 67t161 -67t67 -161t-67 -161q-67 -66 -161 -66v0zM2958 0q-94 0 -161 66q-67 67 -67 161t67 161t161 67t161 -67q66 -67 66 -161t-66 -161q-67 -66 -161 -66v0zM682 455q-94 0 -161 66q-66 67 -66 161t66 161
q67 67 161 67t161 -67t67 -161t-67 -161q-67 -66 -161 -66v0zM2958 455q-94 0 -161 66q-67 67 -67 161t67 161t161 67t161 -67q66 -67 66 -161t-66 -161q-67 -66 -161 -66v0zM1137 910q-94 0 -161 66q-66 67 -66 161t66 161q67 67 161 67t161 -67t67 -161t-67 -161
q-67 -66 -161 -66v0zM2503 910q-95 0 -161 66q-67 67 -67 161t67 161q66 67 161 67q94 0 161 -67q66 -67 66 -161t-66 -161q-67 -66 -161 -66v0zM1592 1365q-94 0 -161 66q-66 67 -66 161q0 95 66 161q67 67 161 67q95 0 161 -67q67 -66 67 -161q0 -94 -67 -161
q-66 -66 -161 -66v0zM2048 1365q-95 0 -162 66q-66 67 -66 161q0 95 66 161q67 67 162 67q94 0 161 -67q66 -66 66 -161q0 -94 -66 -161q-67 -66 -161 -66v0zM1592 1820q-94 0 -161 66q-66 67 -66 162q0 94 66 161q67 66 161 66q95 0 161 -66q67 -67 67 -161q0 -95 -67 -162
q-66 -66 -161 -66v0zM2048 1820q-95 0 -162 66q-66 67 -66 162q0 94 66 161q67 66 162 66q94 0 161 -66q66 -67 66 -161q0 -95 -66 -162q-67 -66 -161 -66v0zM1592 2275q-94 0 -161 67q-66 66 -66 161q0 94 66 161q67 66 161 66q95 0 161 -66q67 -67 67 -161q0 -95 -67 -161
q-66 -67 -161 -67v0zM2048 2275q-95 0 -162 67q-66 66 -66 161q0 94 66 161q67 66 162 66q94 0 161 -66q66 -67 66 -161q0 -95 -66 -161q-67 -67 -161 -67v0zM1137 2730q-94 0 -161 67q-66 67 -66 161t66 161q67 66 161 66t161 -66q67 -67 67 -161t-67 -161t-161 -67v0z
M2503 2730q-95 0 -161 67q-67 67 -67 161t67 161q66 66 161 66q94 0 161 -66q66 -67 66 -161t-66 -161q-67 -67 -161 -67v0zM682 3185q-94 0 -161 67q-66 67 -66 161t66 161q67 66 161 66t161 -66q67 -67 67 -161t-67 -161t-161 -67v0zM2958 3185q-94 0 -161 67t-67 161
t67 161q67 66 161 66t161 -66q66 -67 66 -161t-66 -161q-67 -67 -161 -67v0zM682 3640q-94 0 -161 67q-66 67 -66 161t66 161q67 67 161 67t161 -67t67 -161t-67 -161t-161 -67v0zM2958 3640q-94 0 -161 67t-67 161t67 161t161 67t161 -67q66 -67 66 -161t-66 -161
q-67 -67 -161 -67v0z" />
    <glyph glyph-name="y" unicode="y" 
d="M1592 0q-94 0 -161 66q-66 67 -66 161t66 161q67 67 161 67q95 0 161 -67q67 -67 67 -161t-67 -161q-66 -66 -161 -66v0zM1592 455q-94 0 -161 66q-66 67 -66 161t66 161q67 67 161 67q95 0 161 -67q67 -67 67 -161t-67 -161q-66 -66 -161 -66v0zM1592 910q-94 0 -161 66
q-66 67 -66 161t66 161q67 67 161 67q95 0 161 -67q67 -67 67 -161t-67 -161q-66 -66 -161 -66v0zM1592 1365q-94 0 -161 66q-66 67 -66 161q0 95 66 161q67 67 161 67q95 0 161 -67q67 -66 67 -161q0 -94 -67 -161q-66 -66 -161 -66v0zM1592 1820q-94 0 -161 66
q-66 67 -66 162q0 94 66 161q67 66 161 66q95 0 161 -66q67 -67 67 -161q0 -95 -67 -162q-66 -66 -161 -66v0zM2048 1820q-95 0 -162 66q-66 67 -66 162q0 94 66 161q67 66 162 66q94 0 161 -66q66 -67 66 -161q0 -95 -66 -162q-67 -66 -161 -66v0zM1137 2275q-94 0 -161 67
q-66 66 -66 161q0 94 66 161q67 66 161 66t161 -66q67 -67 67 -161q0 -95 -67 -161q-67 -67 -161 -67v0zM2503 2275q-95 0 -161 67q-67 66 -67 161q0 94 67 161q66 66 161 66q94 0 161 -66q66 -67 66 -161q0 -95 -66 -161q-67 -67 -161 -67v0zM682 2730q-94 0 -161 67
q-66 67 -66 161t66 161q67 66 161 66t161 -66q67 -67 67 -161t-67 -161t-161 -67v0zM2958 2730q-94 0 -161 67t-67 161t67 161q67 66 161 66t161 -66q66 -67 66 -161t-66 -161q-67 -67 -161 -67v0zM682 3185q-94 0 -161 67q-66 67 -66 161t66 161q67 66 161 66t161 -66
q67 -67 67 -161t-67 -161t-161 -67v0zM2958 3185q-94 0 -161 67t-67 161t67 161q67 66 161 66t161 -66q66 -67 66 -161t-66 -161q-67 -67 -161 -67v0zM682 3640q-94 0 -161 67q-66 67 -66 161t66 161q67 67 161 67t161 -67t67 -161t-67 -161t-161 -67v0zM2958 3640
q-94 0 -161 67t-67 161t67 161t161 67t161 -67q66 -67 66 -161t-66 -161q-67 -67 -161 -67v0z" />
    <glyph glyph-name="z" unicode="z" 
d="M682 0q-94 0 -161 66q-66 67 -66 161t66 161q67 67 161 67t161 -67t67 -161t-67 -161q-67 -66 -161 -66v0zM1137 0q-94 0 -161 66q-66 67 -66 161t66 161q67 67 161 67t161 -67t67 -161t-67 -161q-67 -66 -161 -66v0zM1592 0q-94 0 -161 66q-66 67 -66 161t66 161
q67 67 161 67q95 0 161 -67q67 -67 67 -161t-67 -161q-66 -66 -161 -66v0zM2048 0q-95 0 -162 66q-66 67 -66 161t66 161q67 67 162 67q94 0 161 -67q66 -67 66 -161t-66 -161q-67 -66 -161 -66v0zM2503 0q-95 0 -161 66q-67 67 -67 161t67 161q66 67 161 67q94 0 161 -67
q66 -67 66 -161t-66 -161q-67 -66 -161 -66v0zM2958 0q-94 0 -161 66q-67 67 -67 161t67 161t161 67t161 -67q66 -67 66 -161t-66 -161q-67 -66 -161 -66v0zM682 455q-94 0 -161 66q-66 67 -66 161t66 161q67 67 161 67t161 -67t67 -161t-67 -161q-67 -66 -161 -66v0z
M682 910q-94 0 -161 66q-66 67 -66 161t66 161q67 67 161 67t161 -67t67 -161t-67 -161q-67 -66 -161 -66v0zM1137 910q-94 0 -161 66q-66 67 -66 161t66 161q67 67 161 67t161 -67t67 -161t-67 -161q-67 -66 -161 -66v0zM1137 1365q-94 0 -161 66q-66 67 -66 161
q0 95 66 161q67 67 161 67t161 -67q67 -66 67 -161q0 -94 -67 -161q-67 -66 -161 -66v0zM1592 1365q-94 0 -161 66q-66 67 -66 161q0 95 66 161q67 67 161 67q95 0 161 -67q67 -66 67 -161q0 -94 -67 -161q-66 -66 -161 -66v0zM1592 1820q-94 0 -161 66q-66 67 -66 162
q0 94 66 161q67 66 161 66q95 0 161 -66q67 -67 67 -161q0 -95 -67 -162q-66 -66 -161 -66v0zM2048 1820q-95 0 -162 66q-66 67 -66 162q0 94 66 161q67 66 162 66q94 0 161 -66q66 -67 66 -161q0 -95 -66 -162q-67 -66 -161 -66v0zM2048 2275q-95 0 -162 67q-66 66 -66 161
q0 94 66 161q67 66 162 66q94 0 161 -66q66 -67 66 -161q0 -95 -66 -161q-67 -67 -161 -67v0zM2503 2275q-95 0 -161 67q-67 66 -67 161q0 94 67 161q66 66 161 66q94 0 161 -66q66 -67 66 -161q0 -95 -66 -161q-67 -67 -161 -67v0zM2503 2730q-95 0 -161 67q-67 67 -67 161
t67 161q66 66 161 66q94 0 161 -66q66 -67 66 -161t-66 -161q-67 -67 -161 -67v0zM2958 2730q-94 0 -161 67t-67 161t67 161q67 66 161 66t161 -66q66 -67 66 -161t-66 -161q-67 -67 -161 -67v0zM2958 3185q-94 0 -161 67t-67 161t67 161q67 66 161 66t161 -66
q66 -67 66 -161t-66 -161q-67 -67 -161 -67v0zM682 3640q-94 0 -161 67q-66 67 -66 161t66 161q67 67 161 67t161 -67t67 -161t-67 -161t-161 -67v0zM1137 3640q-94 0 -161 67q-66 67 -66 161t66 161q67 67 161 67t161 -67t67 -161t-67 -161t-161 -67v0zM1592 3640
q-94 0 -161 67q-66 67 -66 161t66 161q67 67 161 67q95 0 161 -67q67 -67 67 -161t-67 -161q-66 -67 -161 -67v0zM2048 3640q-95 0 -162 67q-66 67 -66 161t66 161q67 67 162 67q94 0 161 -67q66 -67 66 -161t-66 -161q-67 -67 -161 -67v0zM2503 3640q-95 0 -161 67
q-67 67 -67 161t67 161q66 67 161 67q94 0 161 -67q66 -67 66 -161t-66 -161q-67 -67 -161 -67v0zM2958 3640q-94 0 -161 67t-67 161t67 161t161 67t161 -67q66 -67 66 -161t-66 -161q-67 -67 -161 -67v0z" />
    <glyph glyph-name="braceleft" unicode="{" horiz-adv-x="2730" 
d="M2048 0q-95 0 -162 66q-66 67 -66 161t66 161q67 67 162 67q94 0 161 -67q66 -67 66 -161t-66 -161q-67 -66 -161 -66v0zM1592 455q-94 0 -161 66q-66 67 -66 161t66 161q67 67 161 67q95 0 161 -67q67 -67 67 -161t-67 -161q-66 -66 -161 -66v0zM2048 455q-95 0 -162 66
q-66 67 -66 161t66 161q67 67 162 67q94 0 161 -67q66 -67 66 -161t-66 -161q-67 -66 -161 -66v0zM1592 910q-94 0 -161 66q-66 67 -66 161t66 161q67 67 161 67q95 0 161 -67q67 -67 67 -161t-67 -161q-66 -66 -161 -66v0zM2048 1365q-95 0 -162 66q-66 67 -66 161
q0 95 66 161q67 67 162 67q94 0 161 -67q66 -66 66 -161q0 -94 -66 -161q-67 -66 -161 -66v0zM1137 1820q-94 0 -161 66q-66 67 -66 162q0 94 66 161q67 66 161 66t161 -66q67 -67 67 -161q0 -95 -67 -162q-67 -66 -161 -66v0zM1592 1820q-94 0 -161 66q-66 67 -66 162
q0 94 66 161q67 66 161 66q95 0 161 -66q67 -67 67 -161q0 -95 -67 -162q-66 -66 -161 -66v0zM2048 1820q-95 0 -162 66q-66 67 -66 162q0 94 66 161q67 66 162 66q94 0 161 -66q66 -67 66 -161q0 -95 -66 -162q-67 -66 -161 -66v0zM2048 2275q-95 0 -162 67q-66 66 -66 161
q0 94 66 161q67 66 162 66q94 0 161 -66q66 -67 66 -161q0 -95 -66 -161q-67 -67 -161 -67v0zM1592 2730q-94 0 -161 67q-66 67 -66 161t66 161q67 66 161 66q95 0 161 -66q67 -67 67 -161t-67 -161q-66 -67 -161 -67v0zM1592 3185q-94 0 -161 67q-66 67 -66 161t66 161
q67 66 161 66q95 0 161 -66q67 -67 67 -161t-67 -161q-66 -67 -161 -67v0zM2048 3185q-95 0 -162 67q-66 67 -66 161t66 161q67 66 162 66q94 0 161 -66q66 -67 66 -161t-66 -161q-67 -67 -161 -67v0zM2048 3640q-95 0 -162 67q-66 67 -66 161t66 161q67 67 162 67
q94 0 161 -67q66 -67 66 -161t-66 -161q-67 -67 -161 -67v0z" />
    <glyph glyph-name="bar" unicode="|" horiz-adv-x="2730" 
d="M2048 0q-95 0 -162 66q-66 67 -66 161t66 161q67 67 162 67q94 0 161 -67q66 -67 66 -161t-66 -161q-67 -66 -161 -66v0zM2048 455q-95 0 -162 66q-66 67 -66 161t66 161q67 67 162 67q94 0 161 -67q66 -67 66 -161t-66 -161q-67 -66 -161 -66v0zM2048 910q-95 0 -162 66
q-66 67 -66 161t66 161q67 67 162 67q94 0 161 -67q66 -67 66 -161t-66 -161q-67 -66 -161 -66v0zM2048 1365q-95 0 -162 66q-66 67 -66 161q0 95 66 161q67 67 162 67q94 0 161 -67q66 -66 66 -161q0 -94 -66 -161q-67 -66 -161 -66v0zM2048 1820q-95 0 -162 66
q-66 67 -66 162q0 94 66 161q67 66 162 66q94 0 161 -66q66 -67 66 -161q0 -95 -66 -162q-67 -66 -161 -66v0zM2048 2275q-95 0 -162 67q-66 66 -66 161q0 94 66 161q67 66 162 66q94 0 161 -66q66 -67 66 -161q0 -95 -66 -161q-67 -67 -161 -67v0zM2048 2730q-95 0 -162 67
q-66 67 -66 161t66 161q67 66 162 66q94 0 161 -66q66 -67 66 -161t-66 -161q-67 -67 -161 -67v0zM2048 3185q-95 0 -162 67q-66 67 -66 161t66 161q67 66 162 66q94 0 161 -66q66 -67 66 -161t-66 -161q-67 -67 -161 -67v0zM2048 3640q-95 0 -162 67q-66 67 -66 161t66 161
q67 67 162 67q94 0 161 -67q66 -67 66 -161t-66 -161q-67 -67 -161 -67v0z" />
    <glyph glyph-name="braceright" unicode="}" horiz-adv-x="4096" 
d="M2503 0q-95 0 -161 66q-67 67 -67 161t67 161q66 67 161 67q94 0 161 -67q66 -67 66 -161t-66 -161q-67 -66 -161 -66v0zM2503 455q-95 0 -161 66q-67 67 -67 161t67 161q66 67 161 67q94 0 161 -67q66 -67 66 -161t-66 -161q-67 -66 -161 -66v0zM2958 455q-94 0 -161 66
q-67 67 -67 161t67 161t161 67t161 -67q66 -67 66 -161t-66 -161q-67 -66 -161 -66v0zM2958 910q-94 0 -161 66q-67 67 -67 161t67 161t161 67t161 -67q66 -67 66 -161t-66 -161q-67 -66 -161 -66v0zM2503 1365q-95 0 -161 66q-67 67 -67 161q0 95 67 161q66 67 161 67
q94 0 161 -67q66 -66 66 -161q0 -94 -66 -161q-67 -66 -161 -66v0zM2503 1820q-95 0 -161 66q-67 67 -67 162q0 94 67 161q66 66 161 66q94 0 161 -66q66 -67 66 -161q0 -95 -66 -162q-67 -66 -161 -66v0zM2958 1820q-94 0 -161 66q-67 67 -67 162q0 94 67 161q67 66 161 66
t161 -66q66 -67 66 -161q0 -95 -66 -162q-67 -66 -161 -66v0zM3413 1820q-94 0 -161 66q-67 67 -67 162q0 94 67 161q67 66 161 66t161 -66q66 -67 66 -161q0 -95 -66 -162q-67 -66 -161 -66v0zM2503 2275q-95 0 -161 67q-67 66 -67 161q0 94 67 161q66 66 161 66
q94 0 161 -66q66 -67 66 -161q0 -95 -66 -161q-67 -67 -161 -67v0zM2958 2730q-94 0 -161 67t-67 161t67 161q67 66 161 66t161 -66q66 -67 66 -161t-66 -161q-67 -67 -161 -67v0zM2503 3185q-95 0 -161 67q-67 67 -67 161t67 161q66 66 161 66q94 0 161 -66q66 -67 66 -161
t-66 -161q-67 -67 -161 -67v0zM2958 3185q-94 0 -161 67t-67 161t67 161q67 66 161 66t161 -66q66 -67 66 -161t-66 -161q-67 -67 -161 -67v0zM2503 3640q-95 0 -161 67q-67 67 -67 161t67 161q66 67 161 67q94 0 161 -67q66 -67 66 -161t-66 -161q-67 -67 -161 -67v0z" />
    <glyph glyph-name="asciitilde" unicode="~" 
d="M682 1365q-94 0 -161 66q-66 67 -66 161q0 95 66 161q67 67 161 67t161 -67q67 -66 67 -161q0 -94 -67 -161q-67 -66 -161 -66v0zM2048 1365q-95 0 -162 66q-66 67 -66 161q0 95 66 161q67 67 162 67q94 0 161 -67q66 -66 66 -161q0 -94 -66 -161q-67 -66 -161 -66v0z
M2503 1365q-95 0 -161 66q-67 67 -67 161q0 95 67 161q66 67 161 67q94 0 161 -67q66 -66 66 -161q0 -94 -66 -161q-67 -66 -161 -66v0zM1137 1820q-94 0 -161 66q-66 67 -66 162q0 94 66 161q67 66 161 66t161 -66q67 -67 67 -161q0 -95 -67 -162q-67 -66 -161 -66v0z
M1592 1820q-94 0 -161 66q-66 67 -66 162q0 94 66 161q67 66 161 66q95 0 161 -66q67 -67 67 -161q0 -95 -67 -162q-66 -66 -161 -66v0zM2958 1820q-94 0 -161 66q-67 67 -67 162q0 94 67 161q67 66 161 66t161 -66q66 -67 66 -161q0 -95 -66 -162q-67 -66 -161 -66v0z" />
    <glyph glyph-name="quoteleft" unicode="&#x2018;" horiz-adv-x="1820" 
d="M1137 3185q-94 0 -161 67q-66 67 -66 161t66 161q67 66 161 66t161 -66q67 -67 67 -161t-67 -161t-161 -67v0zM1137 3640q-94 0 -161 67q-66 67 -66 161t66 161q67 67 161 67t161 -67t67 -161t-67 -161t-161 -67v0z" />
    <glyph glyph-name="quoteright" unicode="&#x2019;" horiz-adv-x="2275" 
d="M1592 3185q-94 0 -161 67q-66 67 -66 161t66 161q67 66 161 66q95 0 161 -66q67 -67 67 -161t-67 -161q-66 -67 -161 -67v0zM1592 3640q-94 0 -161 67q-66 67 -66 161t66 161q67 67 161 67q95 0 161 -67q67 -67 67 -161t-67 -161q-66 -67 -161 -67v0z" />
    <glyph glyph-name="quotedblleft" unicode="&#x201c;" horiz-adv-x="2275" 
d="M1592 2730q-94 0 -161 67q-66 67 -66 161t66 161q67 66 161 66q95 0 161 -66q67 -67 67 -161t-67 -161q-66 -67 -161 -67v0zM1137 3185q-94 0 -161 67q-66 67 -66 161t66 161q67 66 161 66t161 -66q67 -67 67 -161t-67 -161t-161 -67v0zM1592 3185q-94 0 -161 67
q-66 67 -66 161t66 161q67 66 161 66q95 0 161 -66q67 -67 67 -161t-67 -161q-66 -67 -161 -67v0zM1137 3640q-94 0 -161 67q-66 67 -66 161t66 161q67 67 161 67t161 -67t67 -161t-67 -161t-161 -67v0zM1592 3640q-94 0 -161 67q-66 67 -66 161t66 161q67 67 161 67
q95 0 161 -67q67 -67 67 -161t-67 -161q-66 -67 -161 -67v0z" />
    <glyph glyph-name="quotedblright" unicode="&#x201d;" horiz-adv-x="2275" 
d="M1137 2730q-94 0 -161 67q-66 67 -66 161t66 161q67 66 161 66t161 -66q67 -67 67 -161t-67 -161t-161 -67v0zM1137 3185q-94 0 -161 67q-66 67 -66 161t66 161q67 66 161 66t161 -66q67 -67 67 -161t-67 -161t-161 -67v0zM1592 3185q-94 0 -161 67q-66 67 -66 161
t66 161q67 66 161 66q95 0 161 -66q67 -67 67 -161t-67 -161q-66 -67 -161 -67v0zM1137 3640q-94 0 -161 67q-66 67 -66 161t66 161q67 67 161 67t161 -67t67 -161t-67 -161t-161 -67v0zM1592 3640q-94 0 -161 67q-66 67 -66 161t66 161q67 67 161 67q95 0 161 -67
q67 -67 67 -161t-67 -161q-66 -67 -161 -67v0z" />
  </font>
</defs>
</svg>
